<?xml version="1.0" standalone="no"?>
<!DOCTYPE svg PUBLIC "-//W3C//DTD SVG 1.1//EN"
  "http://www.w3.org/Graphics/SVG/1.1/DTD/svg11.dtd">
<svg width="290.3999938964844mm" height="100.9960021972656mm" viewBox="-145.1999969482422 -50.4980010986328 290.3999938964844 100.9960021972656" xmlns="http://www.w3.org/2000/svg" version="1.1">
	<title>svgOutput</title>
	<desc>made with tinkercad</desc>
<path d="M 141.70899963378906 -49.19100189208983 L 141.79112243652344 -49.15200042724608 L 142.06700134277344 -49.02099990844725 L 142.40699768066406 -48.81800079345702 L 142.72500610351562 -48.58200073242186 L 143.01800537109375 -48.31600189208983 L 143.28399658203125 -48.02299880981444 L 143.52000427246094 -47.70399856567382 L 143.7239990234375 -47.36500167846679 L 143.89300537109375 -47.006999969482415 L 144.0260009765625 -46.6339988708496 L 144.1219940185547 -46.24999999999999 L 144.18099975585938 -45.85800170898437 L 144.1999969482422 -45.463001251220696 L 144.1999969482422 -42.66108322143554 L 144.1999969482422 -40.95999908447265 L 144.1999969482422 -32.76800155639648 L 144.1999969482422 1.1102230246251565e-16 L 144.1999969482422 32.76800155639648 L 144.1999969482422 40.95999908447265 L 144.1999969482422 45.05599975585937 L 144.1999969482422 45.463001251220696 L 144.18099975585938 45.85800170898437 L 144.1219940185547 46.24999999999999 L 144.0260009765625 46.6339988708496 L 143.89300537109375 47.006999969482415 L 143.7239990234375 47.36500167846679 L 143.52000427246094 47.70399856567382 L 143.36000061035156 47.92027282714843 L 143.28399658203125 48.02299880981444 L 143.01800537109375 48.31600189208983 L 142.72500610351562 48.58200073242186 L 142.40699768066406 48.81800079345702 L 142.06700134277344 49.02099990844725 L 141.79112243652344 49.15200042724608 L 141.70899963378906 49.19100189208983 L 141.33599853515625 49.324001312255845 L 140.95199584960938 49.4199981689453 L 140.56100463867188 49.478000640869126 L 140.1649932861328 49.4980010986328 L 131.07200622558594 49.4980010986328 L 65.53600311279297 49.4980010986328 L 49.152000427246094 49.4980010986328 L 32.768001556396484 49.4980010986328 L 0 49.4980010986328 L -49.09282684326172 49.4980010986328 L -49.3881721496582 49.4980010986328 L -54.2269172668457 49.4980010986328 L -65.53600311279297 49.4980010986328 L -131.07200622558594 49.4980010986328 L -140.1649932861328 49.4980010986328 L -140.56100463867188 49.478000640869126 L -140.95199584960938 49.4199981689453 L -141.33599853515625 49.324001312255845 L -141.70899963378906 49.19100189208983 L -141.79112243652344 49.15200042724608 L -142.06700134277344 49.02099990844725 L -142.40699768066406 48.81800079345702 L -142.72500610351562 48.58200073242186 L -143.01800537109375 48.31600189208983 L -143.28399658203125 48.02299880981444 L -143.52000427246094 47.70399856567382 L -143.6247100830078 47.52999877929687 L -143.6940460205078 47.414775848388665 L -143.7239990234375 47.36500167846679 L -143.89300537109375 47.006999969482415 L -144.0260009765625 46.6339988708496 L -144.1219940185547 46.24999999999999 L -144.18099975585938 45.85800170898437 L -144.1999969482422 45.463001251220696 L -144.1999969482422 40.95999908447265 L -144.1999969482422 32.76800155639648 L -144.1999969482422 1.1102230246251565e-16 L -144.1999969482422 -32.76800155639648 L -144.1999969482422 -40.95999908447265 L -144.1999969482422 -42.25391006469726 L -144.1999969482422 -45.463001251220696 L -144.18099975585938 -45.85800170898437 L -144.1219940185547 -46.24999999999999 L -144.0260009765625 -46.6339988708496 L -143.89300537109375 -47.006999969482415 L -143.7239990234375 -47.36500167846679 L -143.52000427246094 -47.70399856567382 L -143.28399658203125 -48.02299880981444 L -143.01800537109375 -48.31600189208983 L -142.72500610351562 -48.58200073242186 L -142.40699768066406 -48.81800079345702 L -142.06700134277344 -49.02099990844725 L -141.79112243652344 -49.15200042724608 L -141.70899963378906 -49.19100189208983 L -141.33599853515625 -49.324001312255845 L -140.95199584960938 -49.4199981689453 L -140.56100463867188 -49.478000640869126 L -140.1649932861328 -49.4980010986328 L -131.07200622558594 -49.4980010986328 L -71.82971954345703 -49.4980010986328 L -71.48856353759766 -49.15667343139647 L -69.83616638183594 -47.48270034790038 L -69.83616638183594 -46.80395889282226 L -69.83699798583984 -43.50165939331054 L -71.48275756835938 -41.78702163696288 L -71.81983184814453 -41.4360008239746 L -109.1634521484375 -41.435169219970696 L -116.81616973876953 -41.43500137329101 L -131.07200622558594 -41.44999694824218 L -134.17088317871094 -41.45325851440429 L -137.7270050048828 -41.45700073242187 L -137.7270050048828 -40.95999908447265 L -137.7270050048828 -32.76800155639648 L -137.7270050048828 1.1102230246251565e-16 L -137.7270050048828 32.76800155639648 L -137.7270050048828 40.95999908447265 L -137.7270050048828 41.39199829101562 L -135.0896453857422 41.38916397094726 L -135.0843048095703 41.38915634155273 L -131.07200622558594 41.384841918945305 L -117.27507781982422 41.36999893188476 L -117.2750015258789 41.36999893188476 L -110.1709213256836 41.37663269042968 L -75.50216674804688 41.40900039672851 L -65.53600311279297 41.39456176757812 L -48.94694900512695 41.370525360107415 L -44.39826965332031 41.36393737792968 L -31.392946243286133 41.34509658813476 L -22.35401153564453 41.33200073242187 L -22.353830337524414 41.33200073242187 L -1.8881344215583318e-20 41.32880783081054 L 12.511611938476562 41.32701873779296 L 19.65583038330078 41.32600021362304 L 32.768001556396484 41.338027954101555 L 40.959999084472656 41.3455467224121 L 45.928810119628906 41.350105285644524 L 49.152000427246094 41.35306167602538 L 65.53600311279297 41.368091583251946 L 65.7909164428711 41.368328094482415 L 75.24517059326172 41.37699890136718 L 82.37339782714844 41.38142013549804 L 117.16082763671875 41.40299987792968 L 117.16336822509766 41.403003692626946 L 120.64127349853516 41.406570434570305 L 131.07200622558594 41.41727447509765 L 135.21951293945312 41.42153167724609 L 137.625 41.423999786376946 L 137.625 40.95999908447265 L 137.625 32.76800155639648 L 137.625 1.1102230246251565e-16 L 137.625 -32.76800155639648 L 137.625 -40.95999908447265 L 137.625 -41.41500091552734 L 131.07200622558594 -41.417217254638665 L 103.26249694824219 -41.42662048339843 L 96.22083282470703 -41.42900085449218 L 96.2205581665039 -41.42900085449218 L 65.53600311279297 -41.44583511352538 L 49.152000427246094 -41.45482635498046 L 47.44514465332031 -41.45576095581054 L 47.44408416748047 -41.455764770507805 L 47.44209289550781 -41.455764770507805 L 47.44170379638672 -41.455764770507805 L 47.43754577636719 -41.455764770507805 L 47.43663787841797 -41.45576858520507 L 47.435218811035156 -41.45576858520507 L 40.959999084472656 -41.45932006835937 L 32.768001556396484 -41.463813781738274 L 32.6920280456543 -41.463855743408196 L 19.673999786376953 -41.47066116333007 L 8.304102544487435e-11 -41.47253417968749 L -15.1698637008667 -41.473979949951165 L -22.310340881347656 -41.47499847412109 L -22.692800521850586 -41.4746971130371 L -32.768001556396484 -41.46669769287109 L -43.92015838623047 -41.45784378051757 L -43.92225646972656 -41.457839965820305 L -43.927860260009766 -41.45783615112304 L -48.44240951538086 -41.45425033569335 L -48.53249740600586 -41.45418167114257 L -53.797000885009766 -41.450000762939446 L -53.797000885009766 -41.450000762939446 L -55.57754135131836 -43.22000122070312 L -55.82400131225586 -43.46500015258788 L -55.82400131225586 -47.49446868896484 L -55.65346908569336 -47.66500091552734 L -55.48199462890625 -47.836475372314446 L -53.80303955078125 -49.4980010986328 L -48.56952667236328 -49.4980010986328 L -48.56827926635742 -49.4980010986328 L -32.768001556396484 -49.4980010986328 L 0 -49.4980010986328 L 32.768001556396484 -49.4980010986328 L 49.152000427246094 -49.4980010986328 L 52.61396408081055 -49.4980010986328 L 65.53600311279297 -49.4980010986328 L 131.07200622558594 -49.4980010986328 L 140.1649932861328 -49.4980010986328 L 140.56100463867188 -49.478000640869126 L 140.95199584960938 -49.4199981689453 L 141.33599853515625 -49.324001312255845 L 141.70899963378906 -49.19100189208983 M 45.328067779541016 -45.11596679687499 L 45.36268997192383 -45.05599975585937 L 45.501522064208984 -44.8155288696289 L 45.51521682739258 -44.791877746582024 L 45.54267883300781 -44.74444198608398 L 45.562984466552734 -44.709156036376946 L 45.627559661865234 -44.59695053100585 L 45.6439323425293 -44.568496704101555 L 45.7061767578125 -44.46060562133788 L 45.81074905395508 -44.27968215942382 L 45.87382125854492 -44.17012786865234 L 45.94384002685547 -44.04941177368163 L 45.94602584838867 -44.04563903808593 L 45.95964813232422 -44.0220603942871 L 46.07442855834961 -43.82336044311523 L 46.10316467285156 -43.77372741699218 L 46.16572189331055 -43.66567230224609 L 46.212890625 -43.58371353149413 L 46.220149993896484 -43.57109832763671 L 46.28274154663086 -43.46234130859374 L 46.38816833496094 -43.28018188476562 L 46.404762268066406 -43.25151062011718 L 46.42300033569336 -43.22000122070312 L 46.423744201660156 -43.22000122070312 L 48.98899841308594 -43.22000122070312 L 49.152000427246094 -43.5022964477539 L 50.27199935913086 -45.44200134277343 L 49.152000427246094 -47.382575988769524 L 48.98899841308594 -47.66500091552734 L 46.42503356933594 -47.66500091552734 L 46.42451858520508 -47.66500091552734 L 46.42300033569336 -47.66500091552734 L 46.28427505493164 -47.425796508789055 L 46.26946258544922 -47.40025329589843 L 46.16623306274414 -47.221511840820305 L 46.019981384277344 -46.96841812133788 L 46.00605392456055 -46.9443130493164 L 45.87326431274414 -46.71359252929687 L 45.7944221496582 -46.57665252685546 L 45.73051834106445 -46.46627044677734 L 45.65084457397461 -46.32850265502929 L 45.571998596191406 -46.19239425659179 L 45.49904251098633 -46.06603240966796 L 45.39944839477539 -45.8934097290039 L 45.3695068359375 -45.841445922851555 L 45.314796447753906 -45.746509552001946 L 45.27261734008789 -45.6735496520996 L 45.13939666748047 -45.44268798828124 L 45.138999938964844 -45.44200134277343 L 45.13916015625 -45.441726684570305 L 45.279258728027344 -45.200489044189446 L 45.328067779541016 -45.11596679687499 M 47.562782287597656 44.170032501220696 L 47.53880310058594 44.12836837768554 L 47.42344284057617 43.928352355957024 L 47.31803894042969 43.745769500732415 L 47.28555679321289 43.68964767456054 L 47.18015670776367 43.50622940063476 L 47.15770721435547 43.467117309570305 L 47.15461730957031 43.46179199218749 L 46.968482971191406 43.14095306396484 L 46.93600082397461 43.08499908447265 L 44.369998931884766 43.08499908447265 L 43.231929779052734 45.05599975585937 L 43.08700180053711 45.30699920654296 L 44.369998931884766 47.52999877929687 L 46.931148529052734 47.52999877929687 L 46.93562316894531 47.52999877929687 L 46.93600082397461 47.52999877929687 L 47.0235595703125 47.378730773925774 L 47.16754913330078 47.12997436523437 L 47.30366134643555 46.89344406127929 L 47.37503433227539 46.769783020019524 L 47.39917755126953 46.727851867675774 L 47.45387649536133 46.63284301757812 L 47.672245025634766 46.25478363037109 L 47.6777229309082 46.24535369873046 L 47.727962493896484 46.15890502929687 L 47.764366149902344 46.09626388549804 L 47.867279052734375 45.91783142089843 L 47.96272277832031 45.752674102783196 L 48.08306121826172 45.544361114501946 L 48.21955108642578 45.307781219482415 L 48.219970703125 45.307048797607415 L 48.220001220703125 45.30699920654296 L 48.10546875 45.109477996826165 L 48.07447814941406 45.05599975585937 L 48.07077407836914 45.04961395263671 L 47.986122131347656 44.90271377563476 L 47.87906265258789 44.717639923095696 L 47.83841323852539 44.6470603942871 L 47.75381088256836 44.49999237060546 L 47.749610900878906 44.49269485473632 L 47.733551025390625 44.46497726440429 L 47.717979431152344 44.43810272216796 L 47.623382568359375 44.274707794189446 L 47.57662582397461 44.1939468383789 L 47.562782287597656 44.170032501220696 M -46.68159103393555 -44.654373168945305 L -46.65081024169922 -44.7076072692871 L -46.255760192871094 -45.390640258789055 L -46.2262077331543 -45.441638946533196 L -46.22600173950195 -45.44200134277343 L -46.22602844238281 -45.44204711914062 L -46.32157897949219 -45.60747528076171 L -46.87680435180664 -46.56936645507812 L -46.905372619628906 -46.61885833740234 L -46.91175079345703 -46.62991333007812 L -46.92578125 -46.65423202514648 L -46.964046478271484 -46.720386505126946 L -47.474456787109375 -47.603435516357415 L -47.5099983215332 -47.66500091552734 L -47.510040283203125 -47.66500091552734 L -50.07600021362305 -47.66500091552734 L -51.35900115966797 -45.44200134277343 L -50.07600021362305 -43.22000122070312 L -47.511199951171875 -43.22000122070312 L -47.51105499267578 -43.22000122070312 L -47.5099983215332 -43.22000122070312 L -47.48384475708008 -43.26512145996093 L -47.45676803588867 -43.311836242675774 L -47.43465805053711 -43.35027313232421 L -47.40302658081055 -43.40503311157226 L -46.73244094848633 -44.566108703613274 L -46.70846176147461 -44.607776641845696 L -46.68159103393555 -44.654373168945305 M -137.420166015625 45.17672729492187 L -137.43939208984375 45.14339447021484 L -137.45860290527344 45.110061645507805 L -137.4741973876953 45.08306884765624 L -137.53521728515625 44.97736740112304 L -138.52340698242188 43.26595306396484 L -138.57205200195312 43.181770324707024 L -138.6280059814453 43.08499908447265 L -139.26400756835938 43.08499908447265 L -141.19400024414062 43.08499908447265 L -142.4770050048828 45.30699920654296 L -141.19400024414062 47.52999877929687 L -139.26400756835938 47.52999877929687 L -138.6280059814453 47.52999877929687 L -138.5380401611328 47.37438964843749 L -137.47323608398438 45.52944946289062 L -137.41761779785156 45.432849884033196 L -137.34500122070312 45.30699920654296 L -137.34507751464844 45.30685424804687 L -137.38070678710938 45.2450942993164 L -137.420166015625 45.17672729492187 M 142.38917541503906 44.95095825195312 L 142.3360595703125 44.85883712768554 L 142.25804138183594 44.72438812255859 L 142.20205688476562 44.62671279907226 L 142.18003845214844 44.58827972412109 L 142.12525939941406 44.493667602539055 L 142.0696563720703 44.39739608764648 L 141.85145568847656 44.01950454711913 L 141.76763916015625 43.87426376342773 L 141.60330200195312 43.58876800537109 L 141.44561767578125 43.31571960449218 L 141.34506225585938 43.14208602905273 L 141.31199645996094 43.08499908447265 L 141.31185913085938 43.08499908447265 L 141.30679321289062 43.08499908447265 L 139.26400756835938 43.08499908447265 L 138.7449951171875 43.08499908447265 L 137.625 45.02470397949218 L 137.46200561523438 45.30699920654296 L 137.625 45.589424133300774 L 138.7449951171875 47.52999877929687 L 139.26400756835938 47.52999877929687 L 141.31199645996094 47.52999877929687 L 142.5947265625 45.30746841430663 L 142.59500122070312 45.30699920654296 L 142.5070343017578 45.15429306030273 L 142.45016479492188 45.05599975585937 L 142.4489288330078 45.05387115478515 L 142.38917541503906 44.95095825195312 M -139.26400756835938 -47.66500091552734 L -141.07699584960938 -47.66500091552734 L -142.36000061035156 -45.44200134277343 L -141.07699584960938 -43.22000122070312 L -139.26400756835938 -43.22000122070312 L -138.50999450683594 -43.22000122070312 L -137.2270050048828 -45.44200134277343 L -138.50999450683594 -47.66500091552734 L -139.26400756835938 -47.66500091552734 M 141.31199645996094 -43.22000122070312 L 142.59500122070312 -45.44200134277343 L 141.31199645996094 -47.66500091552734 L 139.26400756835938 -47.66500091552734 L 138.7449951171875 -47.66500091552734 L 137.46200561523438 -45.44200134277343 L 138.7449951171875 -43.22000122070312 L 139.26400756835938 -43.22000122070312 L 141.31199645996094 -43.22000122070312 M -47.957000732421875 47.52999877929687 L -46.67399978637695 45.30699920654296 L -47.957000732421875 43.08499908447265 L -50.52399826049805 43.08499908447265 L -51.80699920654297 45.30699920654296 L -50.52399826049805 47.52999877929687 L -47.957000732421875 47.52999877929687 z" fill="none" stroke="rgb(255,0,0)" stroke-width="0.001mm" />
</svg>