<?xml version="1.0" standalone="no"?>
<!DOCTYPE svg PUBLIC "-//W3C//DTD SVG 1.1//EN"
  "http://www.w3.org/Graphics/SVG/1.1/DTD/svg11.dtd">
<svg width="271.760009765625mm" height="13.871999740600584mm" viewBox="-135.8800048828125 -6.935999870300292 271.760009765625 13.871999740600584" xmlns="http://www.w3.org/2000/svg" version="1.1">
	<title>svgOutput</title>
	<desc>made with tinkercad</desc>
<path d="M 134.87100219726562 -4.2979998588562 L 134.8800048828125 -4.119999885559081 L 134.8800048828125 1.1102230246251565e-16 L 134.8800048828125 4.119999885559081 L 134.87100219726562 4.2979998588562 L 134.84500122070312 4.4739999771118155 L 134.802001953125 4.646999835968017 L 134.74200439453125 4.815000057220458 L 134.66600036621094 4.975999832153319 L 134.57400512695312 5.129000186920165 L 134.46800231933594 5.271999835968017 L 134.34800720214844 5.403999805450439 L 134.21600341796875 5.522999763488769 L 134.072998046875 5.630000114440917 L 133.9199981689453 5.72100019454956 L 133.75900268554688 5.796999931335448 L 133.59100341796875 5.857999801635741 L 133.41799926757812 5.901000022888183 L 133.24099731445312 5.927000045776366 L 133.06300354003906 5.935999870300292 L 131.07200622558594 5.935999870300292 L 0 5.935999870300292 L -32.768001556396484 5.935999870300292 L -32.89589309692383 5.935999870300292 L -32.91817855834961 5.935999870300292 L -34.47390365600586 5.935999870300292 L -40.024471282958984 5.935999870300292 L -49.152000427246094 5.935999870300292 L -52.3380126953125 5.935999870300292 L -53.24800109863281 5.935999870300292 L -54.48950958251953 5.935999870300292 L -54.68119812011719 5.935999870300292 L -54.688175201416016 5.935999870300292 L -54.897369384765625 5.935999870300292 L -57.34400177001953 5.935999870300292 L -61.439998626708984 5.935999870300292 L -65.53600311279297 5.935999870300292 L -69.63200378417969 5.935999870300292 L -73.72799682617188 5.935999870300292 L -77.8239974975586 5.935999870300292 L -81.91999816894531 5.935999870300292 L -86.01599884033203 5.935999870300292 L -90.11199951171875 5.935999870300292 L -91.92401123046875 5.935999870300292 L -93.21231842041016 5.935999870300292 L -98.30400085449219 5.935999870300292 L -131.07200622558594 5.935999870300292 L -133.06300354003906 5.935999870300292 L -133.24099731445312 5.927000045776366 L -133.41799926757812 5.901000022888183 L -133.59100341796875 5.857999801635741 L -133.75900268554688 5.796999931335448 L -133.9199981689453 5.72100019454956 L -134.072998046875 5.630000114440917 L -134.21600341796875 5.522999763488769 L -134.34800720214844 5.403999805450439 L -134.46800231933594 5.271999835968017 L -134.57400512695312 5.129000186920165 L -134.66600036621094 4.975999832153319 L -134.74200439453125 4.815000057220458 L -134.802001953125 4.646999835968017 L -134.84500122070312 4.4739999771118155 L -134.87100219726562 4.2979998588562 L -134.8800048828125 4.119999885559081 L -134.8800048828125 1.1102230246251565e-16 L -134.8800048828125 -4.119999885559081 L -134.87100219726562 -4.2979998588562 L -134.84500122070312 -4.4739999771118155 L -134.802001953125 -4.646999835968017 L -134.74200439453125 -4.815000057220458 L -134.66600036621094 -4.975999832153319 L -134.57400512695312 -5.129000186920165 L -134.46800231933594 -5.271999835968017 L -134.34800720214844 -5.403999805450439 L -134.21600341796875 -5.522999763488769 L -134.072998046875 -5.630000114440917 L -133.9199981689453 -5.72100019454956 L -133.75900268554688 -5.796999931335448 L -133.59100341796875 -5.857999801635741 L -133.41799926757812 -5.901000022888183 L -133.24099731445312 -5.927000045776366 L -133.06300354003906 -5.935999870300292 L -131.07200622558594 -5.935999870300292 L -98.30400085449219 -5.935999870300292 L -94.84394073486328 -5.935999870300292 L -90.11199951171875 -5.935999870300292 L -86.01599884033203 -5.935999870300292 L -84.85723114013672 -5.935999870300292 L -84.66752624511719 -5.935999870300292 L -84.34441375732422 -5.935999870300292 L -84.32508087158203 -5.935999870300292 L -83.70488739013672 -5.935999870300292 L -83.66200256347656 -5.935999870300292 L -81.91999816894531 -5.935999870300292 L -81.16997528076172 -5.935999870300292 L -77.8239974975586 -5.935999870300292 L -74.46224212646484 -5.935999870300292 L -74.02379608154297 -5.935999870300292 L -73.72799682617188 -5.935999870300292 L -71.95003509521484 -5.935999870300292 L -69.63200378417969 -5.935999870300292 L -65.53600311279297 -5.935999870300292 L -61.439998626708984 -5.935999870300292 L -57.34400177001953 -5.935999870300292 L -53.12498474121094 -5.935999870300292 L -53.11857604980469 -5.935999870300292 L -52.834171295166016 -5.935999870300292 L -49.152000427246094 -5.935999870300292 L -44.427303314208984 -5.935999870300292 L -37.11299133300781 -5.935999870300292 L -33.00951385498047 -5.935999870300292 L -32.768001556396484 -5.935999870300292 L 0 -5.935999870300292 L 131.07200622558594 -5.935999870300292 L 133.06300354003906 -5.935999870300292 L 133.24099731445312 -5.927000045776366 L 133.41799926757812 -5.901000022888183 L 133.59100341796875 -5.857999801635741 L 133.75900268554688 -5.796999931335448 L 133.9199981689453 -5.72100019454956 L 134.072998046875 -5.630000114440917 L 134.21600341796875 -5.522999763488769 L 134.34800720214844 -5.403999805450439 L 134.46800231933594 -5.271999835968017 L 134.57400512695312 -5.129000186920165 L 134.66600036621094 -4.975999832153319 L 134.74200439453125 -4.815000057220458 L 134.802001953125 -4.646999835968017 L 134.84500122070312 -4.4739999771118155 L 134.87100219726562 -4.2979998588562 M -54.492000579833984 -0.6309999823570249 L -54.53095245361328 1.1102230246251565e-16 L -54.53200149536133 0.0170000009238721 L -54.54864501953125 0.647904098033905 L -54.55183410644531 0.774999976158142 L -54.535831451416016 2.099999904632568 L -54.065834045410156 2.650000095367431 L -53.72083282470703 2.6770000457763667 L -53.25639343261719 2.0053119659423824 L -53.24800109863281 1.9931508302688594 L -53.16299819946289 1.8700000047683711 L -53.176998138427734 1.8009999990463252 L -53.159000396728516 0.21500000357627874 L -53.147647857666016 1.1102230246251565e-16 L -53.11199951171875 -0.6750000119209287 L -53.11216735839844 -0.8091381788253781 L -53.11383056640625 -1.4748812913894649 L -53.11383056640625 -1.4750000238418575 L -53.26909637451172 -1.5846579074859615 L -54.03889465332031 -2.128925800323486 L -54.03900146484375 -2.1289999485015865 L -54.113948822021484 -2.039798021316528 L -54.48683166503906 -1.5970000028610225 L -54.49099349975586 -0.792971849441528 L -54.492000579833984 -0.6309999823570249 M -56.70732498168945 -1.0050255060195918 L -57.34400177001953 -1.128357052803039 L -57.52799987792969 -1.164000034332275 L -58.465999603271484 -0.9350000023841855 L -58.837562561035156 1.1102230246251565e-16 L -58.95399856567383 0.29300001263618475 L -58.259403228759766 0.47410815954208374 L -57.952999114990234 0.5540000200271606 L -57.777923583984375 0.4053320288658142 L -57.77399826049805 0.4020000100135803 L -57.69992446899414 0.3212642669677735 L -57.68483352661133 0.30500000715255743 L -57.65919494628906 0.30451285839080816 L -57.34400177001953 0.2985233664512635 L -57.263832092285156 0.29699999094009405 L -57.04983139038086 0.39399999380111694 L -56.81344985961914 0.7602239847183226 L -56.76599884033203 0.833999991416931 L -56.92399978637695 1.2619999647140503 L -57.34400177001953 1.359176516532898 L -57.433998107910156 1.3799999952316284 L -57.48832702636719 1.359376311302185 L -57.75883102416992 1.2569999694824219 L -57.75910568237305 1.2565805912017822 L -57.76939392089844 1.2407357692718506 L -57.82099914550781 1.159999966621399 L -58.1870002746582 0.9330000281333922 L -58.337371826171875 1.037053108215332 L -58.33829879760742 1.0376942157745361 L -58.339412689208984 1.0384660959243774 L -59.096832275390625 1.5620000362396236 L -59.09666061401367 1.5624562501907344 L -59.02617263793945 1.7483854293823238 L -58.912593841552734 2.04800009727478 L -58.89457702636719 2.0955216884613033 L -58.854000091552734 2.2030000686645503 L -58.49193572998047 2.500973224639892 L -58.419464111328125 2.560481786727905 L -58.41883087158203 2.5610001087188716 L -57.88447952270508 2.7499382495880123 L -57.777000427246094 2.788000106811523 L -57.34400177001953 2.7907061576843257 L -57.11113739013672 2.7921617031097408 L -56.97683334350586 2.792999982833862 L -56.02964401245117 2.332722902297973 L -55.85628128051758 2.248404741287231 L -55.84011459350586 2.240542888641357 L -55.8390007019043 2.2400000095367427 L -55.41035079956055 1.4184929132461548 L -55.32383346557617 1.253000020980835 L -55.33055877685547 1.1732960939407349 L -55.336910247802734 1.0980703830718994 L -55.4010009765625 0.3289999961853028 L -55.40195083618164 0.32759648561477667 L -55.44607925415039 0.2624583542346955 L -55.51686096191406 0.15797384083271035 L -55.6240348815918 1.1102230246251565e-16 L -55.716678619384766 -0.13655585050582872 L -56.092830657958984 -0.6909999847412107 L -56.54175567626953 -0.9729530215263363 L -56.541831970214844 -0.9729999899864193 L -56.70732498168945 -1.0050255060195918 M -61.928001403808594 -0.19099999964237196 L -61.61837387084961 -0.15188062191009508 L -61.55583190917969 -0.1439999938011168 L -61.439998626708984 -0.05984057486057269 L -61.35763931274414 1.1102230246251565e-16 L -61.12968063354492 0.16562575101852425 L -61.045249938964844 0.2270908504724503 L -61.04399871826172 0.22800000011920935 L -60.95827102661133 0.41693830490112305 L -60.940834045410156 0.45500001311302185 L -60.932830810546875 0.8899999856948851 L -61.032596588134766 0.8080080747604369 L -61.439998626708984 0.47262120246887207 L -61.527000427246094 0.4009999930858612 L -61.534828186035156 0.39524924755096436 L -62.07296371459961 1.1102230246251565e-16 L -62.106998443603516 -0.025000000372528912 L -61.9281005859375 -0.19090767204761488 L -61.928001403808594 -0.19099999964237196 M -65.12051391601562 -1.4080053567886348 L -65.18498229980469 -1.4716156721115108 L -65.53600311279297 -1.8179675340652461 L -65.68399810791016 -1.9639999866485591 L -66.19004821777344 -2.04800009727478 L -66.91899871826172 -2.168999910354614 L -67.19393920898438 -2.04800009727478 L -67.58399963378906 -1.8763349056243892 L -68.14600372314453 -1.6289999485015865 L -68.50399780273438 -1.2280000448226924 L -68.6760025024414 -0.7940000295639035 L -68.68505096435547 -0.7442011833190916 L -68.7308349609375 -0.4970000088214872 L -68.7301025390625 -0.4964534342288969 L -68.06436920166016 1.1102230246251565e-16 L -67.85383605957031 0.15700000524520882 L -67.61479949951172 1.1102230246251565e-16 L -67.58399963378906 -0.020227149128913765 L -67.51583099365234 -0.06499999761581408 L -67.41844940185547 -0.23146545886993392 L -67.40076446533203 -0.26195728778839095 L -67.39900207519531 -0.2649999856948851 L -67.33657836914062 -0.47141715884208657 L -67.323974609375 -0.5125375986099241 L -67.3238296508789 -0.5130000114440916 L -67.2291259765625 -0.5578848719596861 L -66.81278228759766 -0.7552072405815121 L -66.70999908447266 -0.8040000200271603 L -66.45108032226562 -0.7643329501152035 L -66.35099792480469 -0.749000012874603 L -66.04000091552734 -0.3770000040531156 L -65.84010314941406 -0.00704636378213752 L -65.83899688720703 -0.004999999888241179 L -65.83834075927734 1.1102230246251565e-16 L -65.75244140625 0.6492092609405518 L -65.73483276367188 0.7810000181198119 L -65.75210571289062 0.8712078928947448 L -65.83699798583984 1.319000005722046 L -65.8379135131836 1.3194326162338257 L -65.87388610839844 1.3364379405975342 L -66.05783081054688 1.4229999780654907 L -66.58882904052734 1.4859999418258667 L -66.6768569946289 1.459507703781128 L -67.1127700805664 1.3280705213546753 L -67.11299896240234 1.3279999494552612 L -67.1453628540039 1.2932918071746826 L -67.30683135986328 1.121000051498413 L -67.32083129882812 1.024999976158142 L -67.45530700683594 0.930432617664337 L -67.54388427734375 0.8680620193481444 L -67.58399963378906 0.8398164510726928 L -68.12200164794922 0.460999995470047 L -68.12242126464844 0.4612913131713867 L -68.20164489746094 0.5164996385574341 L -68.59783172607422 0.7919999957084655 L -68.59796142578125 0.7926710844039916 L -68.67950439453125 1.211333155632019 L -68.6798324584961 1.2130000591278076 L -68.52335357666016 1.7240489721298213 L -68.49234008789062 1.8258715867996211 L -68.49199676513672 1.8270000219345088 L -68.23513793945312 2.04800009727478 L -67.68714141845703 2.5194962024688716 L -67.5250015258789 2.6591677665710445 L -66.98481750488281 2.8023278713226314 L -66.8759994506836 2.8310000896453853 L -66.12483978271484 2.8300011157989498 L -66.1240005493164 2.8299999237060542 L -65.53600311279297 2.663333415985107 L -65.38988494873047 2.6219182014465328 L -65.24182891845703 2.5799999237060542 L -64.69335174560547 2.04800009727478 L -64.64282989501953 1.998999953269958 L -64.44806671142578 1.390568733215332 L -64.40899658203125 1.2680000066757202 L -64.42424011230469 1.1102230246251565e-16 L -64.42500305175781 -0.06300000101327884 L -64.52241516113281 -0.26974043250083907 L -65.00668334960938 -1.295690298080444 L -65.0068359375 -1.2960000038146968 L -65.12051391601562 -1.4080053567886348 M -61.79383087158203 1.7740000486373897 L -61.79564666748047 1.7805712223052974 L -61.7973518371582 1.7867431640624996 L -61.81399917602539 1.8500000238418575 L -61.814849853515625 1.8500639200210567 L -61.84518814086914 1.852347373962402 L -62.000831604003906 1.8639999628067012 L -62.06102752685547 1.8536043167114253 L -62.35900115966797 1.8020000457763667 L -62.391361236572266 1.7790288925170894 L -62.48512268066406 1.7128149271011348 L -62.552833557128906 1.664999961853027 L -62.55364990234375 1.6638296842575069 L -62.725833892822266 1.4170000553131104 L -62.781497955322266 1.3685425519943237 L -63.05699920654297 1.128000020980835 L -63.05873107910156 1.1272188425064087 L -63.11899948120117 1.100000023841858 L -63.189666748046875 1.2123563289642334 L -63.19093704223633 1.2143789529800415 L -63.36931228637695 1.4979867935180664 L -63.487998962402344 1.6866972446441646 L -63.696998596191406 2.0190000534057613 L -63.67652893066406 2.04800009727478 L -63.654075622558594 2.0798108577728267 L -63.64899826049805 2.086999893188476 L -63.510833740234375 2.322548627853393 L -63.48356246948242 2.3687653541564937 L -63.48283386230469 2.3699998855590816 L -63.406944274902344 2.4299108982086177 L -63.040035247802734 2.719577550888061 L -62.95100021362305 2.789999961853027 L -62.204402923583984 2.983932256698608 L -62.0538330078125 3.0230000019073477 L -61.439998626708984 2.9683437347412105 L -61.177833557128906 2.9449999332427974 L -60.41983413696289 2.523000001907348 L -59.98322677612305 2.04800009727478 L -59.93083190917969 1.9910000562667842 L -59.710296630859375 1.1989141702651978 L -59.691009521484375 1.1296391487121582 L -59.690834045410156 1.128999948501587 L -59.688819885253906 0.9936881065368651 L -59.678001403808594 0.3219999969005585 L -59.82078552246094 1.1102230246251565e-16 L -60.06255340576172 -0.545223534107208 L -60.066001892089844 -0.5529999732971189 L -61.11600112915039 -1.2960000038146968 L -61.439998626708984 -1.3099837303161617 L -62.34400177001953 -1.348999977111816 L -63.0880012512207 -0.8029999732971188 L -63.1076545715332 -0.7599622011184689 L -63.42499923706055 -0.06499999761581408 L -63.42268371582031 1.1102230246251565e-16 L -63.40999984741211 0.3560000061988831 L -63.18027877807617 0.6939249038696289 L -63.13465118408203 0.760800004005432 L -63.13383102416992 0.762000024318695 L -62.47795867919922 1.238091230392456 L -62.34600067138672 1.3339999914169312 L -61.82099914550781 1.7599999904632564 L -61.798526763916016 1.7716525793075557 L -61.79383087158203 1.7740000486373897 M -69.5050048828125 -0.5795479416847227 L -69.63200378417969 -0.857757210731506 L -69.64900207519531 -0.8949999809265133 L -69.94599914550781 -1.0880000591278072 L -69.98406219482422 -1.0948746204376216 L -70.17383575439453 -1.1289999485015865 L -70.23168182373047 -1.1127357482910152 L -70.51799774169922 -1.0319999456405635 L -70.57215881347656 -0.9531938433647152 L -70.84183502197266 -0.561999976634979 L -70.84181213378906 -0.5608199834823606 L -70.8316421508789 1.1102230246251565e-16 L -70.81603240966797 0.8612796664237975 L -70.81099700927734 1.1480000019073486 L -70.85900115966797 1.3890000581741333 L -70.90745544433594 1.4146538972854614 L -71.14883422851562 1.54200005531311 L -71.24373626708984 1.5513896942138667 L -71.71399688720703 1.598000049591064 L -71.71405792236328 1.597923636436462 L -71.7969970703125 1.49399995803833 L -71.89399719238281 1.2599999904632568 L -71.90180969238281 1.1102230246251565e-16 L -71.90399932861328 -0.35400000214576705 L -71.89318084716797 -0.5371119976043699 L -71.89083099365234 -0.5740000009536741 L -71.89553833007812 -0.6435664892196653 L -71.8956298828125 -0.6449010372161863 L -71.90483093261719 -0.7810000181198117 L -72.1538314819336 -1.195000052452087 L -72.20832824707031 -1.2191448211669917 L -72.47799682617188 -1.3389999866485591 L -72.47870635986328 -1.3389428853988643 L -72.822998046875 -1.310999989509582 L -73.18099975585938 -1.0069999694824214 L -73.28399658203125 -0.6200000047683714 L -73.28164672851562 -0.25520971417427046 L -73.28162384033203 -0.2527214288711546 L -73.27999114990234 1.1102230246251565e-16 L -73.2765121459961 0.5394319295883179 L -73.27483367919922 0.7730000019073485 L -73.29076385498047 0.9706861376762389 L -73.35370635986328 1.7601498365402217 L -73.3537368774414 1.7605222463607784 L -73.36900329589844 1.9520000219345088 L -73.37008666992188 1.9551542997360225 L -73.40206909179688 2.04800009727478 L -73.43099975585938 2.1319999694824214 L -73.40299987792969 2.4900000095367427 L -73.23070526123047 2.730542659759521 L -73.1964340209961 2.778158903121948 L -73.19583129882812 2.779000043869018 L -73.02853393554688 2.8763823509216304 L -72.99500274658203 2.895999908447265 L -72.64299774169922 2.9370000362396236 L -72.41382598876953 2.8557128906249996 L -72.40899658203125 2.854000091552734 L -72.36904907226562 2.83652114868164 L -72.36083221435547 2.832999944686889 L -72.35539245605469 2.834985256195068 L -72.0018310546875 2.963999986648559 L -71.47330474853516 2.9631676673889156 L -71.36699676513672 2.963000059127807 L -70.51200103759766 2.775000095367431 L -69.98924255371094 2.4647352695465083 L -69.98799896240234 2.463999986648559 L -69.75845336914062 2.04800009727478 L -69.63200378417969 1.8188352584838863 L -69.55352783203125 1.6766183376312251 L -69.46583557128906 1.5180000066757198 L -69.46388244628906 1.3960778713226318 L -69.46385192871094 1.3942091464996338 L -69.44683074951172 0.33199998736381536 L -69.45818328857422 1.1102230246251565e-16 L -69.46343231201172 -0.15333148837089525 L -69.47582244873047 -0.5156029462814329 L -69.475830078125 -0.5159999728202818 L -69.5050048828125 -0.5795479416847227 M -80.63700103759766 -0.159832328557968 L -80.32737731933594 -0.11988061666488634 L -80.26483154296875 -0.11200000345706926 L -80.1109848022461 1.1102230246251565e-16 L -79.87200164794922 0.17397578060626992 L -79.75382995605469 0.2599999904632569 L -79.64983367919922 0.4869999885559082 L -79.64317321777344 0.8490623831748961 L -79.64199829101562 0.9219999909400939 L -79.87200164794922 0.7326565384864807 L -80.23600006103516 0.43299999833106995 L -80.333251953125 0.36140376329422 L -80.81683349609375 0.0060000000521541735 L -80.81645965576172 0.005659252405166736 L -80.8103256225586 1.1102230246251565e-16 L -80.6670150756836 -0.13216632604598985 L -80.63789367675781 -0.15900783240795122 L -80.63700103759766 -0.159832328557968 M -75.63999938964844 1.3350000381469727 L -75.7760009765625 1.3526952266693115 L -75.90899658203125 1.3700000047683716 L -75.92509460449219 1.377042293548584 L -76.00582885742188 1.4119999408721924 L -76.0475845336914 1.4004305601119995 L -76.07794952392578 1.391982078552246 L -76.25399780273438 1.343000054359436 L -76.40581512451172 1.1642159223556519 L -76.40599822998047 1.1640000343322754 L -76.41069793701172 1.0969308614730835 L -76.43473052978516 0.7653604149818419 L -76.43482971191406 0.7639999985694884 L -76.39405059814453 0.6899228692054749 L -76.38600158691406 0.675000011920929 L -76.22100067138672 0.48100000619888306 L -75.83499908447266 0.3630000054836274 L -75.7760009765625 0.38009345531463623 L -75.62100219726562 0.42500001192092896 L -75.63999938964844 1.3350000381469727 M -74.24800109863281 0.5609999895095825 L -74.24129486083984 0.371362179517746 L -74.22848510742188 1.1102230246251565e-16 L -74.20883178710938 -0.5699999928474424 L -74.26583099365234 -1.776999950408935 L -75.39783477783203 -2.02999997138977 L -75.56896209716797 -1.7484322786331172 L -75.56983184814453 -1.7469999790191646 L -75.58564758300781 -1.1219222545623775 L -75.58899688720703 -0.995999991893768 L -75.6629409790039 -0.998179733753204 L -76.01858520507812 -1.0086399316787715 L -76.03083038330078 -1.0089999437332149 L -76.1361312866211 -0.9798249602317807 L -76.65799713134766 -0.8349999785423275 L -77.44300079345703 -0.21299999952316268 L -77.56759643554688 1.1102230246251565e-16 L -77.74600219726562 0.30500000715255743 L -77.81400299072266 0.9250000119209288 L -77.52899932861328 1.9589999914169307 L -77.45467376708984 2.04800009727478 L -77.14900207519531 2.414000034332275 L -76.51399993896484 2.7090001106262203 L -75.94551849365234 2.771424531936645 L -75.8308334350586 2.783999919891357 L -75.36883544921875 2.665999889373779 L -74.33483123779297 2.3259999752044673 L -74.29448699951172 2.04800009727478 L -74.28905487060547 2.010547876358032 L -74.27999877929688 1.9470000267028804 L -74.2540054321289 0.8210455775260924 L -74.24833679199219 0.5757149457931519 L -74.24800109863281 0.5609999895095825 M -78.45288848876953 0.20728638768196112 L -78.54457092285156 1.1102230246251565e-16 L -78.7750015258789 -0.521000027656555 L -79.6067123413086 -1.1095368862152095 L -79.82499694824219 -1.2640000581741329 L -81.0530014038086 -1.317000031471252 L -81.7969970703125 -0.7710000276565548 L -81.91999816894531 -0.5016409754753111 L -82.13400268554688 -0.03299999982118595 L -82.13290405273438 1.1102230246251565e-16 L -82.12234497070312 0.3174097836017609 L -82.11988067626953 0.3867079019546509 L -82.11983489990234 0.3880000114440918 L -81.91999816894531 0.6808950304985046 L -81.88927459716797 0.7259249091148376 L -81.84300231933594 0.7940000295639037 L -81.18795776367188 1.2692588567733765 L -81.05583190917969 1.3650000095367432 L -80.53229522705078 1.7908093929290767 L -80.53083038330078 1.79200005531311 L -80.50753021240234 1.8036525249481197 L -80.50299835205078 1.8059999942779537 L -80.50487518310547 1.8131142854690547 L -80.50635528564453 1.8187431097030635 L -80.52383422851562 1.8819999694824214 L -80.70983123779297 1.8960000276565547 L -81.06883239746094 1.8339999914169307 L -81.10136413574219 1.8110288381576534 L -81.19849395751953 1.7420810461044307 L -81.26166534423828 1.6972358226776119 L -81.26200103759766 1.6970000267028804 L -81.29084014892578 1.6554172039031978 L -81.43482971191406 1.4490000009536743 L -81.76683044433594 1.159999966621399 L -81.8288345336914 1.1319999694824219 L -81.89960479736328 1.2444008588790894 L -81.90087890625 1.2464226484298706 L -81.91999816894531 1.276795744895935 L -82.07915496826172 1.529577016830444 L -82.40557098388672 2.04800009727478 L -82.40643310546875 2.04937195777893 L -82.40682983398438 2.0499999523162837 L -82.36605072021484 2.1074306964874263 L -82.35800170898438 2.1189999580383296 L -82.19200134277344 2.401999950408935 L -82.12371826171875 2.455776214599609 L -81.91999816894531 2.6162254810333248 L -81.66000366210938 2.8210000991821285 L -80.76300048828125 3.05399990081787 L -79.88798522949219 2.977086782455444 L -79.88700103759766 2.976999998092651 L -79.25609588623047 2.6257579326629634 L -79.12882995605469 2.5550000667572017 L -78.7218246459961 2.112201929092407 L -78.66293334960938 2.04800009727478 L -78.63999938964844 2.023000001907348 L -78.4195785522461 1.2313164472579956 L -78.4000015258789 1.1610000133514404 L -78.39781951904297 1.0256881713867188 L -78.3878402709961 0.35436677932739263 L -78.38783264160156 0.35400000214576727 L -78.45288848876953 0.20728638768196112 M -84.4798355102539 -0.07699999958276736 L -84.92642974853516 1.1102230246251565e-16 L -85.47075653076172 0.09384934604167947 L -85.61083221435547 0.11800000071525582 L -85.6318359375 0.09700000286102303 L -85.63238525390625 1.1102230246251565e-16 L -85.64183044433594 -1.654000043869018 L -85.63483428955078 -1.689000010490417 L -85.6420669555664 -1.6951169967651363 L -86.01599884033203 -2.0112767219543453 L -86.45683288574219 -2.3840000629425044 L -86.86898040771484 -1.8461142778396602 L -86.86983489990234 -1.845000028610229 L -86.89064025878906 -0.720525801181793 L -86.8949966430664 -0.49399998784065224 L -86.88209533691406 1.1102230246251565e-16 L -86.87300109863281 0.34799998998641973 L -86.90699768066406 0.45100000500679016 L -86.91152954101562 0.503146231174469 L -86.93399810791016 0.7611676454544066 L -86.93394470214844 0.7613303065299987 L -86.87657165527344 0.9218068122863768 L -86.86499786376953 0.9539999961853026 L -86.8567886352539 0.9685503244400023 L -86.83000183105469 1.0160000324249268 L -86.8373794555664 1.7112991809844966 L -86.83749389648438 1.721813559532165 L -86.84168243408203 1.9635975360870357 L -86.84410095214844 2.04800009727478 L -86.8558349609375 2.457999944686889 L -86.85027313232422 2.4591908454895015 L -86.01599884033203 2.637964010238647 L -86.00519561767578 2.6402797698974605 L -85.83399963378906 2.6770000457763667 L -85.66200256347656 2.3250000476837154 L -85.63825988769531 2.04800009727478 L -85.58100128173828 1.3799999952316284 L -85.5643539428711 1.3566948175430298 L -85.56092071533203 1.3521219491958618 L -85.56082916259766 1.3519999980926514 L -84.72767639160156 1.2421327829360962 L -84.56270599365234 1.2203571796417236 L -84.55999755859375 1.2200000286102295 L -83.83171081542969 1.0810014009475708 L -83.68482971191406 1.0529999732971191 L -83.22538757324219 0.695931613445282 L -83.13389587402344 0.6246996521949768 L -83.13300323486328 0.6240000128746033 L -83.10552978515625 0.3251945078372956 L -83.0998764038086 0.2654434740543366 L -83.0998306274414 0.2649999856948853 L -83.16975402832031 0.018856471404433358 L -83.17509460449219 1.1102230246251565e-16 L -83.51481628417969 -1.1988129615783687 L -83.51599884033203 -1.2029999494552608 L -83.54031372070312 -1.3036036491394039 L -83.66183471679688 -1.8029999732971187 L -83.66200256347656 -1.8190965652465816 L -83.66200256347656 -1.8990000486373897 L -83.66288757324219 -1.9044104814529415 L -83.6677017211914 -1.9337081909179683 L -83.69683074951172 -2.105999946594238 L -83.73637390136719 -2.1093392372131343 L -83.77372741699219 -2.112493753433227 L -84.82183074951172 -2.2009999752044673 L -84.89683532714844 -1.6629999876022334 L -84.4798355102539 -0.07699999958276736 M -88.02930450439453 -0.6463044881820676 L -88.04843139648438 -0.7335247993469236 L -88.1449966430664 -1.1740000247955318 L -88.26421356201172 -1.3138390779495235 L -88.8568344116211 -2.0079998970031734 L -90.11199951171875 -2.434815406799316 L -90.14783477783203 -2.4470000267028804 L -90.25430297851562 -2.4364366531372066 L -90.78199768066406 -2.3840000629425044 L -90.9112777709961 -2.2797076702117915 L -91.41387939453125 -1.8747614622116084 L -91.5538330078125 -1.7619999647140498 L -91.55400848388672 -1.7611873149871822 L -91.77983093261719 -0.7129999995231626 L -91.5654067993164 -0.1285564452409743 L -91.56483459472656 -0.1270000040531157 L -90.74748992919922 0.7785720825195311 L -90.58300018310547 0.9610000252723693 L -90.11199951171875 1.2924444675445557 L -89.81892395019531 1.4986834526062012 L -89.66483306884766 1.6069999933242793 L -90.11199951171875 1.6043649911880489 L -90.9313735961914 1.599536538124084 L -91.36183166503906 1.5970000028610225 L -91.76183319091797 1.6870000362396236 L -91.80183410644531 2.7349998950958248 L -91.4498291015625 2.845000028610229 L -90.47180938720703 2.852129697799682 L -90.11199951171875 2.8547525405883785 L -89.11783599853516 2.8619999885559078 L -88.55883026123047 2.9500000476837154 L -88.3401107788086 2.867669582366943 L -88.11783599853516 2.783999919891357 L -87.87699127197266 2.356277465820312 L -87.8768310546875 2.355999946594238 L -87.87934875488281 2.299326658248901 L -87.88975524902344 2.04800009727478 L -87.89099884033203 2.01799988746643 L -88.30599975585938 1.2259999513626099 L -88.4426498413086 1.099071741104126 L -89.12183380126953 0.4690000116825104 L -89.79435729980469 1.1102230246251565e-16 L -89.8818359375 -0.06100000068545329 L -89.9931640625 -0.19262307882308943 L -90.11199951171875 -0.333322763442993 L -90.54499816894531 -0.8460000157356259 L -90.43499755859375 -1.1699999570846553 L -90.37257385253906 -1.2049577236175533 L -90.35983276367188 -1.2120000123977657 L -90.11199951171875 -1.1606971025466915 L -89.7318344116211 -1.0820000171661373 L -89.4278335571289 -0.8759999871253964 L -89.32379150390625 -0.7553125619888302 L -89.30410766601562 -0.7322958111762998 L -89.3030014038086 -0.7310000061988828 L -89.25139617919922 -0.48463112115859963 L -89.2408676147461 -0.435153931379318 L -89.24082946777344 -0.43500000238418557 L -89.015625 -0.3949591815471647 L -88.612060546875 -0.32320585846900923 L -88.28115844726562 -0.2643729150295256 L -88.10498046875 -0.23302233219146712 L -88.08879089355469 -0.230141371488571 L -88.08799743652344 -0.23000000417232497 L -88.07782745361328 -0.2684675753116606 L -88.0197525024414 -0.48802146315574624 L -88.00592803955078 -0.5396556854248045 L -88.00582885742188 -0.5400000214576719 L -88.02930450439453 -0.6463044881820676 M -37.44499969482422 -0.2049999982118605 L -38.15700149536133 -0.9369999766349789 L -38.8849983215332 -0.23000000417232497 L -38.17399978637695 0.5019999742507935 L -37.44499969482422 -0.2049999982118605 M -37.944000244140625 -2.221999883651733 L -39.39799880981445 -3.7200000286102286 L -40.879417419433594 -2.283323764801025 L -40.88800048828125 -2.275000095367431 L -39.433998107910156 -0.77700001001358 L -39.424888610839844 -0.7858354449272152 L -37.944000244140625 -2.221999883651733 M -38.974998474121094 1.3009999990463257 L -41.76499938964844 -1.5720000267028804 L -44.62200164794922 1.2000000476837158 L -41.83300018310547 4.072999954223632 L -38.974998474121094 1.3009999990463257 z" fill="none" stroke="rgb(255,0,0)" stroke-width="0.001mm" />
</svg>