<?xml version="1.0" standalone="no"?>
<!DOCTYPE svg PUBLIC "-//W3C//DTD SVG 1.1//EN"
  "http://www.w3.org/Graphics/SVG/1.1/DTD/svg11.dtd">
<svg width="290.3999938964844mm" height="100.9960021972656mm" viewBox="-145.1999969482422 -50.4980010986328 290.3999938964844 100.9960021972656" xmlns="http://www.w3.org/2000/svg" version="1.1">
	<title>svgOutput</title>
	<desc>made with tinkercad</desc>
<path d="M 141.70899963378906 -49.19100189208983 L 141.79112243652344 -49.15200042724608 L 142.06700134277344 -49.02099990844725 L 142.40699768066406 -48.81800079345702 L 142.72500610351562 -48.58200073242186 L 143.01800537109375 -48.31600189208983 L 143.28399658203125 -48.02299880981444 L 143.52000427246094 -47.70399856567382 L 143.54347229003906 -47.66500091552734 L 143.7239990234375 -47.36500167846679 L 143.89300537109375 -47.006999969482415 L 144.0260009765625 -46.6339988708496 L 144.1219940185547 -46.24999999999999 L 144.18099975585938 -45.85800170898437 L 144.1999969482422 -45.463001251220696 L 144.1999969482422 -45.05599975585937 L 144.1999969482422 -40.95999908447265 L 144.1999969482422 -32.76800155639648 L 144.1999969482422 1.1102230246251565e-16 L 144.1999969482422 32.76800155639648 L 144.1999969482422 40.95999908447265 L 144.1999969482422 43.08499908447265 L 144.1999969482422 45.05599975585937 L 144.1999969482422 45.463001251220696 L 144.18099975585938 45.85800170898437 L 144.1219940185547 46.24999999999999 L 144.0260009765625 46.6339988708496 L 143.89300537109375 47.006999969482415 L 143.75067138671875 47.30849075317382 L 143.7239990234375 47.36500167846679 L 143.52000427246094 47.70399856567382 L 143.28399658203125 48.02299880981444 L 143.01800537109375 48.31600189208983 L 142.72500610351562 48.58200073242186 L 142.40699768066406 48.81800079345702 L 142.06700134277344 49.02099990844725 L 141.79112243652344 49.15200042724608 L 141.70899963378906 49.19100189208983 L 141.33599853515625 49.324001312255845 L 140.95199584960938 49.4199981689453 L 140.56100463867188 49.478000640869126 L 140.1649932861328 49.4980010986328 L 131.07200622558594 49.4980010986328 L 117.14878845214844 49.4980010986328 L 75.23400115966797 49.4980010986328 L 65.53600311279297 49.4980010986328 L 49.152000427246094 49.4980010986328 L 32.768001556396484 49.4980010986328 L 19.677888870239258 49.4980010986328 L 19.67658805847168 49.4980010986328 L 0 49.4980010986328 L -22.35099983215332 49.4980010986328 L -32.768001556396484 49.4980010986328 L -44.254085540771484 49.4980010986328 L -49.09282684326172 49.4980010986328 L -49.152000427246094 49.4980010986328 L -65.53600311279297 49.4980010986328 L -75.4808349609375 49.4980010986328 L -75.48148345947266 49.4980010986328 L -117.28199768066406 49.4980010986328 L -131.07200622558594 49.4980010986328 L -140.1649932861328 49.4980010986328 L -140.56100463867188 49.478000640869126 L -140.95199584960938 49.4199981689453 L -141.33599853515625 49.324001312255845 L -141.70899963378906 49.19100189208983 L -141.79112243652344 49.15200042724608 L -142.06700134277344 49.02099990844725 L -142.40699768066406 48.81800079345702 L -142.72500610351562 48.58200073242186 L -143.01800537109375 48.31600189208983 L -143.28399658203125 48.02299880981444 L -143.36000061035156 47.92027282714843 L -143.52000427246094 47.70399856567382 L -143.7239990234375 47.36500167846679 L -143.89300537109375 47.006999969482415 L -144.0260009765625 46.6339988708496 L -144.1219940185547 46.24999999999999 L -144.18099975585938 45.85800170898437 L -144.1999969482422 45.463001251220696 L -144.1999969482422 45.05599975585937 L -144.1999969482422 43.08499908447265 L -144.1999969482422 40.95999908447265 L -144.1999969482422 32.76800155639648 L -144.1999969482422 1.1102230246251565e-16 L -144.1999969482422 -32.76800155639648 L -144.1999969482422 -40.95999908447265 L -144.1999969482422 -45.05599975585937 L -144.1999969482422 -45.463001251220696 L -144.18099975585938 -45.85800170898437 L -144.1219940185547 -46.24999999999999 L -144.0260009765625 -46.6339988708496 L -143.89300537109375 -47.006999969482415 L -143.7239990234375 -47.36500167846679 L -143.5945587158203 -47.58010482788085 L -143.54347229003906 -47.66500091552734 L -143.52000427246094 -47.70399856567382 L -143.28399658203125 -48.02299880981444 L -143.01800537109375 -48.31600189208983 L -142.72500610351562 -48.58200073242186 L -142.40699768066406 -48.81800079345702 L -142.06700134277344 -49.02099990844725 L -141.79112243652344 -49.15200042724608 L -141.70899963378906 -49.19100189208983 L -141.33599853515625 -49.324001312255845 L -140.95199584960938 -49.4199981689453 L -140.56100463867188 -49.478000640869126 L -140.1649932861328 -49.4980010986328 L -131.07200622558594 -49.4980010986328 L -116.83715057373047 -49.4980010986328 L -116.83583068847656 -49.4980010986328 L -75.25151062011719 -49.4980010986328 L -75.24486541748047 -49.4980010986328 L -65.53600311279297 -49.4980010986328 L -49.152000427246094 -49.4980010986328 L -32.768001556396484 -49.4980010986328 L 0 -49.4980010986328 L 19.68408203125 -49.4980010986328 L 32.768001556396484 -49.4980010986328 L 49.152000427246094 -49.4980010986328 L 65.53600311279297 -49.4980010986328 L 75.23400115966797 -49.4980010986328 L 75.29161834716797 -49.4980010986328 L 75.29767608642578 -49.4980010986328 L 117.15580749511719 -49.4980010986328 L 117.15666198730469 -49.4980010986328 L 117.27045440673828 -49.4980010986328 L 131.07200622558594 -49.4980010986328 L 140.1649932861328 -49.4980010986328 L 140.56100463867188 -49.478000640869126 L 140.95199584960938 -49.4199981689453 L 141.33599853515625 -49.324001312255845 L 141.70899963378906 -49.19100189208983 M 138.72747802734375 -43.250442504882805 L 138.7449951171875 -43.22000122070312 L 138.7451171875 -43.22000122070312 L 139.26400756835938 -43.22000122070312 L 141.31199645996094 -43.22000122070312 L 142.3721160888672 -45.05599975585937 L 142.59500122070312 -45.44200134277343 L 141.31199645996094 -47.66500091552734 L 139.26400756835938 -47.66500091552734 L 138.7449951171875 -47.66500091552734 L 137.46563720703125 -45.44831466674804 L 137.46200561523438 -45.44200134277343 L 137.64158630371094 -45.13111495971679 L 138.70639038085938 -43.28700637817382 L 138.71693420410156 -43.26863861083984 L 138.72747802734375 -43.250442504882805 M 75.24517059326172 41.37699890136718 L 75.24312591552734 41.47682952880859 L 75.23400115966797 41.96400070190429 L 75.23400115966797 46.90200042724609 L 75.63597106933594 46.90181732177734 L 116.96403503417969 46.88308334350585 L 117.02529907226562 46.88305664062499 L 117.1520004272461 46.88299942016601 L 117.15799713134766 42.00099945068359 L 117.15834045410156 41.899299621582024 L 117.16082763671875 41.40299987792968 L 120.64127349853516 41.406570434570305 L 131.07200622558594 41.41727447509765 L 135.21951293945312 41.42153167724609 L 137.625 41.423999786376946 L 137.625 40.95999908447265 L 137.625 32.76800155639648 L 137.625 1.1102230246251565e-16 L 137.625 -32.76800155639648 L 137.625 -40.95999908447265 L 137.625 -41.41500091552734 L 131.07200622558594 -41.41724014282226 L 120.62384033203125 -41.42081069946288 L 117.26052856445312 -41.421794891357415 L 117.13983154296875 -41.421829223632805 L 117.13999938964844 -41.55295181274413 L 117.14995574951172 -46.55827331542968 L 117.1520004272461 -47.45299911499023 L 117.15174102783203 -47.45299911499023 L 75.3030014038086 -47.47399902343749 L 75.31462097167969 -43.05959320068359 L 75.31766510009766 -42.2063980102539 L 75.3178482055664 -42.15499877929687 L 75.31578826904297 -42.11035537719726 L 75.31462097167969 -42.08493041992187 L 75.31427764892578 -42.03289031982421 L 75.30267333984375 -41.43865966796874 L 75.30265808105469 -41.43782806396484 L 75.23400115966797 -41.43787002563476 L 65.53600311279297 -41.44379806518554 L 49.152000427246094 -41.453811645507805 L 45.055999755859375 -41.45631790161132 L 40.959999084472656 -41.45882034301757 L 32.768001556396484 -41.46382522583007 L 29.134374618530273 -41.46604919433593 L 19.673999786376953 -41.471660614013665 L 19.67331886291504 -41.653633117675774 L 19.670000076293945 -42.54000091552734 L 19.670001983642578 -42.54107666015624 L 19.68000030517578 -47.480998992919915 L 0 -47.48990249633788 L -22.32200050354004 -47.49999999999999 L -22.32029914855957 -46.47534179687499 L -22.30950927734375 -41.47500228881835 L -22.30950927734375 -41.47499847412109 L -32.768001556396484 -41.46670532226562 L -49.152000427246094 -41.4537124633789 L -65.53600311279297 -41.44071960449218 L -66.26187896728516 -41.44014358520507 L -75.26782989501953 -41.432998657226555 L -75.26820373535156 -41.45422363281249 L -75.27198028564453 -41.667041778564446 L -75.27249145507812 -41.80870819091796 L -75.26585388183594 -42.265998840332024 L -75.26346588134766 -43.086406707763665 L -75.25599670410156 -47.09000015258788 L -116.8280029296875 -47.10900115966796 L -116.8147201538086 -43.05893325805663 L -116.81207275390625 -42.29925537109374 L -116.81182861328125 -42.22900009155273 L -116.81285095214844 -42.09396743774413 L -116.81533813476562 -41.43500137329101 L -131.07200622558594 -41.44999694824218 L -134.17088317871094 -41.45325851440429 L -134.9253692626953 -41.45405197143554 L -137.7270050048828 -41.45700073242187 L -137.7270050048828 -40.95999908447265 L -137.7270050048828 -32.76800155639648 L -137.7270050048828 1.1102230246251565e-16 L -137.7270050048828 32.76800155639648 L -137.7270050048828 40.95999908447265 L -137.7270050048828 41.39199829101562 L -131.07200622558594 41.384841918945305 L -117.2750015258789 41.36999893188476 L -117.27605438232422 41.46952056884765 L -117.28199768066406 42.03099822998046 L -117.28199768066406 46.90200042724609 L -75.48816680908203 46.88299942016601 L -75.48799896240234 46.88299942016601 L -75.49055480957031 45.95204925537109 L -75.50216674804688 41.40900039672851 L -65.53600311279297 41.39456176757812 L -57.34400177001953 41.38269424438476 L -49.152000427246094 41.37082290649413 L -32.768001556396484 41.347087860107415 L -31.392946243286133 41.34509658813476 L -22.353830337524414 41.33200073242187 L -22.35133934020996 41.79593276977538 L -22.35099983215332 41.890998840332024 L -22.35099983215332 46.90200042724609 L 1.2548346042806635e-11 46.891895294189446 L 19.670000076293945 46.88299942016601 L 19.65838050842285 42.27106857299804 L 19.65583038330078 41.32600021362304 L 32.768001556396484 41.338027954101555 L 40.959999084472656 41.3455467224121 L 49.152000427246094 41.35306167602538 L 65.53600311279297 41.368091583251946 L 65.7909164428711 41.368328094482415 L 75.23400115966797 41.37699127197265 L 75.24500274658203 41.37699890136718 L 75.24517059326172 41.37699890136718 M 138.7449951171875 43.08499908447265 L 137.625 45.02470397949218 L 137.46200561523438 45.30699920654296 L 137.625 45.589424133300774 L 138.7449951171875 47.52999877929687 L 139.26400756835938 47.52999877929687 L 141.31199645996094 47.52999877929687 L 142.59500122070312 45.30699920654296 L 142.4500732421875 45.05599975585937 L 141.31199645996094 43.08499908447265 L 139.26400756835938 43.08499908447265 L 138.7449951171875 43.08499908447265 M 45.138999938964844 -45.44200134277343 L 45.36205291748047 -45.05599975585937 L 45.95378112792969 -44.03200149536132 L 46.08000183105469 -43.81357192993163 L 46.24964141845703 -43.520000457763665 L 46.42300033569336 -43.22000122070312 L 46.59199905395508 -43.22000122070312 L 47.104000091552734 -43.22000122070312 L 48.98899841308594 -43.22000122070312 L 49.152000427246094 -43.5022964477539 L 50.27199935913086 -45.44200134277343 L 49.152000427246094 -47.382575988769524 L 48.98899841308594 -47.66500091552734 L 46.42300033569336 -47.66500091552734 L 45.138999938964844 -45.44200134277343 M 44.79999923706055 47.52999877929687 L 45.055999755859375 47.52999877929687 L 46.93600082397461 47.52999877929687 L 48.220001220703125 45.30699920654296 L 48.07495880126953 45.05599975585937 L 46.93600082397461 43.08499908447265 L 44.369998931884766 43.08499908447265 L 43.231929779052734 45.05599975585937 L 43.08700180053711 45.30699920654296 L 44.1241340637207 47.10400009155273 L 44.369998931884766 47.52999877929687 L 44.54399871826172 47.52999877929687 L 44.79999923706055 47.52999877929687 M -51.80699920654297 45.30699920654296 L -50.769866943359375 47.10400009155273 L -50.52399826049805 47.52999877929687 L -50.17599868774414 47.52999877929687 L -49.152000427246094 47.52999877929687 L -47.957000732421875 47.52999877929687 L -46.67399978637695 45.30699920654296 L -47.957000732421875 43.08499908447265 L -49.152000427246094 43.08499908447265 L -50.52399826049805 43.08499908447265 L -51.662071228027344 45.05599975585937 L -51.80699920654297 45.30699920654296 M -140.28799438476562 -43.22000122070312 L -139.26400756835938 -43.22000122070312 L -138.50999450683594 -43.22000122070312 L -137.2270050048828 -45.44200134277343 L -138.50999450683594 -47.66500091552734 L -139.26400756835938 -47.66500091552734 L -141.07699584960938 -47.66500091552734 L -142.36000061035156 -45.44200134277343 L -142.13711547851562 -45.05599975585937 L -141.31199645996094 -43.62699127197265 L -141.25022888183594 -43.520000457763665 L -141.07699584960938 -43.22000122070312 L -140.8000030517578 -43.22000122070312 L -140.28799438476562 -43.22000122070312 M -141.19400024414062 47.52999877929687 L -139.26400756835938 47.52999877929687 L -138.6280059814453 47.52999877929687 L -137.34500122070312 45.30699920654296 L -138.6280059814453 43.08499908447265 L -139.26400756835938 43.08499908447265 L -141.19400024414062 43.08499908447265 L -142.3320770263672 45.05599975585937 L -142.4770050048828 45.30699920654296 L -141.4398651123047 47.10400009155273 L -141.31199645996094 47.32554626464843 L -141.19400024414062 47.52999877929687 M -47.5099983215332 -43.22000122070312 L -46.22600173950195 -45.44200134277343 L -47.5099983215332 -47.66500091552734 L -49.152000427246094 -47.66500091552734 L -50.07600021362305 -47.66500091552734 L -51.35900115966797 -45.44200134277343 L -50.07600021362305 -43.22000122070312 L -49.152000427246094 -43.22000122070312 L -47.5099983215332 -43.22000122070312 M 137.625 41.423999786376946 L 137.625 41.423999786376946 z" fill="none" stroke="rgb(255,0,0)" stroke-width="0.001mm" />
</svg>