<?xml version="1.0" standalone="no"?>
<!DOCTYPE svg PUBLIC "-//W3C//DTD SVG 1.1//EN"
  "http://www.w3.org/Graphics/SVG/1.1/DTD/svg11.dtd">
<svg width="290.3999938964844mm" height="100.9960021972656mm" viewBox="-145.1999969482422 -50.4980010986328 290.3999938964844 100.9960021972656" xmlns="http://www.w3.org/2000/svg" version="1.1">
	<title>svgOutput</title>
	<desc>made with tinkercad</desc>
<path d="M 141.70899963378906 -49.19100189208983 L 141.79112243652344 -49.15200042724608 L 142.06700134277344 -49.02099990844725 L 142.40699768066406 -48.81800079345702 L 142.72500610351562 -48.58200073242186 L 143.01800537109375 -48.31600189208983 L 143.28399658203125 -48.02299880981444 L 143.36000061035156 -47.92027282714843 L 143.52000427246094 -47.70399856567382 L 143.7239990234375 -47.36500167846679 L 143.89300537109375 -47.006999969482415 L 144.0260009765625 -46.6339988708496 L 144.1219940185547 -46.24999999999999 L 144.18099975585938 -45.85800170898437 L 144.1999969482422 -45.463001251220696 L 144.1999969482422 -45.05599975585937 L 144.1999969482422 -44.68823242187499 L 144.1999969482422 -43.83993911743163 L 144.1999969482422 -42.95950317382812 L 144.1999969482422 -41.93151473999023 L 144.1999969482422 -40.95999908447265 L 144.1999969482422 -32.76800155639648 L 144.1999969482422 1.1102230246251565e-16 L 144.1999969482422 18.069999694824215 L 144.1999969482422 32.76800155639648 L 144.1999969482422 39.13100051879882 L 144.1999969482422 40.95999908447265 L 144.1999969482422 43.98915481567382 L 144.1999969482422 45.05599975585937 L 144.1999969482422 45.463001251220696 L 144.18099975585938 45.85800170898437 L 144.1219940185547 46.24999999999999 L 144.0260009765625 46.6339988708496 L 143.89300537109375 47.006999969482415 L 143.7239990234375 47.36500167846679 L 143.52000427246094 47.70399856567382 L 143.36000061035156 47.92027282714843 L 143.28399658203125 48.02299880981444 L 143.01800537109375 48.31600189208983 L 142.72500610351562 48.58200073242186 L 142.40699768066406 48.81800079345702 L 142.06700134277344 49.02099990844725 L 141.79112243652344 49.15200042724608 L 141.70899963378906 49.19100189208983 L 141.33599853515625 49.324001312255845 L 140.95199584960938 49.4199981689453 L 140.56100463867188 49.478000640869126 L 140.1649932861328 49.4980010986328 L 131.07200622558594 49.4980010986328 L 98.30400085449219 49.4980010986328 L 96.18952178955078 49.4980010986328 L 93.96488189697266 49.4980010986328 L 93.96446228027344 49.4980010986328 L 93.96444702148438 49.4980010986328 L 65.53600311279297 49.4980010986328 L 49.152000427246094 49.4980010986328 L 32.768001556396484 49.4980010986328 L 0 49.4980010986328 L -32.768001556396484 49.4980010986328 L -49.152000427246094 49.4980010986328 L -65.53600311279297 49.4980010986328 L -131.07200622558594 49.4980010986328 L -140.1649932861328 49.4980010986328 L -140.56100463867188 49.478000640869126 L -140.95199584960938 49.4199981689453 L -141.33599853515625 49.324001312255845 L -141.70899963378906 49.19100189208983 L -141.79112243652344 49.15200042724608 L -142.06700134277344 49.02099990844725 L -142.40699768066406 48.81800079345702 L -142.72500610351562 48.58200073242186 L -143.01800537109375 48.31600189208983 L -143.28399658203125 48.02299880981444 L -143.36000061035156 47.92027282714843 L -143.52000427246094 47.70399856567382 L -143.7239990234375 47.36500167846679 L -143.89300537109375 47.006999969482415 L -144.0260009765625 46.6339988708496 L -144.1219940185547 46.24999999999999 L -144.18099975585938 45.85800170898437 L -144.1999969482422 45.463001251220696 L -144.1999969482422 45.05599975585937 L -144.1999969482422 44.84975433349609 L -144.1999969482422 40.95999908447265 L -144.1999969482422 39.1574478149414 L -144.1999969482422 32.76800155639648 L -144.1999969482422 1.1102230246251565e-16 L -144.1999969482422 -32.76800155639648 L -144.1999969482422 -39.31595230102538 L -144.1999969482422 -40.95999908447265 L -144.1999969482422 -45.05599975585937 L -144.1999969482422 -45.463001251220696 L -144.18099975585938 -45.85800170898437 L -144.1219940185547 -46.24999999999999 L -144.0260009765625 -46.6339988708496 L -143.89300537109375 -47.006999969482415 L -143.7239990234375 -47.36500167846679 L -143.52000427246094 -47.70399856567382 L -143.36000061035156 -47.92027282714843 L -143.28399658203125 -48.02299880981444 L -143.01800537109375 -48.31600189208983 L -142.72500610351562 -48.58200073242186 L -142.40699768066406 -48.81800079345702 L -142.06700134277344 -49.02099990844725 L -141.79112243652344 -49.15200042724608 L -141.70899963378906 -49.19100189208983 L -141.33599853515625 -49.324001312255845 L -140.95199584960938 -49.4199981689453 L -140.56100463867188 -49.478000640869126 L -140.1649932861328 -49.4980010986328 L -131.07200622558594 -49.4980010986328 L -65.53600311279297 -49.4980010986328 L -49.152000427246094 -49.4980010986328 L -32.768001556396484 -49.4980010986328 L 0 -49.4980010986328 L 32.768001556396484 -49.4980010986328 L 49.152000427246094 -49.4980010986328 L 65.53600311279297 -49.4980010986328 L 93.98716735839844 -49.4980010986328 L 93.9872055053711 -49.4980010986328 L 98.30400085449219 -49.4980010986328 L 131.07200622558594 -49.4980010986328 L 140.1649932861328 -49.4980010986328 L 140.56100463867188 -49.478000640869126 L 140.95199584960938 -49.4199981689453 L 141.33599853515625 -49.324001312255845 L 141.70899963378906 -49.19100189208983 M 65.8414535522461 -39.29527282714843 L 65.53600311279297 -39.295459747314446 L 49.152000427246094 -39.30548477172851 L 44.13873291015625 -39.30855178833007 L 32.768001556396484 -39.31549453735351 L 19.673999786376953 -39.32349014282226 L 10.390665054321289 -39.32437515258788 L 0 -39.32536315917968 L -15.1698637008667 -39.32680892944335 L -22.310340881347656 -39.32799911499023 L -32.768001556396484 -39.31970596313476 L -49.152000427246094 -39.30671310424804 L -65.53600311279297 -39.29372024536132 L -66.26187896728516 -39.29314422607421 L -70.82649993896484 -39.28956985473632 L -75.2312240600586 -39.28602981567382 L -75.26782989501953 -39.285999298095696 L -75.268310546875 -39.285999298095696 L -75.38397979736328 -39.28600692749023 L -109.74983978271484 -39.28765869140624 L -116.81616973876953 -39.28799819946288 L -116.8161849975586 -39.28799819946288 L -131.07200622558594 -39.30255126953124 L -133.8911895751953 -39.305427551269524 L -137.38999938964844 -39.30899810791015 L -137.38999938964844 -32.76800155639648 L -137.38999938964844 1.1102230246251565e-16 L -137.38999938964844 32.76800155639648 L -137.38999938964844 39.1500015258789 L -131.07200622558594 39.14308929443359 L -117.35896301269531 39.128093719482415 L -117.2750015258789 39.127998352050774 L -110.1709213256836 39.13480377197265 L -75.50216674804688 39.16717147827148 L -65.53600311279297 39.15273284912109 L -49.152000427246094 39.1289939880371 L -32.768001556396484 39.10525894165038 L -31.392946243286133 39.10326385498046 L -23.001371383666992 39.091106414794915 L -22.353830337524414 39.09017181396484 L 0 39.08697891235351 L 12.511611938476562 39.08518981933593 L 19.65583038330078 39.083999633789055 L 19.666519165039062 39.08400726318359 L 24.672327041625977 39.08825302124023 L 32.29392623901367 39.09488296508788 L 32.768001556396484 39.095291137695305 L 49.152000427246094 39.10940170288085 L 65.53600311279297 39.1235122680664 L 93.96682739257812 39.147998809814446 L 93.96683502197266 39.147998809814446 L 93.96700286865234 39.147998809814446 L 93.9683609008789 32.49017715454101 L 93.96989440917969 25.809564590454094 L 93.97582244873047 1.1102230246251565e-16 L 93.97736358642578 -6.680612087249754 L 93.98483276367188 -39.28050231933593 L 93.98483276367188 -39.28200149536132 L 78.47920989990234 -39.28863906860351 L 65.8414535522461 -39.29527282714843 M 140.24899291992188 -46.243999481201165 L 140.0540008544922 -46.26399993896484 L 139.85800170898438 -46.243999481201165 L 139.67100524902344 -46.187000274658196 L 139.4980010986328 -46.09500122070312 L 139.3459930419922 -45.97100067138671 L 139.26400756835938 -45.87048339843749 L 139.2220001220703 -45.81900024414062 L 139.1300048828125 -45.64599990844726 L 139.072998046875 -45.458999633789055 L 139.0540008544922 -45.26399993896484 L 139.072998046875 -45.068000793457024 L 139.1300048828125 -44.88100051879882 L 139.2220001220703 -44.70800018310546 L 139.26400756835938 -44.65651702880859 L 139.3459930419922 -44.55599975585937 L 139.4980010986328 -44.43199920654296 L 139.67100524902344 -44.34000015258788 L 139.85800170898438 -44.283000946044915 L 140.0540008544922 -44.26300048828124 L 140.24899291992188 -44.283000946044915 L 140.43600463867188 -44.34000015258788 L 140.60899353027344 -44.43199920654296 L 140.76100158691406 -44.55599975585937 L 140.88499450683594 -44.70800018310546 L 140.9770050048828 -44.88100051879882 L 141.0303497314453 -45.05599975585937 L 141.03399658203125 -45.068000793457024 L 141.0540008544922 -45.26399993896484 L 141.03399658203125 -45.458999633789055 L 140.9770050048828 -45.64599990844726 L 140.88499450683594 -45.81900024414062 L 140.76100158691406 -45.97100067138671 L 140.60899353027344 -46.09500122070312 L 140.43600463867188 -46.187000274658196 L 140.24899291992188 -46.243999481201165 M 140.24000549316406 44.41299819946288 L 140.0449981689453 44.39400100708007 L 139.85000610351562 44.41299819946288 L 139.66200256347656 44.47000122070312 L 139.49000549316406 44.562000274658196 L 139.33799743652344 44.687000274658196 L 139.26400756835938 44.77711105346679 L 139.21400451660156 44.838001251220696 L 139.12100219726562 45.011001586914055 L 139.06399536132812 45.19900131225585 L 139.0449981689453 45.39400100708007 L 139.06399536132812 45.58900070190429 L 139.12100219726562 45.77700042724609 L 139.21400451660156 45.950000762939446 L 139.26400756835938 46.01088714599609 L 139.33799743652344 46.101001739501946 L 139.49000549316406 46.226001739501946 L 139.66200256347656 46.318000793457024 L 139.85000610351562 46.37499999999999 L 140.0449981689453 46.39400100708007 L 140.24000549316406 46.37499999999999 L 140.42799377441406 46.318000793457024 L 140.6009979248047 46.226001739501946 L 140.7519989013672 46.101001739501946 L 140.8769989013672 45.950000762939446 L 140.968994140625 45.77700042724609 L 141.0260009765625 45.58900070190429 L 141.0449981689453 45.39400100708007 L 141.0260009765625 45.19900131225585 L 140.98265075683594 45.05599975585937 L 140.968994140625 45.011001586914055 L 140.8769989013672 44.838001251220696 L 140.7519989013672 44.687000274658196 L 140.6009979248047 44.562000274658196 L 140.42799377441406 44.47000122070312 L 140.24000549316406 44.41299819946288 M 114.04900360107422 -12.527999877929684 L 111.50199890136719 -11.765000343322752 L 109.15499877929688 -10.524999618530272 L 107.0979995727539 -8.857000350952147 L 105.40899658203125 -6.824999809265135 L 104.15499877929688 -4.506000041961669 L 103.38200378417969 -1.9900000095367427 L 103.18429565429688 1.1102230246251565e-16 L 103.12200164794922 0.6269999742507935 L 103.38200378417969 3.243999958038329 L 104.15499877929688 5.760000228881835 L 105.40899658203125 8.07900047302246 L 107.0979995727539 10.111000061035154 L 109.15499877929688 11.779000282287596 L 111.50199890136719 13.019000053405758 L 114.04900360107422 13.781999588012692 L 114.68800354003906 13.844259262084957 L 116.6969985961914 14.039999961853024 L 119.34600067138672 13.781999588012692 L 121.89199829101562 13.019000053405758 L 124.23899841308594 11.779000282287596 L 126.2969970703125 10.111000061035154 L 127.98500061035156 8.07900047302246 L 129.24000549316406 5.760000228881835 L 130.01199340820312 3.243999958038329 L 130.2729949951172 0.6269999742507935 L 130.21046447753906 1.1102230246251565e-16 L 130.01199340820312 -1.9900000095367427 L 129.24000549316406 -4.506000041961669 L 127.98500061035156 -6.824999809265135 L 126.2969970703125 -8.857000350952147 L 124.23899841308594 -10.524999618530272 L 121.89199829101562 -11.765000343322752 L 119.34600067138672 -12.527999877929684 L 116.6969985961914 -12.786000251770016 L 114.04900360107422 -12.527999877929684 M 47.8849983215332 -46.384998321533196 L 47.689998626708984 -46.403999328613274 L 47.494998931884766 -46.384998321533196 L 47.30699920654297 -46.32799911499023 L 47.1349983215332 -46.235000610351555 L 47.104000091552734 -46.20970916748046 L 46.983001708984375 -46.11100006103515 L 46.85900115966797 -45.95999908447265 L 46.76599884033203 -45.78699874877929 L 46.70899963378906 -45.59899902343749 L 46.689998626708984 -45.403999328613274 L 46.70899963378906 -45.208999633789055 L 46.75539016723633 -45.05599975585937 L 46.76599884033203 -45.02099990844726 L 46.85900115966797 -44.8479995727539 L 46.983001708984375 -44.6969985961914 L 47.1349983215332 -44.5719985961914 L 47.30699920654297 -44.47999954223632 L 47.494998931884766 -44.42300033569335 L 47.689998626708984 -44.403999328613274 L 47.8849983215332 -44.42300033569335 L 48.073001861572266 -44.47999954223632 L 48.24599838256836 -44.5719985961914 L 48.39699935913086 -44.6969985961914 L 48.52199935913086 -44.8479995727539 L 48.61399841308594 -45.02099990844726 L 48.624610900878906 -45.05599975585937 L 48.67100143432617 -45.208999633789055 L 48.689998626708984 -45.403999328613274 L 48.67100143432617 -45.59899902343749 L 48.61399841308594 -45.78699874877929 L 48.52199935913086 -45.95999908447265 L 48.39699935913086 -46.11100006103515 L 48.24599838256836 -46.235000610351555 L 48.073001861572266 -46.32799911499023 L 47.8849983215332 -46.384998321533196 M 44.685001373291016 45.046001434326165 L 44.68202209472656 45.05599975585937 L 44.62900161743164 45.23400115966796 L 44.60900115966797 45.42900085449218 L 44.62900161743164 45.6240005493164 L 44.685001373291016 45.812000274658196 L 44.77799987792969 45.985000610351555 L 44.902000427246094 46.136001586914055 L 45.05400085449219 46.261001586914055 L 45.055999755859375 46.2620620727539 L 45.22700119018555 46.35300064086913 L 45.41400146484375 46.4099998474121 L 45.60900115966797 46.42900085449218 L 45.80400085449219 46.4099998474121 L 45.992000579833984 46.35300064086913 L 46.165000915527344 46.261001586914055 L 46.316001892089844 46.136001586914055 L 46.441001892089844 45.985000610351555 L 46.53300094604492 45.812000274658196 L 46.59000015258789 45.6240005493164 L 46.60900115966797 45.42900085449218 L 46.59000015258789 45.23400115966796 L 46.536033630371094 45.05599975585937 L 46.53300094604492 45.046001434326165 L 46.441001892089844 44.8740005493164 L 46.316001892089844 44.722000122070305 L 46.165000915527344 44.5979995727539 L 45.992000579833984 44.50500106811523 L 45.80400085449219 44.44800186157226 L 45.60900115966797 44.42900085449218 L 45.41400146484375 44.44800186157226 L 45.22700119018555 44.50500106811523 L 45.05400085449219 44.5979995727539 L 44.902000427246094 44.722000122070305 L 44.77799987792969 44.8740005493164 L 44.685001373291016 45.046001434326165 M -48.62099838256836 -46.384998321533196 L -48.816001892089844 -46.403999328613274 L -49.01100158691406 -46.384998321533196 L -49.152000427246094 -46.3422508239746 L -49.19900131225586 -46.32799911499023 L -49.37099838256836 -46.235000610351555 L -49.52299880981445 -46.11100006103515 L -49.64699935913086 -45.95999908447265 L -49.7400016784668 -45.78699874877929 L -49.797000885009766 -45.59899902343749 L -49.816001892089844 -45.403999328613274 L -49.797000885009766 -45.208999633789055 L -49.7400016784668 -45.02099990844726 L -49.64699935913086 -44.8479995727539 L -49.52299880981445 -44.6969985961914 L -49.37099838256836 -44.5719985961914 L -49.19900131225586 -44.47999954223632 L -49.152000427246094 -44.46575164794921 L -49.01100158691406 -44.42300033569335 L -48.816001892089844 -44.403999328613274 L -48.62099838256836 -44.42300033569335 L -48.43299865722656 -44.47999954223632 L -48.2599983215332 -44.5719985961914 L -48.10900115966797 -44.6969985961914 L -47.98400115966797 -44.8479995727539 L -47.891998291015625 -45.02099990844726 L -47.88138961791992 -45.05599975585937 L -47.834999084472656 -45.208999633789055 L -47.816001892089844 -45.403999328613274 L -47.834999084472656 -45.59899902343749 L -47.891998291015625 -45.78699874877929 L -47.98400115966797 -45.95999908447265 L -48.10900115966797 -46.11100006103515 L -48.2599983215332 -46.235000610351555 L -48.43299865722656 -46.32799911499023 L -48.62099838256836 -46.384998321533196 M -49.02399826049805 44.41299819946288 L -49.152000427246094 44.400527954101555 L -49.21900177001953 44.39400100708007 L -49.41400146484375 44.41299819946288 L -49.60200119018555 44.47000122070312 L -49.775001525878906 44.562000274658196 L -49.92599868774414 44.687000274658196 L -50.05099868774414 44.838001251220696 L -50.143001556396484 45.011001586914055 L -50.15664291381836 45.05599975585937 L -50.20000076293945 45.19900131225585 L -50.21900177001953 45.39400100708007 L -50.20000076293945 45.58900070190429 L -50.143001556396484 45.77700042724609 L -50.05099868774414 45.950000762939446 L -49.92599868774414 46.101001739501946 L -49.775001525878906 46.226001739501946 L -49.60200119018555 46.318000793457024 L -49.41400146484375 46.37499999999999 L -49.21900177001953 46.39400100708007 L -49.152000427246094 46.38747024536132 L -49.02399826049805 46.37499999999999 L -48.83700180053711 46.318000793457024 L -48.66400146484375 46.226001739501946 L -48.512001037597656 46.101001739501946 L -48.38800048828125 45.950000762939446 L -48.29499816894531 45.77700042724609 L -48.23899841308594 45.58900070190429 L -48.21900177001953 45.39400100708007 L -48.23899841308594 45.19900131225585 L -48.29499816894531 45.011001586914055 L -48.38800048828125 44.838001251220696 L -48.512001037597656 44.687000274658196 L -48.66400146484375 44.562000274658196 L -48.83700180053711 44.47000122070312 L -49.02399826049805 44.41299819946288 M -139.26100158691406 -46.235000610351555 L -139.26400756835938 -46.236614227294915 L -139.4340057373047 -46.32799911499023 L -139.6219940185547 -46.384998321533196 L -139.81700134277344 -46.403999328613274 L -140.01199340820312 -46.384998321533196 L -140.19900512695312 -46.32799911499023 L -140.3719940185547 -46.235000610351555 L -140.5240020751953 -46.11100006103515 L -140.6479949951172 -45.95999908447265 L -140.74099731445312 -45.78699874877929 L -140.7969970703125 -45.59899902343749 L -140.81700134277344 -45.403999328613274 L -140.7969970703125 -45.208999633789055 L -140.7514190673828 -45.05599975585937 L -140.74099731445312 -45.02099990844726 L -140.6479949951172 -44.8479995727539 L -140.5240020751953 -44.6969985961914 L -140.3719940185547 -44.5719985961914 L -140.19900512695312 -44.47999954223632 L -140.01199340820312 -44.42300033569335 L -139.81700134277344 -44.403999328613274 L -139.6219940185547 -44.42300033569335 L -139.4340057373047 -44.47999954223632 L -139.26400756835938 -44.57040405273437 L -139.26100158691406 -44.5719985961914 L -139.11000061035156 -44.6969985961914 L -138.98500061035156 -44.8479995727539 L -138.89300537109375 -45.02099990844726 L -138.83599853515625 -45.208999633789055 L -138.81700134277344 -45.403999328613274 L -138.83599853515625 -45.59899902343749 L -138.89300537109375 -45.78699874877929 L -138.98500061035156 -45.95999908447265 L -139.11000061035156 -46.11100006103515 L -139.26100158691406 -46.235000610351555 M -139.2519989013672 44.70999908447265 L -139.26400756835938 44.700210571289055 L -139.4040069580078 44.58599853515624 L -139.57699584960938 44.49300003051757 L -139.76400756835938 44.437000274658196 L -139.95899963378906 44.416999816894524 L -140.15499877929688 44.437000274658196 L -140.3419952392578 44.49300003051757 L -140.51499938964844 44.58599853515624 L -140.66700744628906 44.70999908447265 L -140.79100036621094 44.86199951171874 L -140.88299560546875 45.0349998474121 L -140.889404296875 45.05599975585937 L -140.94000244140625 45.222000122070305 L -140.95899963378906 45.416999816894524 L -140.94000244140625 45.61199951171874 L -140.88299560546875 45.79999923706054 L -140.79100036621094 45.9729995727539 L -140.66700744628906 46.12499999999999 L -140.51499938964844 46.2490005493164 L -140.3419952392578 46.34099960327148 L -140.15499877929688 46.397998809814446 L -139.95899963378906 46.416999816894524 L -139.76400756835938 46.397998809814446 L -139.57699584960938 46.34099960327148 L -139.4040069580078 46.2490005493164 L -139.26400756835938 46.13478851318359 L -139.2519989013672 46.12499999999999 L -139.1280059814453 45.9729995727539 L -139.03599548339844 45.79999923706054 L -138.97900390625 45.61199951171874 L -138.95899963378906 45.416999816894524 L -138.97900390625 45.222000122070305 L -139.03599548339844 45.0349998474121 L -139.1280059814453 44.86199951171874 L -139.2519989013672 44.70999908447265 M 137.08399963378906 18.069999694824215 L 131.07200622558594 18.069999694824215 L 98.30400085449219 18.069999694824215 L 96.19400024414062 18.069999694824215 L 96.19100189208984 39.13100051879882 L 98.30400085449219 39.13100051879882 L 131.07200622558594 39.13100051879882 L 137.08399963378906 39.13100051879882 L 137.08399963378906 32.76800155639648 L 137.08399963378906 18.069999694824215 z" fill="none" stroke="rgb(255,0,0)" stroke-width="0.001mm" />
</svg>