<?xml version="1.0" standalone="no"?>
<!DOCTYPE svg PUBLIC "-//W3C//DTD SVG 1.1//EN"
  "http://www.w3.org/Graphics/SVG/1.1/DTD/svg11.dtd">
<svg width="290.3999938964844mm" height="100.9960021972656mm" viewBox="-145.1999969482422 -50.4980010986328 290.3999938964844 100.9960021972656" xmlns="http://www.w3.org/2000/svg" version="1.1">
	<title>svgOutput</title>
	<desc>made with tinkercad</desc>
<path d="M 141.70899963378906 -49.19100189208983 L 141.79112243652344 -49.15200042724608 L 142.06700134277344 -49.02099990844725 L 142.40699768066406 -48.81800079345702 L 142.72500610351562 -48.58200073242186 L 143.01800537109375 -48.31600189208983 L 143.28399658203125 -48.02299880981444 L 143.52000427246094 -47.70399856567382 L 143.54347229003906 -47.66500091552734 L 143.7239990234375 -47.36500167846679 L 143.89300537109375 -47.006999969482415 L 144.0260009765625 -46.6339988708496 L 144.1219940185547 -46.24999999999999 L 144.18099975585938 -45.85800170898437 L 144.1999969482422 -45.463001251220696 L 144.1999969482422 -45.05599975585937 L 144.1999969482422 -40.95999908447265 L 144.1999969482422 -32.76800155639648 L 144.1999969482422 1.1102230246251565e-16 L 144.1999969482422 16.209518432617184 L 144.1999969482422 32.76800155639648 L 144.1999969482422 40.95999908447265 L 144.1999969482422 43.08499908447265 L 144.1999969482422 45.05599975585937 L 144.1999969482422 45.463001251220696 L 144.18099975585938 45.85800170898437 L 144.1219940185547 46.24999999999999 L 144.0260009765625 46.6339988708496 L 143.89300537109375 47.006999969482415 L 143.7239990234375 47.36500167846679 L 143.52000427246094 47.70399856567382 L 143.36000061035156 47.92027282714843 L 143.28399658203125 48.02299880981444 L 143.01800537109375 48.31600189208983 L 142.72500610351562 48.58200073242186 L 142.40699768066406 48.81800079345702 L 142.06700134277344 49.02099990844725 L 141.79112243652344 49.15200042724608 L 141.70899963378906 49.19100189208983 L 141.33599853515625 49.324001312255845 L 140.95199584960938 49.4199981689453 L 140.56100463867188 49.478000640869126 L 140.1649932861328 49.4980010986328 L 131.07200622558594 49.4980010986328 L 65.53600311279297 49.4980010986328 L 49.152000427246094 49.4980010986328 L 32.768001556396484 49.4980010986328 L 0 49.4980010986328 L -32.768001556396484 49.4980010986328 L -44.254085540771484 49.4980010986328 L -49.09282684326172 49.4980010986328 L -49.152000427246094 49.4980010986328 L -65.53600311279297 49.4980010986328 L -131.07200622558594 49.4980010986328 L -140.1649932861328 49.4980010986328 L -140.56100463867188 49.478000640869126 L -140.95199584960938 49.4199981689453 L -141.33599853515625 49.324001312255845 L -141.70899963378906 49.19100189208983 L -141.79112243652344 49.15200042724608 L -142.06700134277344 49.02099990844725 L -142.40699768066406 48.81800079345702 L -142.72500610351562 48.58200073242186 L -143.01800537109375 48.31600189208983 L -143.28399658203125 48.02299880981444 L -143.36000061035156 47.92027282714843 L -143.52000427246094 47.70399856567382 L -143.7239990234375 47.36500167846679 L -143.89300537109375 47.006999969482415 L -144.0260009765625 46.6339988708496 L -144.1219940185547 46.24999999999999 L -144.18099975585938 45.85800170898437 L -144.1999969482422 45.463001251220696 L -144.1999969482422 45.05599975585937 L -144.1999969482422 43.08499908447265 L -144.1999969482422 40.95999908447265 L -144.1999969482422 32.76800155639648 L -144.1999969482422 1.1102230246251565e-16 L -144.1999969482422 -32.76800155639648 L -144.1999969482422 -40.95999908447265 L -144.1999969482422 -43.22000122070312 L -144.1999969482422 -45.05599975585937 L -144.1999969482422 -45.463001251220696 L -144.18099975585938 -45.85800170898437 L -144.1219940185547 -46.24999999999999 L -144.0260009765625 -46.6339988708496 L -143.89300537109375 -47.006999969482415 L -143.7239990234375 -47.36500167846679 L -143.5945587158203 -47.58010482788085 L -143.54347229003906 -47.66500091552734 L -143.52000427246094 -47.70399856567382 L -143.28399658203125 -48.02299880981444 L -143.01800537109375 -48.31600189208983 L -142.72500610351562 -48.58200073242186 L -142.40699768066406 -48.81800079345702 L -142.06700134277344 -49.02099990844725 L -141.79112243652344 -49.15200042724608 L -141.70899963378906 -49.19100189208983 L -141.33599853515625 -49.324001312255845 L -140.95199584960938 -49.4199981689453 L -140.56100463867188 -49.478000640869126 L -140.1649932861328 -49.4980010986328 L -131.07200622558594 -49.4980010986328 L -71.82971954345703 -49.4980010986328 L -71.48856353759766 -49.15667343139647 L -69.83616638183594 -47.48270034790038 L -69.83616638183594 -46.80395889282226 L -74.3443603515625 -41.78453063964843 L -74.0948715209961 -41.43402099609374 L -74.65961456298828 -41.43352890014648 L -75.26782989501953 -41.432998657226555 L -109.74983978271484 -41.4346580505371 L -116.81616973876953 -41.43500137329101 L -116.8161849975586 -41.43500137329101 L -123.92858123779297 -41.4424819946289 L -131.07200622558594 -42.0302505493164 L -138.24366760253906 -42.6203384399414 L -138.85569763183594 -42.6203384399414 L -138.8561248779297 -42.6203384399414 L -138.85690307617188 -42.6203384399414 L -139.11007690429688 -42.6203384399414 L -139.0996856689453 -42.20069503784179 L -139.09962463378906 -42.19872665405273 L -139.099609375 -42.197681427001946 L -139.081298828125 -41.458423614501946 L -139.06893920898438 -40.95999908447265 L -138.8660125732422 -32.76800155639648 L -138.05429077148438 1.1102230246251565e-16 L -137.7270050048828 13.212067604064938 L -137.7270050048828 32.76800155639648 L -137.7270050048828 40.95999908447265 L -137.7270050048828 41.39199829101562 L -137.02894592285156 41.391250610351555 L -131.07200622558594 41.384841918945305 L -117.27507781982422 41.36999893188476 L -117.2750015258789 41.36999893188476 L -110.1709213256836 41.37663269042968 L -75.50216674804688 41.40900039672851 L -65.53600311279297 41.39456176757812 L -57.34400177001953 41.38269424438476 L -49.152000427246094 41.37082290649413 L -32.768001556396484 41.347087860107415 L -31.392946243286133 41.34509658813476 L -22.353830337524414 41.33200073242187 L 0 41.32880783081054 L 12.511611938476562 41.32701873779296 L 19.65583038330078 41.32600021362304 L 19.65587615966797 41.32600021362304 L 32.768001556396484 41.338027954101555 L 40.959999084472656 41.3455467224121 L 49.152000427246094 41.35306167602538 L 65.53600311279297 41.368091583251946 L 65.7909164428711 41.368328094482415 L 75.24517059326172 41.37699890136718 L 82.37339782714844 41.38142013549804 L 117.16082763671875 41.40299987792968 L 120.64127349853516 41.406570434570305 L 131.07200622558594 41.41727447509765 L 135.21951293945312 41.42153167724609 L 137.625 41.423999786376946 L 137.625 40.95999908447265 L 137.625 32.76800155639648 L 137.625 13.247468948364254 L 140.05792236328125 14.343502998352047 L 139.85400390625 1.1102230246251565e-16 L 139.3881378173828 -32.76800155639648 L 139.27166748046875 -40.95999908447265 L 139.26400756835938 -41.49930572509765 L 139.24826049804688 -42.6060562133789 L 138.36404418945312 -42.6060562133789 L 138.00955200195312 -43.22000122070312 L 137.51744079589844 -44.072273254394524 L 131.07200622558594 -42.797012329101555 L 124.10702514648438 -41.418960571289055 L 117.13899993896484 -41.421001434326165 L 82.4171371459961 -41.435108184814446 L 75.30182647705078 -41.43782806396484 L 74.3914566040039 -41.438369750976555 L 65.53600311279297 -41.44362258911132 L 52.575218200683594 -41.45131301879882 L 49.152000427246094 -41.45334243774413 L 47.969322204589844 -41.45404434204101 L 40.959999084472656 -41.45820236206054 L 32.768001556396484 -41.463062286376946 L 29.134374618530273 -41.465217590332024 L 19.673999786376953 -41.47066116333007 L 8.304102544487435e-11 -41.47253417968749 L -15.1698637008667 -41.473979949951165 L -22.310340881347656 -41.47499847412109 L -32.768001556396484 -41.713638305664055 L -40.959999084472656 -41.90057754516601 L -48.17255783081055 -42.065166473388665 L -48.17467498779297 -42.06521224975585 L -48.176204681396484 -42.06524658203124 L -48.17680740356445 -42.065261840820305 L -48.17928695678711 -42.06531906127929 L -48.18111038208008 -42.06536102294921 L -49.0781364440918 -42.085830688476555 L -49.152000427246094 -42.085769653320305 L -54.4327278137207 -42.08157730102538 L -54.56291198730469 -42.21099090576171 L -54.7774543762207 -42.42426681518554 L -55.577632904052734 -43.22000122070312 L -55.82400131225586 -43.46500015258788 L -55.82400131225586 -47.49446868896484 L -55.65346908569336 -47.66500091552734 L -55.48199462890625 -47.836475372314446 L -53.80303955078125 -49.4980010986328 L -49.152000427246094 -49.4980010986328 L -32.768001556396484 -49.4980010986328 L 0 -49.4980010986328 L 32.768001556396484 -49.4980010986328 L 49.152000427246094 -49.4980010986328 L 65.53600311279297 -49.4980010986328 L 131.07200622558594 -49.4980010986328 L 140.1649932861328 -49.4980010986328 L 140.56100463867188 -49.478000640869126 L 140.95199584960938 -49.4199981689453 L 141.33599853515625 -49.324001312255845 L 141.70899963378906 -49.19100189208983 M 142.25804138183594 44.72438812255859 L 142.18003845214844 44.58827972412109 L 142.12525939941406 44.493667602539055 L 142.0696563720703 44.39739608764648 L 141.85145568847656 44.01950454711913 L 141.76763916015625 43.87426376342773 L 141.60330200195312 43.58876800537109 L 141.37124633789062 43.18746185302734 L 141.31199645996094 43.08499908447265 L 141.31185913085938 43.08499908447265 L 141.31163024902344 43.08499908447265 L 141.30970764160156 43.08499908447265 L 141.30679321289062 43.08499908447265 L 141.3057098388672 43.08499908447265 L 139.26400756835938 43.08499908447265 L 138.7449951171875 43.08499908447265 L 137.625 45.02470397949218 L 137.46200561523438 45.30699920654296 L 137.625 45.589424133300774 L 138.7449951171875 47.52999877929687 L 139.26400756835938 47.52999877929687 L 141.31199645996094 47.52999877929687 L 142.59500122070312 45.30699920654296 L 142.5070343017578 45.15429306030273 L 142.45016479492188 45.05599975585937 L 142.4489288330078 45.05387115478515 L 142.38917541503906 44.95095825195312 L 142.3360595703125 44.85883712768554 L 142.25804138183594 44.72438812255859 M 45.314796447753906 -45.746509552001946 L 45.27261734008789 -45.6735496520996 L 45.22771453857422 -45.59573364257812 L 45.13941192626953 -45.4427146911621 L 45.138999938964844 -45.44200134277343 L 45.279258728027344 -45.200489044189446 L 45.36267852783203 -45.05599975585937 L 45.45271301269531 -44.90005493164062 L 45.53196716308594 -44.762981414794915 L 45.56625747680664 -44.70338821411132 L 45.633216857910156 -44.58703231811523 L 45.69546127319336 -44.479141235351555 L 45.80003356933594 -44.29821777343749 L 45.86310958862305 -44.188667297363274 L 45.93312454223633 -44.067947387695305 L 45.93392562866211 -44.066570281982415 L 45.9353141784668 -44.06417846679687 L 45.950069427490234 -44.03862762451171 L 46.07442855834961 -43.82336044311523 L 46.112892150878906 -43.7569236755371 L 46.16572189331055 -43.66567230224609 L 46.257015228271484 -43.507156372070305 L 46.308467864990234 -43.417522430419915 L 46.42300033569336 -43.22000122070312 L 48.98899841308594 -43.22000122070312 L 49.152000427246094 -43.5022964477539 L 50.27199935913086 -45.44200134277343 L 49.152000427246094 -47.382575988769524 L 48.98899841308594 -47.66500091552734 L 46.42385482788086 -47.66500091552734 L 46.42300033569336 -47.66500091552734 L 46.26946258544922 -47.40025329589843 L 46.205177307128906 -47.28919601440429 L 46.04499816894531 -47.01200103759765 L 45.91221237182617 -46.78128051757812 L 45.85234832763672 -46.67753601074218 L 45.773502349853516 -46.54059982299804 L 45.709598541259766 -46.430217742919915 L 45.62992477416992 -46.29244995117187 L 45.58681106567383 -46.21802139282226 L 45.56562423706055 -46.18144226074218 L 45.551082611083984 -46.15634155273437 L 45.49904251098633 -46.06603240966796 L 45.39944839477539 -45.8934097290039 L 45.3695068359375 -45.841445922851555 L 45.314796447753906 -45.746509552001946 M 47.82719039916992 44.627674102783196 L 47.73838806152344 44.47330474853515 L 47.6801872253418 44.3727798461914 L 47.58319091796875 44.20523834228515 L 47.562782287597656 44.170032501220696 L 47.53880310058594 44.12836837768554 L 47.42344284057617 43.928352355957024 L 47.31803894042969 43.745769500732415 L 47.28555679321289 43.68964767456054 L 47.266849517822266 43.657093048095696 L 47.22909927368164 43.59140014648437 L 47.18015670776367 43.50622940063476 L 47.15770721435547 43.467117309570305 L 47.15461730957031 43.46179199218749 L 46.968482971191406 43.14095306396484 L 46.93600082397461 43.08499908447265 L 44.369998931884766 43.08499908447265 L 43.231929779052734 45.05599975585937 L 43.08700180053711 45.30699920654296 L 44.369998931884766 47.52999877929687 L 45.055999755859375 47.52999877929687 L 46.93600082397461 47.52999877929687 L 47.16754913330078 47.12997436523437 L 47.1824951171875 47.10400009155273 L 47.30366134643555 46.89344406127929 L 47.37503433227539 46.769783020019524 L 47.45387649536133 46.63284301757812 L 47.672245025634766 46.25478363037109 L 47.727962493896484 46.15890502929687 L 47.764366149902344 46.09626388549804 L 47.867279052734375 45.91783142089843 L 47.96272277832031 45.752674102783196 L 48.08306121826172 45.544361114501946 L 48.21955108642578 45.30777740478515 L 48.219871520996094 45.30722427368163 L 48.220001220703125 45.30699920654296 L 48.10546875 45.109477996826165 L 48.07453155517578 45.05599975585937 L 48.05598068237305 45.023933410644524 L 47.9713249206543 44.87703323364257 L 47.86426544189453 44.69195938110351 L 47.82719039916992 44.627674102783196 M -46.68159103393555 -44.654373168945305 L -46.66973876953125 -44.67483901977538 L -46.65982437133789 -44.69195938110351 L -46.44927215576172 -45.05599975585937 L -46.264774322509766 -45.37499237060546 L -46.24674987792969 -45.406116485595696 L -46.2266731262207 -45.440837860107415 L -46.22603988647461 -45.44193267822265 L -46.22600173950195 -45.44200134277343 L -46.25218963623047 -45.48723983764648 L -46.27362060546875 -45.524482727050774 L -46.312564849853516 -45.59183120727538 L -46.86779022216797 -46.55372238159179 L -46.88581466674805 -46.58501434326171 L -46.91268539428711 -46.63161087036132 L -47.423095703125 -47.51465988159179 L -47.5099983215332 -47.66500091552734 L -49.152000427246094 -47.66500091552734 L -50.07600021362305 -47.66500091552734 L -51.35900115966797 -45.44200134277343 L -50.07600021362305 -43.22000122070312 L -49.152000427246094 -43.22000122070312 L -47.512359619140625 -43.22000122070312 L -47.5099983215332 -43.22000122070312 L -47.45676803588867 -43.311836242675774 L -47.38557815551758 -43.43502807617187 L -47.231849670410156 -43.70104598999023 L -47.170440673828125 -43.80730438232421 L -47.15336227416992 -43.83699798583984 L -47.14833450317383 -43.84574127197265 L -47.11669921875 -43.90050506591796 L -46.73244094848633 -44.566108703613274 L -46.700469970703125 -44.62155151367187 L -46.68159103393555 -44.654373168945305 M -138.38966369628906 -47.45585632324218 L -138.4025421142578 -47.47824096679687 L -138.50999450683594 -47.66500091552734 L -138.5103302001953 -47.66500091552734 L -138.5105743408203 -47.66500091552734 L -138.51194763183594 -47.66500091552734 L -138.5157928466797 -47.66500091552734 L -139.26400756835938 -47.66500091552734 L -141.07699584960938 -47.66500091552734 L -142.36000061035156 -45.44200134277343 L -142.13711547851562 -45.05599975585937 L -141.07699584960938 -43.22000122070312 L -139.26400756835938 -43.22000122070312 L -139.1249237060547 -43.22000122070312 L -138.50999450683594 -43.22000122070312 L -138.39381408691406 -43.420845031738274 L -138.30418395996094 -43.57604217529296 L -138.07427978515625 -43.974407196044915 L -137.88671875 -44.29891204833984 L -137.66851806640625 -44.67680358886718 L -137.4834442138672 -44.99798583984374 L -137.44996643066406 -45.05599975585937 L -137.3157958984375 -45.28846359252929 L -137.2270050048828 -45.44200134277343 L -137.2270965576172 -45.44216537475585 L -137.227294921875 -45.44251632690429 L -137.38136291503906 -45.71006774902343 L -137.51332092285156 -45.93746948242187 L -137.6336669921875 -46.146614074707024 L -137.7805633544922 -46.40056991577148 L -137.99876403808594 -46.778633117675774 L -138.10997009277344 -46.97200775146484 L -138.2361297607422 -47.19027709960937 L -138.36647033691406 -47.41573333740234 L -138.38966369628906 -47.45585632324218 M 137.46200561523438 -45.44200134277343 L 138.7449951171875 -43.22000122070312 L 139.23953247070312 -43.22000122070312 L 139.26400756835938 -43.22000122070312 L 140.28799438476562 -43.22000122070312 L 141.31199645996094 -43.22000122070312 L 142.3721160888672 -45.05599975585937 L 142.59500122070312 -45.44200134277343 L 141.31199645996094 -47.66500091552734 L 139.26400756835938 -47.66500091552734 L 139.1763458251953 -47.66500091552734 L 138.7449951171875 -47.66500091552734 L 137.46200561523438 -45.44200134277343 M -51.80699920654297 45.30699920654296 L -50.769866943359375 47.10400009155273 L -50.52399826049805 47.52999877929687 L -50.17599868774414 47.52999877929687 L -49.66400146484375 47.52999877929687 L -49.152000427246094 47.52999877929687 L -47.957000732421875 47.52999877929687 L -46.67399978637695 45.30699920654296 L -47.957000732421875 43.08499908447265 L -49.152000427246094 43.08499908447265 L -50.52399826049805 43.08499908447265 L -51.662071228027344 45.05599975585937 L -51.80699920654297 45.30699920654296 M -141.19400024414062 47.52999877929687 L -139.26400756835938 47.52999877929687 L -138.6280059814453 47.52999877929687 L -137.34500122070312 45.30699920654296 L -138.6280059814453 43.08499908447265 L -139.26400756835938 43.08499908447265 L -141.19400024414062 43.08499908447265 L -142.3320770263672 45.05599975585937 L -142.4770050048828 45.30699920654296 L -141.4398651123047 47.10400009155273 L -141.31199645996094 47.32554626464843 L -141.19400024414062 47.52999877929687 M -136.83670043945312 49.15200042724608 L -135.12486267089844 49.15200042724608 L -136.91343688964844 46.054424285888665 L -136.83670043945312 49.15200042724608 z" fill="none" stroke="rgb(255,0,0)" stroke-width="0.001mm" />
</svg>