<?xml version="1.0" standalone="no"?>
<!DOCTYPE svg PUBLIC "-//W3C//DTD SVG 1.1//EN"
  "http://www.w3.org/Graphics/SVG/1.1/DTD/svg11.dtd">
<svg width="290.3999938964844mm" height="100.9960021972656mm" viewBox="-145.1999969482422 -50.4980010986328 290.3999938964844 100.9960021972656" xmlns="http://www.w3.org/2000/svg" version="1.1">
	<title>svgOutput</title>
	<desc>made with tinkercad</desc>
<path d="M 141.70899963378906 -49.19100189208983 L 141.79112243652344 -49.15200042724608 L 142.06700134277344 -49.02099990844725 L 142.40699768066406 -48.81800079345702 L 142.72500610351562 -48.58200073242186 L 143.01800537109375 -48.31600189208983 L 143.28399658203125 -48.02299880981444 L 143.52000427246094 -47.70399856567382 L 143.54347229003906 -47.66500091552734 L 143.7239990234375 -47.36500167846679 L 143.89300537109375 -47.006999969482415 L 144.0260009765625 -46.6339988708496 L 144.1219940185547 -46.24999999999999 L 144.18099975585938 -45.85800170898437 L 144.1999969482422 -45.463001251220696 L 144.1999969482422 -45.05599975585937 L 144.1999969482422 -40.95999908447265 L 144.1999969482422 -32.76800155639648 L 144.1999969482422 1.1102230246251565e-16 L 144.1999969482422 32.76800155639648 L 144.1999969482422 40.95999908447265 L 144.1999969482422 43.08499908447265 L 144.1999969482422 45.05599975585937 L 144.1999969482422 45.463001251220696 L 144.18099975585938 45.85800170898437 L 144.1219940185547 46.24999999999999 L 144.0260009765625 46.6339988708496 L 143.89300537109375 47.006999969482415 L 143.7239990234375 47.36500167846679 L 143.52000427246094 47.70399856567382 L 143.36000061035156 47.92027282714843 L 143.28399658203125 48.02299880981444 L 143.01800537109375 48.31600189208983 L 142.72500610351562 48.58200073242186 L 142.40699768066406 48.81800079345702 L 142.06700134277344 49.02099990844725 L 141.79112243652344 49.15200042724608 L 141.70899963378906 49.19100189208983 L 141.33599853515625 49.324001312255845 L 140.95199584960938 49.4199981689453 L 140.56100463867188 49.478000640869126 L 140.1649932861328 49.4980010986328 L 131.07200622558594 49.4980010986328 L 65.53600311279297 49.4980010986328 L 49.152000427246094 49.4980010986328 L 32.768001556396484 49.4980010986328 L 0 49.4980010986328 L -32.768001556396484 49.4980010986328 L -44.254085540771484 49.4980010986328 L -49.09282684326172 49.4980010986328 L -49.152000427246094 49.4980010986328 L -65.53600311279297 49.4980010986328 L -131.07200622558594 49.4980010986328 L -140.1649932861328 49.4980010986328 L -140.56100463867188 49.478000640869126 L -140.95199584960938 49.4199981689453 L -141.33599853515625 49.324001312255845 L -141.70899963378906 49.19100189208983 L -141.79112243652344 49.15200042724608 L -142.06700134277344 49.02099990844725 L -142.40699768066406 48.81800079345702 L -142.72500610351562 48.58200073242186 L -143.01800537109375 48.31600189208983 L -143.28399658203125 48.02299880981444 L -143.36000061035156 47.92027282714843 L -143.52000427246094 47.70399856567382 L -143.7239990234375 47.36500167846679 L -143.89300537109375 47.006999969482415 L -144.0260009765625 46.6339988708496 L -144.1219940185547 46.24999999999999 L -144.18099975585938 45.85800170898437 L -144.1999969482422 45.463001251220696 L -144.1999969482422 45.05599975585937 L -144.1999969482422 43.08499908447265 L -144.1999969482422 40.95999908447265 L -144.1999969482422 32.76800155639648 L -144.1999969482422 1.1102230246251565e-16 L -144.1999969482422 -32.76800155639648 L -144.1999969482422 -40.95999908447265 L -144.1999969482422 -43.22000122070312 L -144.1999969482422 -45.05599975585937 L -144.1999969482422 -45.463001251220696 L -144.18099975585938 -45.85800170898437 L -144.1219940185547 -46.24999999999999 L -144.0260009765625 -46.6339988708496 L -143.89300537109375 -47.006999969482415 L -143.7239990234375 -47.36500167846679 L -143.5945587158203 -47.58010482788085 L -143.54347229003906 -47.66500091552734 L -143.52000427246094 -47.70399856567382 L -143.28399658203125 -48.02299880981444 L -143.01800537109375 -48.31600189208983 L -142.72500610351562 -48.58200073242186 L -142.40699768066406 -48.81800079345702 L -142.06700134277344 -49.02099990844725 L -141.79112243652344 -49.15200042724608 L -141.70899963378906 -49.19100189208983 L -141.33599853515625 -49.324001312255845 L -140.95199584960938 -49.4199981689453 L -140.56100463867188 -49.478000640869126 L -140.1649932861328 -49.4980010986328 L -131.07200622558594 -49.4980010986328 L -65.53600311279297 -49.4980010986328 L -49.152000427246094 -49.4980010986328 L -32.768001556396484 -49.4980010986328 L 0 -49.4980010986328 L 32.768001556396484 -49.4980010986328 L 49.152000427246094 -49.4980010986328 L 65.53600311279297 -49.4980010986328 L 131.07200622558594 -49.4980010986328 L 140.1649932861328 -49.4980010986328 L 140.56100463867188 -49.478000640869126 L 140.95199584960938 -49.4199981689453 L 141.33599853515625 -49.324001312255845 L 141.70899963378906 -49.19100189208983 M 142.25804138183594 44.72438812255859 L 142.18003845214844 44.58827972412109 L 142.09371948242188 44.438892364501946 L 141.87551879882812 44.0610008239746 L 141.76763916015625 43.87426376342773 L 141.745849609375 43.83642959594726 L 141.60330200195312 43.58876800537109 L 141.31199645996094 43.08499908447265 L 141.31198120117188 43.08499908447265 L 141.31161499023438 43.08499908447265 L 141.3114776611328 43.08499908447265 L 141.30679321289062 43.08499908447265 L 141.3057098388672 43.08499908447265 L 139.26400756835938 43.08499908447265 L 138.7449951171875 43.08499908447265 L 137.625 45.02470397949218 L 137.46200561523438 45.30699920654296 L 137.625 45.589424133300774 L 138.7449951171875 47.52999877929687 L 139.26400756835938 47.52999877929687 L 141.31199645996094 47.52999877929687 L 142.59500122070312 45.30699920654296 L 142.5070343017578 45.15429306030273 L 142.45016479492188 45.05599975585937 L 142.4489288330078 45.05387115478515 L 142.38917541503906 44.95095825195312 L 142.3360595703125 44.85883712768554 L 142.25804138183594 44.72438812255859 M 96.22083282470703 -41.42900085449218 L 65.53600311279297 -41.44583511352538 L 49.152000427246094 -41.45482635498046 L 40.959999084472656 -41.45932006835937 L 32.768001556396484 -41.463813781738274 L 32.6920280456543 -41.463855743408196 L 24.045387268066406 -41.46837615966796 L 19.673999786376953 -41.47066116333007 L 8.304102544487435e-11 -41.47253417968749 L -15.1698637008667 -41.473979949951165 L -22.310340881347656 -41.47499847412109 L -32.768001556396484 -41.47057342529296 L -40.959999084472656 -41.46710586547851 L -45.055999755859375 -41.465373992919915 L -49.152000427246094 -41.463638305664055 L -57.34400177001953 -41.4601707458496 L -65.53600311279297 -41.45670318603515 L -100.74388885498047 -41.44180297851562 L -116.81616973876953 -41.43500137329101 L -131.07200622558594 -41.44999694824218 L -134.17088317871094 -41.45325851440429 L -134.9249267578125 -41.45405197143554 L -134.92689514160156 -41.454055786132805 L -137.7270050048828 -41.45700073242187 L -137.7270050048828 -40.95999908447265 L -137.7270050048828 -32.76800155639648 L -137.7270050048828 1.1102230246251565e-16 L -137.7270050048828 32.76800155639648 L -137.7270050048828 40.95999908447265 L -137.7270050048828 41.39199829101562 L -131.07200622558594 41.384841918945305 L -117.2750015258789 41.36999893188476 L -110.1709213256836 41.37663269042968 L -75.50216674804688 41.40900039672851 L -65.53600311279297 41.39456176757812 L -57.34400177001953 41.38269424438476 L -49.152000427246094 41.37082290649413 L -32.768001556396484 41.347087860107415 L -31.392946243286133 41.34509658813476 L -22.353830337524414 41.33200073242187 L 0 41.32880783081054 L 12.511611938476562 41.32701873779296 L 19.65583038330078 41.32600021362304 L 19.65587615966797 41.32600021362304 L 32.768001556396484 41.338027954101555 L 40.959999084472656 41.3455467224121 L 49.152000427246094 41.35306167602538 L 65.53600311279297 41.368091583251946 L 65.7909164428711 41.368328094482415 L 75.24517059326172 41.37699890136718 L 82.37339782714844 41.38142013549804 L 117.16082763671875 41.40299987792968 L 120.64127349853516 41.406570434570305 L 131.07200622558594 41.41727447509765 L 135.21951293945312 41.42153167724609 L 137.625 41.423999786376946 L 137.625 40.95999908447265 L 137.625 32.76800155639648 L 137.625 1.1102230246251565e-16 L 137.625 -32.76800155639648 L 137.625 -40.95999908447265 L 137.625 -41.41500091552734 L 137.625 -41.41500091552734 L 131.07200622558594 -41.417217254638665 L 130.5833282470703 -41.41738128662109 L 105.21844482421875 -41.42595672607421 L 96.22083282470703 -41.42900085449218 M 45.31509017944336 -45.74676132202148 L 45.246891021728516 -45.62873458862304 L 45.16659164428711 -45.489753723144524 L 45.139339447021484 -45.44258880615234 L 45.138999938964844 -45.44200134277343 L 45.279258728027344 -45.200489044189446 L 45.356807708740234 -45.06630706787109 L 45.36275863647461 -45.05599975585937 L 45.53026580810547 -44.76586914062499 L 45.63151550292969 -44.58992385864257 L 45.693763732910156 -44.4820327758789 L 45.79833221435547 -44.30110931396484 L 45.86140823364258 -44.19155883789062 L 45.93142318725586 -44.07083892822265 L 45.93361282348633 -44.067066192626946 L 45.95906448364258 -44.02302169799804 L 46.06587219238281 -43.83816528320312 L 46.07442855834961 -43.82336044311523 L 46.16572189331055 -43.66567230224609 L 46.257015228271484 -43.507156372070305 L 46.308467864990234 -43.417522430419915 L 46.42300033569336 -43.22000122070312 L 48.98899841308594 -43.22000122070312 L 49.152000427246094 -43.5022964477539 L 50.27199935913086 -45.44200134277343 L 49.152000427246094 -47.382575988769524 L 48.98899841308594 -47.66500091552734 L 46.423465728759766 -47.66500091552734 L 46.42340087890625 -47.66500091552734 L 46.42300033569336 -47.66500091552734 L 46.04499816894531 -47.01200103759765 L 45.91221237182617 -46.78128051757812 L 45.82632827758789 -46.63229751586913 L 45.74748229980469 -46.49536132812499 L 45.68357849121094 -46.38497924804687 L 45.603904724121094 -46.24721145629882 L 45.525062561035156 -46.11110305786132 L 45.47111511230469 -46.01759719848632 L 45.42546844482422 -45.93847656249999 L 45.36654281616211 -45.83639526367187 L 45.360111236572266 -45.82519149780273 L 45.315673828125 -45.747783660888665 L 45.31509017944336 -45.74676132202148 M 47.27433395385742 43.67008972167968 L 47.27008056640625 43.66268920898437 L 47.23311233520508 43.5983543395996 L 47.1689338684082 43.486675262451165 L 46.979705810546875 43.160511016845696 L 46.93600082397461 43.08499908447265 L 46.9359016418457 43.08499908447265 L 44.369998931884766 43.08499908447265 L 43.231929779052734 45.05599975585937 L 43.08700180053711 45.30699920654296 L 44.369998931884766 47.52999877929687 L 45.055999755859375 47.52999877929687 L 46.93600082397461 47.52999877929687 L 47.16754913330078 47.12997436523437 L 47.1824951171875 47.10400009155273 L 47.30366134643555 46.89344406127929 L 47.37503433227539 46.769783020019524 L 47.45387649536133 46.63284301757812 L 47.672245025634766 46.25478363037109 L 47.764366149902344 46.09626388549804 L 47.84709930419922 45.95281600952148 L 47.867279052734375 45.91783142089843 L 47.96272277832031 45.752674102783196 L 48.08306121826172 45.544361114501946 L 48.21954345703125 45.30779266357421 L 48.21987533569336 45.3072166442871 L 48.220001220703125 45.30699920654296 L 48.10546875 45.109477996826165 L 48.07453155517578 45.05599975585937 L 48.05223846435547 45.01746749877929 L 47.967586517333984 44.8705711364746 L 47.86052322387695 44.68549728393554 L 47.77172088623047 44.53112792968749 L 47.72818374633789 44.4557876586914 L 47.5729866027832 44.1877212524414 L 47.53880310058594 44.12836837768554 L 47.45027542114258 43.97488021850585 L 47.42344284057617 43.928352355957024 L 47.31803894042969 43.745769500732415 L 47.27433395385742 43.67008972167968 M -46.34883117675781 -45.23036575317382 L -46.22948455810547 -45.43599319458007 L -46.226646423339844 -45.44088745117187 L -46.226173400878906 -45.441699981689446 L -46.22600173950195 -45.44200134277343 L -46.22623062133789 -45.44240188598632 L -46.24674987792969 -45.47805404663085 L -46.479129791259766 -45.88057327270507 L -46.48393249511719 -45.888801574707024 L -46.489845275878906 -45.89893722534179 L -46.50034713745117 -45.917278289794915 L -46.50055694580078 -45.917644500732415 L -46.51144027709961 -45.93652343749999 L -46.664737701416016 -46.20242691040038 L -46.669395446777344 -46.21051025390624 L -46.68655776977539 -46.24028015136718 L -46.69679641723633 -46.25794601440429 L -46.720062255859375 -46.298103332519524 L -46.830440521240234 -46.48898696899413 L -46.84846878051758 -46.520278930664055 L -46.8646240234375 -46.54816818237304 L -46.9560432434082 -46.70547485351562 L -46.956748962402344 -46.70668792724609 L -46.96355056762695 -46.7185935974121 L -46.980472564697266 -46.74816131591796 L -47.0390739440918 -46.8505516052246 L -47.05046844482422 -46.87027740478515 L -47.12989044189453 -47.00769424438476 L -47.185585021972656 -47.10400009155273 L -47.5099983215332 -47.66500091552734 L -49.152000427246094 -47.66500091552734 L -50.07600021362305 -47.66500091552734 L -50.248626708984375 -47.366226196289055 L -50.6851692199707 -46.610157012939446 L -50.90336608886719 -46.23209381103515 L -51.16728591918945 -45.77480316162109 L -51.35900115966797 -45.44200134277343 L -51.136199951171875 -45.05599975585937 L -50.896728515625 -44.64111709594726 L -50.678531646728516 -44.263225555419915 L -50.07600021362305 -43.22000122070312 L -49.152000427246094 -43.22000122070312 L -47.511199951171875 -43.22000122070312 L -47.51007080078125 -43.22000122070312 L -47.5099983215332 -43.22000122070312 L -47.40739822387695 -43.39772415161132 L -47.277618408203125 -43.62251663208007 L -47.250282287597656 -43.66968154907226 L -47.224388122558594 -43.71435546874999 L -47.11649703979492 -43.9010887145996 L -47.09438705444336 -43.93952560424804 L -46.9093132019043 -44.259876251220696 L -46.877681732177734 -44.31464004516601 L -46.86628723144531 -44.33453750610351 L -46.855194091796875 -44.35356903076171 L -46.854339599609375 -44.35503768920898 L -46.78163146972656 -44.47977447509765 L -46.7724494934082 -44.49559020996093 L -46.76105499267578 -44.51531982421874 L -46.650672912597656 -44.70703506469726 L -46.631797790527344 -44.739856719970696 L -46.561485290527344 -44.861946105957024 L -46.54551696777344 -44.88967514038085 L -46.54404067993164 -44.89223861694335 L -46.52473449707031 -44.925762176513665 L -46.50840759277344 -44.953994750976555 L -46.4495735168457 -45.05599975585937 L -46.39304733276367 -45.154006958007805 L -46.38233184814453 -45.17254257202148 L -46.36957931518555 -45.19448471069335 L -46.34883117675781 -45.23036575317382 M -137.8809051513672 -44.31053161621093 L -137.6771240234375 -44.66288757324218 L -137.66346740722656 -44.6864891052246 L -137.4452667236328 -45.064380645751946 L -137.38819885253906 -45.163127899169915 L -137.2270050048828 -45.44200134277343 L -137.2270965576172 -45.44216918945312 L -137.22711181640625 -45.44219970703124 L -137.22720336914062 -45.442363739013665 L -137.2281036376953 -45.443916320800774 L -137.5730743408203 -46.042041778564446 L -137.84613037109375 -46.5151023864746 L -138.0643310546875 -46.89316177368163 L -138.1077117919922 -46.96829223632812 L -138.50999450683594 -47.66500091552734 L -139.26400756835938 -47.66500091552734 L -141.07699584960938 -47.66500091552734 L -142.36000061035156 -45.44200134277343 L -142.13711547851562 -45.05599975585937 L -141.07699584960938 -43.22000122070312 L -139.26400756835938 -43.22000122070312 L -138.50999450683594 -43.22000122070312 L -138.27761840820312 -43.62251663208007 L -138.07594299316406 -43.97192001342773 L -137.8809051513672 -44.31053161621093 M -51.80699920654297 45.30699920654296 L -50.769866943359375 47.10400009155273 L -50.52399826049805 47.52999877929687 L -50.17599868774414 47.52999877929687 L -49.66400146484375 47.52999877929687 L -49.152000427246094 47.52999877929687 L -47.957000732421875 47.52999877929687 L -46.67399978637695 45.30699920654296 L -47.957000732421875 43.08499908447265 L -49.152000427246094 43.08499908447265 L -50.52399826049805 43.08499908447265 L -51.662071228027344 45.05599975585937 L -51.80699920654297 45.30699920654296 M -141.19400024414062 47.52999877929687 L -139.26400756835938 47.52999877929687 L -138.6280059814453 47.52999877929687 L -137.34500122070312 45.30699920654296 L -138.6280059814453 43.08499908447265 L -139.26400756835938 43.08499908447265 L -141.19400024414062 43.08499908447265 L -142.3320770263672 45.05599975585937 L -142.4770050048828 45.30699920654296 L -141.4398651123047 47.10400009155273 L -141.31199645996094 47.32554626464843 L -141.19400024414062 47.52999877929687 M 142.59500122070312 -45.44200134277343 L 141.31199645996094 -47.66500091552734 L 139.26400756835938 -47.66500091552734 L 138.7449951171875 -47.66500091552734 L 137.46200561523438 -45.44200134277343 L 138.7449951171875 -43.22000122070312 L 139.26400756835938 -43.22000122070312 L 141.31199645996094 -43.22000122070312 L 142.3721160888672 -45.05599975585937 L 142.59500122070312 -45.44200134277343 M 137.625 41.423999786376946 L 137.625 41.423999786376946 z" fill="none" stroke="rgb(255,0,0)" stroke-width="0.001mm" />
</svg>