<?xml version="1.0" standalone="no"?>
<!DOCTYPE svg PUBLIC "-//W3C//DTD SVG 1.1//EN"
  "http://www.w3.org/Graphics/SVG/1.1/DTD/svg11.dtd">
<svg width="275.510009765625mm" height="94.32800292968749mm" viewBox="-137.7550048828125 -47.16400146484374 275.510009765625 94.32800292968749" xmlns="http://www.w3.org/2000/svg" version="1.1">
	<title>svgOutput</title>
	<desc>made with tinkercad</desc>
<path d="M 136.75466918945312 -40.18899917602538 L 136.7550048828125 -13.186663627624508 L 136.7550048828125 1.1102230246251565e-16 L 136.7550048828125 40.70999908447265 L 133.25599670410156 40.710315704345696 L 131.07200622558594 40.71051025390624 L 116.29570770263672 40.71183776855468 L 114.68800354003906 40.711982727050774 L 114.51519012451172 40.71199798583984 L 114.2760009765625 40.71202087402343 L 114.23918151855469 40.712024688720696 L 106.49600219726562 40.71271896362304 L 103.34366607666016 40.713001251220696 L 103.34046936035156 40.95999908447265 L 103.326416015625 42.04433059692382 L 103.34700012207031 42.706001281738274 L 106.49600219726562 42.72034072875976 L 114.2760009765625 42.75576782226562 L 114.68800354003906 42.757644653320305 L 116.3030014038086 42.76499938964843 L 116.31500244140625 46.14400100708007 L 114.68800354003906 46.14481353759765 L 114.2760009765625 46.14501953124999 L 106.49600219726562 46.14891815185546 L 98.30400085449219 46.15301895141601 L 90.11199951171875 46.15712356567382 L 89.35126495361328 46.15750503540038 L 89.33269500732422 46.157512664794915 L 81.91999816894531 46.16122817993163 L 76.38200378417969 46.16400146484374 L 76.38200378417969 42.72900009155273 L 81.91999816894531 42.71832656860351 L 89.35002136230469 42.70400619506835 L 89.35299682617188 42.70399856567382 L 89.35333251953125 42.043323516845696 L 89.3587646484375 40.95999908447265 L 89.36000061035156 40.71400070190429 L 88.87200164794922 40.71400070190429 L 81.91999816894531 40.71400070190429 L 74.87200164794922 40.71400070190429 L 65.53600311279297 40.71400070190429 L 65.12200164794922 40.71400070190429 L 51.12200164794922 40.71400070190429 L 49.152000427246094 40.71400070190429 L 32.768001556396484 40.71400070190429 L 18.7147159576416 40.71400070190429 L 5.765999794006348 40.71400070190429 L 5.7386474609375 40.71400070190429 L 5.765999794006348 41.357192993164055 L 5.765999794006348 42.706001281738274 L 18.722000122070312 42.76499938964843 L 18.733999252319336 46.14400100708007 L -1.192092865393013e-11 46.15338134765624 L -6.129000186920166 46.15645217895507 L -8.192000389099121 46.157485961914055 L -16.384000778198242 46.1615867614746 L -21.198999404907227 46.16400146484374 L -21.198999404907227 42.72900009155273 L -16.384000778198242 42.71971893310546 L -8.227999687194824 42.70399856567382 L -8.235967636108398 42.043323516845696 L -8.24666690826416 40.71400070190429 L -8.251999855041504 40.71400070190429 L -16.384000778198242 40.71400070190429 L -32.768001556396484 40.71400070190429 L -59.80400085449219 40.71400070190429 L -61.62900161743164 40.71400070190429 L -64.62899780273438 40.71400070190429 L -65.53600311279297 40.71400070190429 L -75.00399780273438 40.71400070190429 L -76.26228332519531 40.71400070190429 L -81.91999816894531 40.71400070190429 L -89.00499725341797 40.71400070190429 L -89.2040023803711 40.71400070190429 L -89.2126693725586 40.71400070190429 L -89.20634460449219 41.380664825439446 L -89.21099853515625 42.706001281738274 L -81.91999816894531 42.73920059204101 L -76.25499725341797 42.76499938964843 L -76.24299621582031 46.14400100708007 L -81.91999816894531 46.14684295654296 L -90.11199951171875 46.150947570800774 L -94.00499725341797 46.15289688110351 L -98.30400085449219 46.15504837036132 L -108.00499725341797 46.15990829467773 L -114.68800354003906 46.16325378417968 L -116.177001953125 46.16400146484374 L -116.177001953125 42.72900009155273 L -114.68800354003906 42.72613143920898 L -108.00499725341797 42.71324920654296 L -103.20864868164062 42.70400619506835 L -103.20600128173828 42.70399856567382 L -103.20002746582031 42.043323516845696 L -103.18266296386719 40.71400070190429 L -108.00499725341797 40.71400070190429 L -114.68800354003906 40.71400070190429 L -115.37999725341797 40.71400070190429 L -129.3800048828125 40.71400070190429 L -131.07200622558594 40.71400070190429 L -131.7550048828125 40.71400070190429 L -136.7550048828125 40.71400070190429 L -136.7550048828125 -35.20100021362304 L -136.7550048828125 -40.19499969482421 L -131.07200622558594 -40.19533920288085 L -125.5739974975586 -40.195667266845696 L -114.68800354003906 -40.19631576538085 L -106.49600219726562 -40.19680404663085 L -103.21199798583984 -40.1969985961914 L -103.2106704711914 -40.1969985961914 L -103.20598602294922 -41.90374755859374 L -103.2030029296875 -42.75199890136718 L -106.49600219726562 -42.75809478759765 L -114.68800354003906 -42.77325057983398 L -116.17400360107422 -42.77600097656249 L -116.17400360107422 -45.95800018310546 L -114.68800354003906 -45.95729446411132 L -106.49600219726562 -45.95339584350585 L -103.19172668457031 -45.951824188232415 L -98.30400085449219 -45.94949722290038 L -90.11199951171875 -45.945598602294915 L -89.20650482177734 -45.9451675415039 L -89.15692901611328 -45.945144653320305 L -81.91999816894531 -45.94170379638671 L -79.75399780273438 -45.94067001342773 L -76.24099731445312 -45.93899917602538 L -76.25299835205078 -42.81299972534179 L -79.75399780273438 -42.79678726196288 L -81.91999816894531 -42.78675460815429 L -89.1917724609375 -42.75307846069335 L -89.20899963378906 -42.752998352050774 L -89.2103271484375 -41.05242156982421 L -89.21966552734375 -40.1969985961914 L -81.91999816894531 -40.19718170166015 L -79.75399780273438 -40.19723510742187 L -76.2630386352539 -40.19731903076171 L -74.75399780273438 -40.19735717773437 L -65.53600311279297 -40.197586059570305 L -62.223331451416016 -40.19766616821288 L -32.768001556396484 -40.19839477539062 L -16.384000778198242 -40.198799133300774 L -8.248000144958496 -40.19900131225585 L -8.24666690826416 -40.19900131225585 L -8.252676010131836 -41.87234497070312 L -8.255000114440918 -42.70399856567382 L -16.384000778198242 -42.71966934204101 L -21.22599983215332 -42.72900009155273 L -21.22599983215332 -46.16400146484374 L -16.384000778198242 -46.161575317382805 L -8.192000389099121 -46.15747070312499 L -1.192092865393013e-11 -46.153369903564446 L 8.192000389099121 -46.14926528930663 L 16.384000778198242 -46.14516448974609 L 18.707000732421875 -46.14400100708007 L 18.69499969482422 -42.76499938964843 L 16.384000778198242 -42.75447463989257 L 8.192000389099121 -42.717170715332024 L 5.738999843597412 -42.706001281738274 L 5.735015869140625 -41.87335205078124 L 5.740095615386963 -40.95999908447265 L 5.744333267211914 -40.19800186157226 L 8.192000389099121 -40.19802856445312 L 16.384000778198242 -40.198127746582024 L 18.685884475708008 -40.19815444946288 L 32.768001556396484 -40.19832229614257 L 33.6150016784668 -40.19833374023437 L 34.24700164794922 -40.1983413696289 L 39.24700164794922 -40.19840240478515 L 53.24700164794922 -40.19856643676757 L 65.53600311279297 -40.19871520996093 L 72.24700164794922 -40.19879531860351 L 77.24700164794922 -40.19885635375976 L 81.91999816894531 -40.19890975952148 L 89.33899688720703 -40.19900131225585 L 89.33966827392578 -40.19900131225585 L 89.34835052490234 -41.81423187255859 L 89.35299682617188 -42.61700057983398 L 81.91999816894531 -42.630752563476555 L 77.24700164794922 -42.63940048217773 L 76.38200378417969 -42.640998840332024 L 76.38200378417969 -46.1339988708496 L 81.91999816894531 -46.13136672973632 L 89.37332916259766 -46.12781906127929 L 90.11199951171875 -46.12746810913085 L 91.24700164794922 -46.12692642211913 L 98.30400085449219 -46.12356948852538 L 116.31500244140625 -46.11500167846679 L 116.3030014038086 -42.67800140380859 L 103.34700012207031 -42.61800003051757 L 103.34166717529297 -41.00574874877929 L 103.33035278320312 -40.19800186157226 L 103.33035278320312 -40.19800186157226 L 114.45500946044922 -40.19500732421874 L 116.29432678222656 -40.19451141357421 L 131.07200622558594 -40.1905288696289 L 131.26300048828125 -40.190479278564446 L 136.75466918945312 -40.18899917602538 M 129.44024658203125 -19.58357238769531 L 129.3328399658203 -19.455999374389645 L 129.20281982421875 -19.301574707031246 L 129.20233154296875 -19.30100059509277 L 129.06590270996094 -19.205268859863278 L 129.0240020751953 -19.175788879394528 L 128.79400634765625 -19.01399993896484 L 128.6479034423828 -18.877574920654293 L 128.42800903320312 -18.6727123260498 L 128.35533142089844 -18.604999542236325 L 128.35470581054688 -18.60378837585449 L 128.28094482421875 -18.462238311767575 L 128.2652587890625 -18.431999206542965 L 128.13299560546875 -18.177000045776364 L 128.12600708007812 -17.995000839233395 L 128.21263122558594 -17.84171867370605 L 128.2561492919922 -17.76531600952148 L 128.25633239746094 -17.764999389648434 L 128.37542724609375 -17.720649719238278 L 128.41561889648438 -17.705686569213864 L 128.4949951171875 -17.67600059509277 L 128.79600524902344 -17.725000381469723 L 129.0240020751953 -17.72735786437988 L 130.05299377441406 -17.738000869750973 L 130.2429962158203 -17.798000335693356 L 130.22000122070312 -18.363000869750973 L 130.00399780273438 -18.4109992980957 L 129.08900451660156 -18.40200042724609 L 129.13134765625 -18.431999206542965 L 129.58299255371094 -18.752000808715817 L 130.11000061035156 -19.340000152587887 L 130.1522216796875 -19.455999374389645 L 130.22500610351562 -19.656000137329098 L 130.1009979248047 -20.221000671386715 L 129.77667236328125 -20.479999542236325 L 129.6840057373047 -20.554000854492184 L 129.3419952392578 -20.586999893188473 L 129.0303955078125 -20.479999542236325 L 129.0240020751953 -20.477802276611325 L 128.64599609375 -20.347999572753903 L 128.26400756835938 -19.898000717163082 L 128.19000244140625 -19.55599975585937 L 128.21694946289062 -19.455999374389645 L 128.23500061035156 -19.38899993896484 L 128.6064910888672 -19.455999374389645 L 128.732421875 -19.478712081909176 L 128.8560028076172 -19.50099945068359 L 128.88900756835938 -19.6609992980957 L 128.95599365234375 -19.739000320434567 L 129.0240020751953 -19.785438537597653 L 129.1199951171875 -19.850999832153317 L 129.45799255371094 -19.922000885009762 L 129.49899291992188 -19.89999961853027 L 129.5590057373047 -19.725000381469723 L 129.44024658203125 -19.58357238769531 M 127.5929946899414 -19.03834533691406 L 127.58100128173828 -19.07500076293945 L 127.58344268798828 -19.18586730957031 L 127.58377075195312 -19.20070648193359 L 127.58939361572266 -19.455999374389645 L 127.59100341796875 -19.528999328613278 L 127.57499694824219 -20.25699996948242 L 127.40274810791016 -20.479999542236325 L 127.35099792480469 -20.547000885009762 L 127.2722396850586 -20.479999542236325 L 126.97599792480469 -20.22799491882324 L 126.90899658203125 -20.170999526977536 L 126.91300201416016 -20.15200042724609 L 126.9115219116211 -19.455999374389645 L 126.91100311279297 -19.208000183105465 L 126.9000473022461 -19.197048187255856 L 126.9000015258789 -19.197000503540036 L 126.696533203125 -19.231355667114254 L 126.28997039794922 -19.299892425537106 L 126.28933715820312 -19.299999237060543 L 126.32984161376953 -19.455999374389645 L 126.4039306640625 -19.741346359252926 L 126.43728637695312 -19.869810104370114 L 126.51100158691406 -20.155000686645504 L 126.47000122070312 -20.444999694824215 L 126.26786804199219 -20.42732238769531 L 125.9520034790039 -20.39974212646484 L 125.86333465576172 -20.392000198364254 L 125.86332702636719 -20.391941070556637 L 125.85699462890625 -20.354640960693356 L 125.84500122070312 -20.280000686645504 L 125.84500122070312 -20.228000640869137 L 125.81935119628906 -20.120409011840817 L 125.8193130493164 -20.12026214599609 L 125.76947784423828 -19.91388130187988 L 125.767333984375 -19.905000686645504 L 125.69328308105469 -19.64082336425781 L 125.64170837402344 -19.455999374389645 L 125.5459976196289 -19.113000869750973 L 125.56500244140625 -18.92000007629394 L 125.86299896240234 -18.690000534057614 L 125.9520034790039 -18.673217773437496 L 126.11843872070312 -18.6418342590332 L 126.11981201171875 -18.64157676696777 L 126.30892181396484 -18.60591888427734 L 126.33499908447266 -18.600999832153317 L 126.875 -18.53199958801269 L 126.88600158691406 -18.517000198364254 L 126.88778686523438 -18.49676704406738 L 126.89351654052734 -18.431999206542965 L 126.9159927368164 -18.177780151367184 L 126.93118286132812 -18.009670257568356 L 126.93133544921875 -18.007999420166012 L 126.97599792480469 -17.917716979980465 L 126.99398040771484 -17.88137626647949 L 127.0250015258789 -17.818000793457028 L 127.56690979003906 -17.93623352050781 L 127.5682144165039 -17.93651962280273 L 127.57499694824219 -17.937999725341793 L 127.57132720947266 -18.06575202941894 L 127.5633316040039 -18.32099914550781 L 127.56280517578125 -18.362573623657223 L 127.56192779541016 -18.431999206542965 L 127.5616683959961 -18.45242118835449 L 127.55899810791016 -18.715000152587887 L 127.5736312866211 -18.740409851074215 L 127.5780029296875 -18.747999191284176 L 127.61499786376953 -18.853000640869137 L 127.60999298095703 -18.908702850341793 L 127.59947204589844 -19.018558502197262 L 127.59933471679688 -19.02000045776367 L 127.5929946899414 -19.03834533691406 M 124.01599884033203 -19.311000823974606 L 124.21700286865234 -19.336999893188473 L 124.31400299072266 -19.247999191284176 L 124.00199890136719 -19.017000198364254 L 123.90399932861328 -18.9358959197998 L 123.89559936523438 -18.928941726684567 L 123.68233489990234 -18.75300025939941 L 123.68333435058594 -18.831052780151364 L 123.68599700927734 -18.986999511718746 L 123.74099731445312 -19.11000061035156 L 123.90399932861328 -19.229137420654293 L 124.01599884033203 -19.311000823974606 M 125.14900207519531 -18.113000869750973 L 125.17500305175781 -18.14999961853027 L 124.99596405029297 -18.431999206542965 L 124.99542999267578 -18.43284225463867 L 124.9280014038086 -18.5390453338623 L 124.86199951171875 -18.642999649047848 L 124.85099029541016 -18.638330459594723 L 124.82833099365234 -18.628999710083004 L 124.82771301269531 -18.628452301025387 L 124.76862335205078 -18.576631546020504 L 124.6500015258789 -18.47200012207031 L 124.6225357055664 -18.431999206542965 L 124.61931610107422 -18.42730331420898 L 124.55733489990234 -18.337999343872067 L 124.45344543457031 -18.264078140258786 L 124.45333099365234 -18.26399993896484 L 124.38862609863281 -18.252658843994137 L 124.26009368896484 -18.23001670837402 L 124.26000213623047 -18.229999542236325 L 124.22664642333984 -18.232334136962887 L 124.15933227539062 -18.236999511718746 L 124.15533447265625 -18.250675201416012 L 124.14800262451172 -18.277999877929684 L 124.16106414794922 -18.284965515136715 L 124.16300201416016 -18.2859992980957 L 124.34201049804688 -18.431999206542965 L 124.35093688964844 -18.439281463623043 L 124.4453353881836 -18.51600074768066 L 124.7279052734375 -18.72259712219238 L 124.86766815185547 -18.825025558471676 L 124.86900329589844 -18.826000213623043 L 124.9280014038086 -18.913303375244137 L 124.96763610839844 -18.971950531005856 L 125.01698303222656 -19.04448318481445 L 125.017333984375 -19.04500007629394 L 125.01966857910156 -19.120718002319332 L 125.0250015258789 -19.271999359130856 L 124.940185546875 -19.455999374389645 L 124.9280014038086 -19.48243141174316 L 124.84200286865234 -19.669000625610348 L 124.43900299072266 -19.961999893188473 L 123.7770004272461 -19.93099975585937 L 123.21199798583984 -19.528999328613278 L 123.17998504638672 -19.455999374389645 L 123.00499725341797 -19.056999206542965 L 123.01300048828125 -18.621999740600582 L 123.02330017089844 -18.585428237915036 L 123.0665283203125 -18.431999206542965 L 123.14399719238281 -18.15699958801269 L 123.40899658203125 -17.871999740600582 L 123.81800079345703 -17.645999908447262 L 123.90399932861328 -17.638727188110348 L 124.29100036621094 -17.60600090026855 L 124.32583618164062 -17.615159988403317 L 124.34022521972656 -17.618944168090817 L 124.77400207519531 -17.73299980163574 L 124.9280014038086 -17.855230331420895 L 125.01814270019531 -17.92677497863769 L 125.05999755859375 -17.959999084472653 L 125.14900207519531 -18.113000869750973 M 121.93800354003906 -18.615999221801754 L 121.85600280761719 -18.51899909973144 L 121.72200012207031 -18.482000350952145 L 121.66999816894531 -18.503999710083004 L 121.5250015258789 -18.523000717163082 L 121.5239486694336 -18.565790176391598 L 121.51300048828125 -19.013000488281246 L 121.62799835205078 -19.047000885009762 L 121.83699798583984 -18.983999252319332 L 121.85600280761719 -18.961797714233395 L 121.9260025024414 -18.879999160766598 L 121.9520034790039 -18.83200073242187 L 121.93800354003906 -18.615999221801754 M 119.5046615600586 -19.465692520141598 L 119.50523376464844 -19.455999374389645 L 119.50700378417969 -19.42600059509277 L 119.50499725341797 -18.55599975585937 L 119.45382690429688 -18.431999206542965 L 119.4530029296875 -18.430000305175778 L 119.4383316040039 -18.41133308410644 L 119.40833282470703 -18.374000549316403 L 119.30633544921875 -18.383666992187496 L 119.10299682617188 -18.402999877929684 L 119.0478286743164 -18.431999206542965 L 118.9469985961914 -18.48500061035156 L 118.9209976196289 -18.61499977111816 L 118.93286895751953 -19.455999374389645 L 118.93399810791016 -19.5359992980957 L 118.78399658203125 -19.75285720825195 L 118.75900268554688 -19.788999557495114 L 118.572998046875 -19.84099960327148 L 118.44999694824219 -19.818000793457028 L 118.29000091552734 -19.714000701904293 L 118.25933074951172 -19.64566612243652 L 118.19733428955078 -19.50900077819824 L 118.19728088378906 -19.507406234741207 L 118.19570922851562 -19.455999374389645 L 118.18800354003906 -19.2043342590332 L 118.18299865722656 -19.052000045776364 L 118.1831283569336 -19.045253753662106 L 118.19100189208984 -18.62599945068359 L 118.1949462890625 -18.431999206542965 L 118.19530487060547 -18.414243698120114 L 118.1953353881836 -18.41300010681152 L 118.3846664428711 -18.073667526245114 L 118.47899627685547 -17.903999328613278 L 118.76200103759766 -17.738000869750973 L 118.78399658203125 -17.73323822021484 L 119.2239990234375 -17.638000488281246 L 119.56600189208984 -17.63899993896484 L 119.75618743896484 -17.707981109619137 L 119.75900268554688 -17.70899963378906 L 119.78500366210938 -17.69799995422363 L 119.80799865722656 -17.69003105163574 L 119.91200256347656 -17.653999328613278 L 120.10115814208984 -17.676898956298825 L 120.10199737548828 -17.677000045776364 L 120.17333221435547 -17.718999862670895 L 120.20933532714844 -17.73999977111816 L 120.28399658203125 -17.843999862670895 L 120.32099914550781 -17.895999908447262 L 120.33499908447266 -18.090000152587887 L 120.302001953125 -18.186000823974606 L 120.2843246459961 -18.39780807495117 L 120.28141021728516 -18.431999206542965 L 120.24833679199219 -18.82099914550781 L 120.24835205078125 -18.82873725891113 L 120.2490005493164 -19.07150077819824 L 120.25053405761719 -19.455999374389645 L 120.2509994506836 -19.572000503540036 L 120.19499969482422 -19.780000686645504 L 120.0009994506836 -19.943000793457028 L 119.81500244140625 -19.958000183105465 L 119.80799865722656 -19.954839706420895 L 119.63999938964844 -19.878999710083004 L 119.50700378417969 -19.656000137329098 L 119.5046615600586 -19.61897468566894 L 119.49933624267578 -19.54500007629394 L 119.49967956542969 -19.53988456726074 L 119.5046615600586 -19.465692520141598 M 117.03700256347656 -19.50300025939941 L 117.0514907836914 -19.455999374389645 L 117.0780029296875 -19.370000839233395 L 117.14099884033203 -19.26199913024902 L 117.3239974975586 -19.142999649047848 L 117.7413330078125 -19.455999374389645 L 117.76000213623047 -19.46999931335449 L 117.7959976196289 -19.496999740600582 L 117.76599884033203 -19.65699958801269 L 117.76000213623047 -19.671936035156246 L 117.6719970703125 -19.89100074768066 L 117.607666015625 -19.962667465209957 L 117.47833251953125 -20.10600090026855 L 117.25733184814453 -20.20233345031738 L 116.81600189208984 -20.39500045776367 L 116.81552124023438 -20.394918441772457 L 116.76470184326172 -20.386297225952145 L 116.73600006103516 -20.38142585754394 L 116.1500015258789 -20.28199958801269 L 115.90218353271484 -20.036226272583004 L 115.78600311279297 -19.920999526977536 L 115.68233489990234 -19.699333190917965 L 115.58147430419922 -19.4843578338623 L 115.56816864013672 -19.455999374389645 L 115.47433471679688 -19.256000518798825 L 115.47431945800781 -19.254549026489254 L 115.4703369140625 -18.777334213256832 L 115.46800231933594 -18.53800010681152 L 115.50225067138672 -18.431999206542965 L 115.51957702636719 -18.3784065246582 L 115.55266571044922 -18.275999069213864 L 115.59503173828125 -18.145935058593746 L 115.5953369140625 -18.14500045776367 L 115.71199798583984 -18.03300094604492 L 115.81199645996094 -17.9370002746582 L 115.91999816894531 -17.833000183105465 L 116.39600372314453 -17.70000076293945 L 116.73600006103516 -17.700838088989254 L 116.802001953125 -17.701000213623043 L 117.1510009765625 -17.794000625610348 L 117.6709976196289 -18.245000839233395 L 117.72749328613281 -18.431999206542965 L 117.76000213623047 -18.539590835571286 L 117.77100372314453 -18.576000213623043 L 117.76000213623047 -18.631244659423825 L 117.72599792480469 -18.802000045776364 L 117.46900177001953 -18.979999542236325 L 117.15840148925781 -18.760206222534176 L 117.03800201416016 -18.674999237060543 L 117.03099822998047 -18.622999191284176 L 116.927001953125 -18.510999679565426 L 116.73600006103516 -18.45295715332031 L 116.66703796386719 -18.431999206542965 L 116.64399719238281 -18.424999237060543 L 116.58333587646484 -18.431999206542965 L 116.35844421386719 -18.45794868469238 L 116.35800170898438 -18.458000183105465 L 116.3183364868164 -18.4766674041748 L 116.23833465576172 -18.51399993896484 L 116.21932983398438 -18.61033248901367 L 116.18199920654297 -18.802999496459957 L 116.23699951171875 -19.22699928283691 L 116.34500122070312 -19.427999496459957 L 116.3682632446289 -19.455999374389645 L 116.51200103759766 -19.628999710083004 L 116.70500183105469 -19.659000396728512 L 116.73600006103516 -19.644433975219723 L 117.03700256347656 -19.50300025939941 M 114.12100219726562 -19.153999328613278 L 113.9123306274414 -18.999999999999996 L 113.90650177001953 -18.99518775939941 L 113.8056640625 -18.912000656127926 L 113.66400146484375 -18.794757843017575 L 113.59300231933594 -18.736000061035153 L 113.59600067138672 -18.96999931335449 L 113.6520004272461 -19.0930004119873 L 113.66400146484375 -19.101770401000973 L 113.927001953125 -19.294000625610348 L 114.12799835205078 -19.319999694824215 L 114.20893859863281 -19.245738983154293 L 114.20953369140625 -19.245189666748043 L 114.2249984741211 -19.23100090026855 L 114.12100219726562 -19.153999328613278 M 114.35600280761719 -18.499000549316403 L 114.68800354003906 -18.740953445434567 L 114.77999877929688 -18.80800056457519 L 114.9280014038086 -19.027999877929684 L 114.93499755859375 -19.254999160766598 L 114.84234619140625 -19.455999374389645 L 114.75199890136719 -19.65200042724609 L 114.68800354003906 -19.698646545410153 L 114.3499984741211 -19.944999694824215 L 113.68800354003906 -19.913999557495114 L 113.12300109863281 -19.51199913024902 L 113.09849548339844 -19.455999374389645 L 113.05400085449219 -19.354333877563473 L 112.91533660888672 -19.038999557495114 L 112.91535949707031 -19.03753852844238 L 112.92333221435547 -18.604999542236325 L 112.93374633789062 -18.56802368164062 L 112.9720687866211 -18.431999206542965 L 113.05403900146484 -18.14103507995605 L 113.05433654785156 -18.139999389648434 L 113.23100280761719 -17.95000076293945 L 113.31900024414062 -17.854999542236325 L 113.66400146484375 -17.664829254150387 L 113.72899627685547 -17.628999710083004 L 114.20099639892578 -17.589000701904293 L 114.68499755859375 -17.71599960327148 L 114.68800354003906 -17.718381881713864 L 114.93817138671875 -17.916944503784176 L 114.97100067138672 -17.943000793457028 L 115.05999755859375 -18.09499931335449 L 115.08599853515625 -18.132999420166012 L 114.9816665649414 -18.29733276367187 L 114.8958969116211 -18.431999206542965 L 114.77233123779297 -18.62599945068359 L 114.76100158691406 -18.62100028991699 L 114.73899841308594 -18.611000061035153 L 114.68800354003906 -18.566303253173825 L 114.56099700927734 -18.45499992370605 L 114.54503631591797 -18.431999206542965 L 114.46800231933594 -18.32099914550781 L 114.36399841308594 -18.246999740600582 L 114.29966735839844 -18.23566627502441 L 114.17033386230469 -18.212999343872067 L 114.13666534423828 -18.21533393859863 L 114.06999969482422 -18.21999931335449 L 114.05899810791016 -18.260999679565426 L 114.0739974975586 -18.267999649047848 L 114.27420806884766 -18.431999206542965 L 114.35600280761719 -18.499000549316403 M 112.19342041015625 -18.651229858398434 L 112.11199951171875 -18.70700073242187 L 112.04666900634766 -18.666000366210934 L 111.91533660888672 -18.58399963378906 L 111.91487121582031 -18.583290100097653 L 111.90399932861328 -18.56666755676269 L 111.88200378417969 -18.53199958801269 L 111.7566909790039 -18.48402404785156 L 111.75286102294922 -18.48255920410156 L 111.70700073242188 -18.465000152587887 L 111.61599731445312 -18.485847473144528 L 111.43199920654297 -18.527999877929684 L 111.34600067138672 -18.757999420166012 L 111.49800109863281 -18.99600028991699 L 111.61299896240234 -19.048000335693356 L 111.61599731445312 -19.047960281372067 L 111.83999633789062 -19.04500007629394 L 111.88899993896484 -18.993000030517575 L 111.9530029296875 -18.938333511352536 L 111.98533630371094 -18.9109992980957 L 112.3453369140625 -19.006332397460934 L 112.5250015258789 -19.054000854492184 L 112.4366683959961 -19.27433395385742 L 112.36356353759766 -19.455999374389645 L 112.25933074951172 -19.715000152587887 L 112.09033203125 -19.75533294677734 L 111.75299835205078 -19.83600044250488 L 111.75263214111328 -19.835927963256832 L 111.57599639892578 -19.80100059509277 L 111.2213363647461 -19.73100090026855 L 111.22102355957031 -19.730808258056637 L 111.14066314697266 -19.68033409118652 L 110.9800033569336 -19.579000473022457 L 110.89717864990234 -19.455999374389645 L 110.60900115966797 -19.027999877929684 L 110.59200286865234 -18.816350936889645 L 110.56900024414062 -18.530000686645504 L 110.59200286865234 -18.486381530761715 L 110.62067413330078 -18.431999206542965 L 110.8489990234375 -17.999000549316403 L 111.4629898071289 -17.703006744384762 L 111.46299743652344 -17.70299911499023 L 111.75033569335938 -17.705667495727536 L 111.89433288574219 -17.70700073242187 L 112.125 -17.789667129516598 L 112.23881530761719 -17.830574035644528 L 112.23999786376953 -17.830999374389645 L 112.39600372314453 -17.959667205810543 L 112.47433471679688 -18.024000167846676 L 112.56099700927734 -18.25466728210449 L 112.60399627685547 -18.370000839233395 L 112.51348114013672 -18.431999206542965 L 112.24314880371094 -18.61716842651367 L 112.19342041015625 -18.651229858398434 M 109.4000015258789 -19.084999084472653 L 109.40917205810547 -18.431999206542965 L 109.41200256347656 -18.23100090026855 L 109.40499877929688 -18.19400024414062 L 109.70700073242188 -17.75900077819824 L 109.89228057861328 -17.77493858337402 L 109.89299774169922 -17.77499961853027 L 110.06099700927734 -17.972999572753903 L 110.1449966430664 -18.07160377502441 L 110.14533233642578 -18.072000503540036 L 110.14733123779297 -18.30999946594238 L 110.14852905273438 -18.431999206542965 L 110.1520004272461 -18.7859992980957 L 110.13999938964844 -19.19400024414062 L 110.12876892089844 -19.364860534667965 L 110.1227798461914 -19.455999374389645 L 110.11699676513672 -19.544000625610348 L 110.11199951171875 -20.063999176025387 L 109.87000274658203 -20.350000381469723 L 109.37200164794922 -19.99600028991699 L 109.37300109863281 -19.565000534057614 L 109.3791275024414 -19.455999374389645 L 109.4000015258789 -19.084999084472653 M 33.547000885009766 26.430000305175774 L 32.768001556396484 26.430000305175774 L 29.496999740600586 26.430000305175774 L 15.496999740600586 26.430000305175774 L 10.496000289916992 26.430000305175774 L 0 26.430000305175774 L -6.129000186920166 26.430000305175774 L -6.129000186920166 21.73500061035156 L -16.384000778198242 21.73500061035156 L -20.128999710083008 21.73500061035156 L -20.128999710083008 26.430000305175774 L -22.503999710083008 26.430000305175774 L -27.503999710083008 26.430000305175774 L -32.768001556396484 26.430000305175774 L -49.152000427246094 26.430000305175774 L -59.80400085449219 26.430000305175774 L -59.80400085449219 23.204000473022457 L -60.50400161743164 23.204000473022457 L -65.50399780273438 23.204000473022457 L -65.53600311279297 23.204000473022457 L -66.4540023803711 23.204000473022457 L -66.4540023803711 24.57600021362304 L -66.4540023803711 26.430000305175774 L -67.35399627685547 26.430000305175774 L -67.35399627685547 29.226999282836907 L -66.4540023803711 29.226999282836907 L -66.4540023803711 32.76800155639648 L -66.4540023803711 35.49000167846679 L -65.53600311279297 35.49000167846679 L -64.62899780273438 35.49000167846679 L -64.62899780273438 36.68899917602538 L -61.62900161743164 36.68899917602538 L -61.62900161743164 35.49000167846679 L -59.80400085449219 35.49000167846679 L -59.80400085449219 32.76800155639648 L -59.80400085449219 31.024999618530266 L -49.152000427246094 31.024999618530266 L -32.768001556396484 31.024999618530266 L -27.503999710083008 31.024999618530266 L -22.503999710083008 31.024999618530266 L -20.128999710083008 31.024999618530266 L -20.128999710083008 32.76800155639648 L -20.128999710083008 35.72000122070312 L -16.384000778198242 35.72000122070312 L -8.31222915649414 35.72000122070312 L -8.286859512329102 35.72000122070312 L -8.192000389099121 35.72000122070312 L -6.129000186920166 35.72000122070312 L -6.129000186920166 32.76800155639648 L -6.129000186920166 31.024999618530266 L 0 31.024999618530266 L 10.496000289916992 31.024999618530266 L 15.496999740600586 31.024999618530266 L 29.496999740600586 31.024999618530266 L 32.768001556396484 31.024999618530266 L 33.547000885009766 31.024999618530266 L 33.547000885009766 32.76800155639648 L 33.547000885009766 35.49000167846679 L 35.37200164794922 35.49000167846679 L 35.37200164794922 36.68899917602538 L 38.37200164794922 36.68899917602538 L 38.37200164794922 35.49000167846679 L 40.196998596191406 35.49000167846679 L 40.196998596191406 32.76800155639648 L 40.196998596191406 29.226999282836907 L 41.09700012207031 29.226999282836907 L 41.09700012207031 26.430000305175774 L 40.196998596191406 26.430000305175774 L 40.196998596191406 24.57600021362304 L 40.196998596191406 23.204000473022457 L 34.49700164794922 23.204000473022457 L 33.547000885009766 23.204000473022457 L 33.547000885009766 24.57600021362304 L 33.547000885009766 26.430000305175774 M 121.49299621582031 -19.778999328613278 L 121.48100280761719 -20.184000015258786 L 121.38800048828125 -20.33600044250488 L 120.83200073242188 -20.20930480957031 L 120.77799987792969 -20.197000503540036 L 120.75867462158203 -19.76381111145019 L 120.74933624267578 -19.547000885009762 L 120.75292205810547 -19.455999374389645 L 120.76532745361328 -19.14113616943359 L 120.77300262451172 -18.937999725341793 L 120.78654479980469 -18.431999206542965 L 120.79299926757812 -18.190999984741207 L 120.822998046875 -17.986000061035153 L 120.83200073242188 -17.983079910278317 L 121.38099670410156 -17.805000305175778 L 121.54694366455078 -17.763013839721676 L 121.63033294677734 -17.74200057983398 L 121.87625122070312 -17.769990921020504 L 121.9990005493164 -17.784000396728512 L 122.34100341796875 -17.94400024414062 L 122.54400634765625 -18.188802719116207 L 122.54499816894531 -18.190000534057614 L 122.61048889160156 -18.431999206542965 L 122.6456298828125 -18.561876296997067 L 122.69633483886719 -18.747999191284176 L 122.68365478515625 -18.859407424926754 L 122.65899658203125 -19.08200073242187 L 122.65817260742188 -19.083398818969723 L 122.52457427978516 -19.30987167358398 L 122.49500274658203 -19.36000061035156 L 122.37284088134766 -19.455999374389645 L 122.06999969482422 -19.69400024414062 L 121.73100280761719 -19.7859992980957 L 121.49299621582031 -19.778999328613278 M 106.82709503173828 -18.431999206542965 L 106.49600219726562 -18.77293014526367 L 105.14700317382812 -20.162000656127926 L 104.11407470703125 -19.16085815429687 L 103.74972534179688 -18.807716369628903 L 103.36207580566406 -18.431999206542965 L 103.26200103759766 -18.334999084472653 L 105.08100128173828 -16.462999343872067 L 106.49600219726562 -17.835189819335934 L 106.96499633789062 -18.29000091552734 L 106.82709503173828 -18.431999206542965 M 102.65599822998047 -20.662000656127926 L 102.83277893066406 -20.479999542236325 L 103.13411712646484 -20.16976165771484 L 103.60399627685547 -19.686000823974606 L 104.4229965209961 -20.479999542236325 L 104.58699798583984 -20.63899993896484 L 103.63800048828125 -21.61499977111816 L 102.65599822998047 -20.662000656127926 M 123.75700378417969 -6.142000198364256 L 122.87999725341797 -6.142000198364256 L 114.68800354003906 -6.142000198364256 L 109.75700378417969 -6.142000198364256 L 109.75700378417969 1.1102230246251565e-16 L 109.75700378417969 7.842000007629393 L 123.75700378417969 7.842000007629393 L 123.75700378417969 1.1102230246251565e-16 L 123.75700378417969 -4.09600019454956 L 123.75700378417969 -5.119999885559081 L 123.75700378417969 -6.142000198364256 M 109.58533477783203 35.73199844360351 L 114.25200653076172 35.732002258300774 L 114.2596435546875 32.76800155639648 L 114.2760009765625 26.41577720642089 L 114.2760009765625 21.75099945068359 L 109.75700378417969 21.75099945068359 L 100.2760009765625 21.75099945068359 L 100.2760009765625 32.76800155639648 L 100.2760009765625 35.73199844360351 L 100.2760009765625 35.73600006103515 L 106.49600219726562 35.733325958251946 L 109.58533477783203 35.73199844360351 M 0.9959999918937683 -16.22200012207031 L 0 -16.22200012207031 L -13.003999710083008 -16.22200012207031 L -13.003999710083008 -2.2379999160766597 L 0 -2.2379999160766597 L 0.9959999918937683 -2.2379999160766597 L 0.9959999918937683 -16.22200012207031 M -27.503999710083008 2.7569999694824214 L -32.768001556396484 2.7569999694824214 L -41.50400161743164 2.7569999694824214 L -41.50400161743164 16.38400077819824 L -41.50400161743164 16.740999221801754 L -32.768001556396484 16.740999221801754 L -27.503999710083008 16.740999221801754 L -27.503999710083008 16.38400077819824 L -27.503999710083008 2.7569999694824214 M -65.50399780273438 2.7569999694824214 L -65.53600311279297 2.7569999694824214 L -79.50399780273438 2.7569999694824214 L -79.50399780273438 16.38400077819824 L -79.50399780273438 16.740999221801754 L -65.53600311279297 16.740999221801754 L -65.50399780273438 16.740999221801754 L -65.50399780273438 16.38400077819824 L -65.50399780273438 2.7569999694824214 M -74.75399780273438 -21.21599960327148 L -65.53600311279297 -21.21599960327148 L -60.75400161743164 -21.21599960327148 L -60.75400161743164 -32.76800155639648 L -60.75400161743164 -35.20100021362304 L -65.53600311279297 -35.20100021362304 L -74.75399780273438 -35.20100021362304 L -74.75399780273438 -32.76800155639648 L -74.75399780273438 -21.21599960327148 M -70.00399780273438 -2.2379999160766597 L -65.53600311279297 -2.2379999160766597 L -56.00400161743164 -2.2379999160766597 L -56.00400161743164 -16.22200012207031 L -65.53600311279297 -16.22200012207031 L -70.00399780273438 -16.22200012207031 L -70.00399780273438 -2.2379999160766597 M -75.00399780273438 24.57600021362304 L -75.00399780273438 23.204000473022457 L -75.00399780273438 21.73500061035156 L -81.91999816894531 21.73500061035156 L -84.50399780273438 21.73500061035156 L -89.00499725341797 21.73500061035156 L -89.00499725341797 32.76800155639648 L -89.00499725341797 35.72000122070312 L -81.91999816894531 35.72000122070312 L -75.00399780273438 35.72000122070312 L -75.00399780273438 35.49000167846679 L -75.00399780273438 32.76800155639648 L -75.00399780273438 26.430000305175774 L -75.00399780273438 24.57600021362304 M -94.00499725341797 32.76800155639648 L -94.00499725341797 21.73500061035156 L -98.30400085449219 21.73500061035156 L -98.50499725341797 21.73500061035156 L -108.00499725341797 21.73500061035156 L -108.00499725341797 32.76800155639648 L -108.00499725341797 35.72000122070312 L -103.11746215820312 35.72000122070312 L -98.30400085449219 35.72000122070312 L -94.00499725341797 35.72000122070312 L -94.00499725341797 35.01403427124023 L -94.00499725341797 32.76800155639648 M 131.26300048828125 -23.103000640869137 L 131.26300048828125 -37.0979995727539 L 131.07200622558594 -37.0979995727539 L 102.39099884033203 -37.0979995727539 L 102.39099884033203 -32.76800155639648 L 102.39099884033203 -24.57600021362304 L 102.39099884033203 -23.103000640869137 L 105.17127990722656 -23.103000640869137 L 106.49600219726562 -23.103000640869137 L 114.68800354003906 -23.103000640869137 L 122.87999725341797 -23.103000640869137 L 125.376708984375 -23.103000640869137 L 131.07200622558594 -23.103000640869137 L 131.26300048828125 -23.103000640869137 M 131.07200622558594 35.73600006103515 L 133.25599670410156 35.73600006103515 L 133.25599670410156 21.75099945068359 L 131.07200622558594 21.75099945068359 L 119.25599670410156 21.75099945068359 L 119.25599670410156 32.76800155639648 L 119.25599670410156 35.73600006103515 L 131.07200622558594 35.73600006103515 M 102.75299835205078 -18.874000549316403 L 103.23400115966797 -19.339000701904293 L 102.7699966430664 -19.8169994354248 L 102.4000015258789 -19.45853805541992 L 102.28900146484375 -19.350999832153317 L 102.4000015258789 -19.236890792846676 L 102.75299835205078 -18.874000549316403 M 90.11199951171875 -35.20100021362304 L 89.31278991699219 -35.20100021362304 L 89.31005859375 -35.20100021362304 L 81.91999816894531 -35.20100021362304 L 77.24700164794922 -35.20100021362304 L 77.24700164794922 -32.76800155639648 L 77.24700164794922 -21.21599960327148 L 91.24700164794922 -21.21599960327148 L 91.24700164794922 -32.76800155639648 L 91.24700164794922 -35.20100021362304 L 90.11199951171875 -35.20100021362304 M 65.53600311279297 -35.20100021362304 L 58.24700164794922 -35.20100021362304 L 58.24700164794922 -32.76800155639648 L 58.24700164794922 -21.21599960327148 L 65.53600311279297 -21.21599960327148 L 72.24700164794922 -21.21599960327148 L 72.24700164794922 -32.76800155639648 L 72.24700164794922 -35.20100021362304 L 65.53600311279297 -35.20100021362304 M 70.12200164794922 -2.2379999160766597 L 84.12200164794922 -2.2379999160766597 L 84.12200164794922 -16.22200012207031 L 70.12200164794922 -16.22200012207031 L 70.12200164794922 -2.2379999160766597 M 67.51499938964844 2.7569999694824214 L 65.53600311279297 2.7569999694824214 L 53.51499938964844 2.7569999694824214 L 53.51499938964844 16.38400077819824 L 53.51499938964844 16.740999221801754 L 65.53600311279297 16.740999221801754 L 67.51499938964844 16.740999221801754 L 67.51499938964844 16.38400077819824 L 67.51499938964844 2.7569999694824214 M 74.8290023803711 16.38400077819824 L 74.8290023803711 16.740999221801754 L 88.8290023803711 16.740999221801754 L 88.8290023803711 16.38400077819824 L 88.8290023803711 2.7569999694824214 L 74.8290023803711 2.7569999694824214 L 74.8290023803711 16.38400077819824 M 74.87200164794922 21.73500061035156 L 74.87200164794922 32.76800155639648 L 74.87200164794922 35.72000122070312 L 81.91999816894531 35.72000122070312 L 88.87200164794922 35.72000122070312 L 88.87200164794922 32.76800155639648 L 88.87200164794922 21.73500061035156 L 88.8290023803711 21.73500061035156 L 74.87200164794922 21.73500061035156 M 39.24700164794922 -35.20100021362304 L 39.24700164794922 -32.76800155639648 L 39.24700164794922 -21.21599960327148 L 53.24700164794922 -21.21599960327148 L 53.24700164794922 -32.76800155639648 L 53.24700164794922 -35.20100021362304 L 39.24700164794922 -35.20100021362304 M 32.768001556396484 -35.20100021362304 L 20.246999740600586 -35.20100021362304 L 20.246999740600586 -32.76800155639648 L 20.246999740600586 -21.21599960327148 L 32.768001556396484 -21.21599960327148 L 34.24700164794922 -21.21599960327148 L 34.24700164794922 -32.76800155639648 L 34.24700164794922 -35.20100021362304 L 32.768001556396484 -35.20100021362304 M 57.99700164794922 -2.2379999160766597 L 57.99700164794922 -16.22200012207031 L 49.152000427246094 -16.22200012207031 L 43.99700164794922 -16.22200012207031 L 43.99700164794922 -2.2379999160766597 L 49.152000427246094 -2.2379999160766597 L 57.99700164794922 -2.2379999160766597 M 38.99700164794922 -2.2379999160766597 L 38.99700164794922 -16.22200012207031 L 32.768001556396484 -16.22200012207031 L 24.996999740600586 -16.22200012207031 L 24.996999740600586 -2.2379999160766597 L 32.768001556396484 -2.2379999160766597 L 38.99700164794922 -2.2379999160766597 M 15.246999740600586 -35.20100021362304 L 8.192000389099121 -35.20100021362304 L 1.246000051498413 -35.20100021362304 L 1.246000051498413 -32.76800155639648 L 1.246000051498413 -21.21599960327148 L 15.246999740600586 -21.21599960327148 L 15.246999740600586 -32.76800155639648 L 15.246999740600586 -35.20100021362304 M 19.996999740600586 -2.2379999160766597 L 19.996999740600586 -16.22200012207031 L 16.384000778198242 -16.22200012207031 L 5.995999813079834 -16.22200012207031 L 5.995999813079834 -2.2379999160766597 L 16.384000778198242 -2.2379999160766597 L 19.996999740600586 -2.2379999160766597 M 34.49700164794922 16.38400077819824 L 34.49700164794922 16.740999221801754 L 40.196998596191406 16.740999221801754 L 48.49700164794922 16.740999221801754 L 48.49700164794922 16.38400077819824 L 48.49700164794922 2.7569999694824214 L 34.49700164794922 2.7569999694824214 L 34.49700164794922 16.38400077819824 M 65.12200164794922 21.73500061035156 L 53.51499938964844 21.73500061035156 L 51.12200164794922 21.73500061035156 L 51.12200164794922 32.76800155639648 L 51.12200164794922 35.72000122070312 L 65.12200164794922 35.72000122070312 L 65.12200164794922 32.76800155639648 L 65.12200164794922 21.73500061035156 M 15.496999740600586 16.38400077819824 L 15.496999740600586 16.740999221801754 L 29.496999740600586 16.740999221801754 L 29.496999740600586 16.38400077819824 L 29.496999740600586 2.7569999694824214 L 15.496999740600586 2.7569999694824214 L 15.496999740600586 16.38400077819824 M 10.496000289916992 16.740999221801754 L 10.496000289916992 16.38400077819824 L 10.496000289916992 2.7569999694824214 L 0 2.7569999694824214 L -3.503999948501587 2.7569999694824214 L -3.503999948501587 16.38400077819824 L -3.503999948501587 16.740999221801754 L 0 16.740999221801754 L 10.496000289916992 16.740999221801754 M -3.753999948501587 -35.20100021362304 L -8.192000389099121 -35.20100021362304 L -8.228717803955078 -35.20100021362304 L -8.234033584594727 -35.20100021362304 L -16.384000778198242 -35.20100021362304 L -17.753999710083008 -35.20100021362304 L -17.753999710083008 -32.76800155639648 L -17.753999710083008 -21.21599960327148 L -3.753999948501587 -21.21599960327148 L -3.753999948501587 -32.76800155639648 L -3.753999948501587 -35.20100021362304 M -22.753999710083008 -32.76800155639648 L -22.753999710083008 -35.20100021362304 L -32.768001556396484 -35.20100021362304 L -36.75400161743164 -35.20100021362304 L -36.75400161743164 -32.76800155639648 L -36.75400161743164 -21.21599960327148 L -32.768001556396484 -21.21599960327148 L -22.753999710083008 -21.21599960327148 L -22.753999710083008 -32.76800155639648 M -18.003999710083008 -2.2379999160766597 L -18.003999710083008 -16.22200012207031 L -32.00400161743164 -16.22200012207031 L -32.00400161743164 -2.2379999160766597 L -18.003999710083008 -2.2379999160766597 M -55.75400161743164 -32.76800155639648 L -55.75400161743164 -21.21599960327148 L -41.75400161743164 -21.21599960327148 L -41.75400161743164 -32.76800155639648 L -41.75400161743164 -35.20100021362304 L -55.75400161743164 -35.20100021362304 L -55.75400161743164 -32.76800155639648 M -49.152000427246094 -2.2379999160766597 L -37.00400161743164 -2.2379999160766597 L -37.00400161743164 -16.22200012207031 L -49.152000427246094 -16.22200012207031 L -51.00400161743164 -16.22200012207031 L -51.00400161743164 -2.2379999160766597 L -49.152000427246094 -2.2379999160766597 M -22.503999710083008 2.7569999694824214 L -22.503999710083008 16.38400077819824 L -22.503999710083008 16.740999221801754 L -16.384000778198242 16.740999221801754 L -8.503999710083008 16.740999221801754 L -8.503999710083008 16.38400077819824 L -8.503999710083008 2.7569999694824214 L -22.503999710083008 2.7569999694824214 M -46.50400161743164 16.38400077819824 L -46.50400161743164 2.7569999694824214 L -60.50400161743164 2.7569999694824214 L -60.50400161743164 16.38400077819824 L -60.50400161743164 16.740999221801754 L -59.80400085449219 16.740999221801754 L -49.152000427246094 16.740999221801754 L -46.50400161743164 16.740999221801754 L -46.50400161743164 16.38400077819824 M -81.91999816894531 -35.20100021362304 L -89.2741928100586 -35.20100021362304 L -90.11199951171875 -35.20100021362304 L -93.75499725341797 -35.20100021362304 L -93.75499725341797 -32.76800155639648 L -93.75499725341797 -21.21599960327148 L -79.75399780273438 -21.21599960327148 L -79.75399780273438 -32.76800155639648 L -79.75399780273438 -35.20100021362304 L -81.91999816894531 -35.20100021362304 M -75.00399780273438 -2.2379999160766597 L -75.00399780273438 -16.22200012207031 L -81.91999816894531 -16.22200012207031 L -89.00499725341797 -16.22200012207031 L -89.00499725341797 -2.2379999160766597 L -81.91999816894531 -2.2379999160766597 L -75.00399780273438 -2.2379999160766597 M -94.00499725341797 -16.22200012207031 L -98.30400085449219 -16.22200012207031 L -108.00499725341797 -16.22200012207031 L -108.00499725341797 -2.2379999160766597 L -98.30400085449219 -2.2379999160766597 L -94.00499725341797 -2.2379999160766597 L -94.00499725341797 -16.22200012207031 M -106.49600219726562 -35.20100021362304 L -112.75499725341797 -35.20100021362304 L -112.75499725341797 -32.76800155639648 L -112.75499725341797 -21.21599960327148 L -98.75499725341797 -21.21599960327148 L -98.75499725341797 -32.76800155639648 L -98.75499725341797 -35.20100021362304 L -103.224365234375 -35.20100021362304 L -103.22959899902344 -35.20100021362304 L -106.49600219726562 -35.20100021362304 M -117.75499725341797 -35.20100021362304 L -131.07200622558594 -35.20100021362304 L -131.7550048828125 -35.20100021362304 L -131.7550048828125 -21.21599960327148 L -131.07200622558594 -21.21599960327148 L -117.75499725341797 -21.21599960327148 L -117.75499725341797 -32.76800155639648 L -117.75499725341797 -35.20100021362304 M -129.3800048828125 -2.2379999160766597 L -115.37999725341797 -2.2379999160766597 L -115.37999725341797 -16.22200012207031 L -129.3800048828125 -16.22200012207031 L -129.3800048828125 -2.2379999160766597 M -84.50399780273438 16.740999221801754 L -84.50399780273438 16.38400077819824 L -84.50399780273438 2.7569999694824214 L -98.30400085449219 2.7569999694824214 L -98.50499725341797 2.7569999694824214 L -98.50499725341797 16.38400077819824 L -98.50499725341797 16.740999221801754 L -98.30400085449219 16.740999221801754 L -84.50399780273438 16.740999221801754 M -124.62999725341797 16.38400077819824 L -124.62999725341797 16.740999221801754 L -114.68800354003906 16.740999221801754 L -110.62999725341797 16.740999221801754 L -110.62999725341797 16.38400077819824 L -110.62999725341797 2.7569999694824214 L -124.62999725341797 2.7569999694824214 L -124.62999725341797 16.38400077819824 M -115.37999725341797 21.73500061035156 L -124.62999725341797 21.73500061035156 L -129.3800048828125 21.73500061035156 L -129.3800048828125 32.76800155639648 L -129.3800048828125 35.72000122070312 L -115.37999725341797 35.72000122070312 L -115.37999725341797 32.76800155639648 L -115.37999725341797 21.73500061035156 M 103.34366607666016 40.713001251220696 L 103.34366607666016 40.713001251220696 z" fill="none" stroke="rgb(255,0,0)" stroke-width="0.001mm" />
</svg>