<?xml version="1.0" standalone="no"?>
<!DOCTYPE svg PUBLIC "-//W3C//DTD SVG 1.1//EN"
  "http://www.w3.org/Graphics/SVG/1.1/DTD/svg11.dtd">
<svg width="277.8999938964844mm" height="20.01199913024902mm" viewBox="-138.9499969482422 -10.00599956512451 277.8999938964844 20.01199913024902" xmlns="http://www.w3.org/2000/svg" version="1.1">
	<title>svgOutput</title>
	<desc>made with tinkercad</desc>
<path d="M 137.93699645996094 -6.544000148773192 L 137.9499969482422 -6.276000022888182 L 137.9499969482422 1.1102230246251565e-16 L 137.9499969482422 6.276000022888182 L 137.93699645996094 6.544000148773192 L 137.8979949951172 6.809000015258787 L 137.83200073242188 7.068999767303465 L 137.74200439453125 7.321000099182127 L 137.6280059814453 7.563000202178953 L 137.49000549316406 7.79300022125244 L 137.3300018310547 8.00800037384033 L 137.14999389648438 8.206999778747557 L 136.95199584960938 8.387000083923338 L 136.73599243164062 8.545999526977537 L 136.5070037841797 8.684000015258787 L 136.26400756835938 8.798000335693358 L 136.01199340820312 8.888999938964842 L 135.7519989013672 8.95400047302246 L 135.48699951171875 8.993000030517576 L 135.218994140625 9.00599956512451 L 131.07200622558594 9.00599956512451 L 98.30400085449219 9.00599956512451 L 97.53609466552734 9.00599956512451 L 95.76020050048828 9.00599956512451 L 93.94579315185547 9.00599956512451 L 81.91999816894531 9.00599956512451 L 65.53600311279297 9.00599956512451 L 49.152000427246094 9.00599956512451 L 40.959999084472656 9.00599956512451 L 32.768001556396484 9.00599956512451 L 0 9.00599956512451 L -0.7609055042266846 9.00599956512451 L -2.558475971221924 9.00599956512451 L -4.327523708343506 9.00599956512451 L -16.384000778198242 9.00599956512451 L -32.768001556396484 9.00599956512451 L -49.152000427246094 9.00599956512451 L -49.760475158691406 9.00599956512451 L -51.52952575683594 9.00599956512451 L -53.51759719848633 9.00599956512451 L -55.78310012817383 9.00599956512451 L -58.72023391723633 9.00599956512451 L -62.9178581237793 9.00599956512451 L -65.53600311279297 9.00599956512451 L -81.91999816894531 9.00599956512451 L -83.84808349609375 9.00599956512451 L -88.67835998535156 9.00599956512451 L -91.72054290771484 9.00599956512451 L -94.00318145751953 9.00599956512451 L -98.30400085449219 9.00599956512451 L -99.52020263671875 9.00599956512451 L -101.45992279052734 9.00599956512451 L -103.7510986328125 9.00599956512451 L -131.07200622558594 9.00599956512451 L -135.218994140625 9.00599956512451 L -135.48699951171875 8.993000030517576 L -135.7519989013672 8.95400047302246 L -136.01199340820312 8.888999938964842 L -136.26400756835938 8.798000335693358 L -136.5070037841797 8.684000015258787 L -136.73599243164062 8.545999526977537 L -136.95199584960938 8.387000083923338 L -137.14999389648438 8.206999778747557 L -137.3300018310547 8.00800037384033 L -137.49000549316406 7.79300022125244 L -137.6280059814453 7.563000202178953 L -137.74200439453125 7.321000099182127 L -137.83200073242188 7.068999767303465 L -137.8979949951172 6.809000015258787 L -137.93699645996094 6.544000148773192 L -137.9499969482422 6.276000022888182 L -137.9499969482422 1.1102230246251565e-16 L -137.9499969482422 -6.276000022888182 L -137.93699645996094 -6.544000148773192 L -137.8979949951172 -6.809000015258787 L -137.83200073242188 -7.068999767303465 L -137.74200439453125 -7.321000099182127 L -137.6280059814453 -7.563000202178953 L -137.49000549316406 -7.79300022125244 L -137.3300018310547 -8.00800037384033 L -137.14999389648438 -8.206999778747557 L -136.95199584960938 -8.387000083923338 L -136.73599243164062 -8.545999526977537 L -136.5070037841797 -8.684000015258787 L -136.26400756835938 -8.798000335693358 L -136.01199340820312 -8.888999938964842 L -135.7519989013672 -8.95400047302246 L -135.48699951171875 -8.993000030517576 L -135.218994140625 -9.00599956512451 L -131.07200622558594 -9.00599956512451 L -98.30400085449219 -9.00599956512451 L -81.91999816894531 -9.00599956512451 L -65.53600311279297 -9.00599956512451 L -49.152000427246094 -9.00599956512451 L -32.768001556396484 -9.00599956512451 L -16.384000778198242 -9.00599956512451 L 0 -9.00599956512451 L 1.5806070566177368 -9.00599956512451 L 3.5211496353149414 -9.00599956512451 L 5.813264846801758 -9.00599956512451 L 8.751558303833008 -9.00599956512451 L 12.950790405273438 -9.00599956512451 L 32.768001556396484 -9.00599956512451 L 49.152000427246094 -9.00599956512451 L 65.53600311279297 -9.00599956512451 L 81.91999816894531 -9.00599956512451 L 98.30400085449219 -9.00599956512451 L 99.85391998291016 -9.00599956512451 L 101.81815338134766 -9.00599956512451 L 104.11026763916016 -9.00599956512451 L 107.0485610961914 -9.00599956512451 L 111.24778747558594 -9.00599956512451 L 131.07200622558594 -9.00599956512451 L 135.218994140625 -9.00599956512451 L 135.48699951171875 -8.993000030517576 L 135.7519989013672 -8.95400047302246 L 136.01199340820312 -8.888999938964842 L 136.26400756835938 -8.798000335693358 L 136.5070037841797 -8.684000015258787 L 136.73599243164062 -8.545999526977537 L 136.95199584960938 -8.387000083923338 L 137.14999389648438 -8.206999778747557 L 137.3300018310547 -8.00800037384033 L 137.49000549316406 -7.79300022125244 L 137.6280059814453 -7.563000202178953 L 137.74200439453125 -7.321000099182127 L 137.83200073242188 -7.068999767303465 L 137.8979949951172 -6.809000015258787 L 137.93699645996094 -6.544000148773192 M 98.36699676513672 -1.4349999427795406 L 98.30400085449219 -1.4860864877700801 L 98.05500030517578 -1.6879999637603755 L 97.6989974975586 -1.876000046730041 L 97.31300354003906 -1.9919999837875362 L 96.91100311279297 -2.030999898910522 L 96.51000213623047 -1.9919999837875362 L 96.1240005493164 -1.876000046730041 L 95.76799774169922 -1.6879999637603755 L 95.45600128173828 -1.4349999427795406 L 95.19999694824219 -1.126999974250793 L 95.01000213623047 -0.7760000228881833 L 94.89299774169922 -0.39500001072883584 L 94.85320281982422 1.1102230246251565e-16 L 94.85299682617188 0.002000000094995013 L 94.89299774169922 0.39899998903274536 L 95.01000213623047 0.7799999713897704 L 95.19999694824219 1.13100004196167 L 95.45600128173828 1.4390000104904175 L 95.76799774169922 1.692000031471252 L 96.1240005493164 1.879999995231628 L 96.51000213623047 1.9960000514984126 L 96.91100311279297 2.035000085830688 L 97.31300354003906 1.9960000514984126 L 97.6989974975586 1.879999995231628 L 98.05500030517578 1.692000031471252 L 98.30400085449219 1.490086555480957 L 98.36699676513672 1.4390000104904175 L 98.62300109863281 1.13100004196167 L 98.81300354003906 0.7799999713897704 L 98.93000030517578 0.39899998903274536 L 98.96900177001953 0.002000000094995013 L 98.93000030517578 -0.39500001072883584 L 98.81300354003906 -0.7760000228881833 L 98.62300109863281 -1.126999974250793 L 98.36699676513672 -1.4349999427795406 M 46.98400115966797 -1.9919999837875362 L 46.58300018310547 -2.030999898910522 L 46.180999755859375 -1.9919999837875362 L 45.79499816894531 -1.876000046730041 L 45.43899917602539 -1.6879999637603755 L 45.12699890136719 -1.4349999427795406 L 44.87099838256836 -1.126999974250793 L 44.680999755859375 -0.7760000228881833 L 44.56399917602539 -0.39500001072883584 L 44.524200439453125 1.1102230246251565e-16 L 44.52399826049805 0.002000000094995013 L 44.56399917602539 0.39899998903274536 L 44.680999755859375 0.7799999713897704 L 44.87099838256836 1.13100004196167 L 45.055999755859375 1.3535780906677246 L 45.12699890136719 1.4390000104904175 L 45.43899917602539 1.692000031471252 L 45.79499816894531 1.879999995231628 L 46.180999755859375 1.9960000514984126 L 46.58300018310547 2.035000085830688 L 46.98400115966797 1.9960000514984126 L 47.369998931884766 1.879999995231628 L 47.72600173950195 1.692000031471252 L 48.03799819946289 1.4390000104904175 L 48.29399871826172 1.13100004196167 L 48.48400115966797 0.7799999713897704 L 48.60100173950195 0.39899998903274536 L 48.64099884033203 0.002000000094995013 L 48.64079666137695 1.1102230246251565e-16 L 48.60100173950195 -0.39500001072883584 L 48.48400115966797 -0.7760000228881833 L 48.29399871826172 -1.126999974250793 L 48.03799819946289 -1.4349999427795406 L 47.72600173950195 -1.6879999637603755 L 47.369998931884766 -1.876000046730041 L 46.98400115966797 -1.9919999837875362 M 0.07000000029802322 -1.4349999427795406 L 0 -1.4917628765106197 L -0.24199999868869781 -1.6879999637603755 L -0.5979999899864197 -1.876000046730041 L -0.984000027179718 -1.9919999837875362 L -1.3849999904632568 -2.030999898910522 L -1.7869999408721924 -1.9919999837875362 L -2.1730000972747803 -1.876000046730041 L -2.5290000438690186 -1.6879999637603755 L -2.8410000801086426 -1.4349999427795406 L -3.0959999561309814 -1.126999974250793 L -3.2869999408721924 -0.7760000228881833 L -3.4040000438690186 -0.39500001072883584 L -3.4428036212921143 1.1102230246251565e-16 L -3.443000078201294 0.002000000094995013 L -3.4040000438690186 0.39899998903274536 L -3.2869999408721924 0.7799999713897704 L -3.0959999561309814 1.13100004196167 L -2.8410000801086426 1.4390000104904175 L -2.5290000438690186 1.692000031471252 L -2.1730000972747803 1.879999995231628 L -1.7869999408721924 1.9960000514984126 L -1.3849999904632568 2.035000085830688 L -0.984000027179718 1.9960000514984126 L -0.5979999899864197 1.879999995231628 L -0.24199999868869781 1.692000031471252 L 2.300698185837922e-16 1.495762825012207 L 0.07000000029802322 1.4390000104904175 L 0.32600000500679016 1.13100004196167 L 0.515999972820282 0.7799999713897704 L 0.6330000162124634 0.39899998903274536 L 0.6729999780654907 0.002000000094995013 L 0.6330000162124634 -0.39500001072883584 L 0.515999972820282 -0.7760000228881833 L 0.32600000500679016 -1.126999974250793 L 0.07000000029802322 -1.4349999427795406 M -48.185001373291016 -1.9919999837875362 L -48.58700180053711 -2.030999898910522 L -48.987998962402344 -1.9919999837875362 L -49.152000427246094 -1.9428423643112178 L -49.375 -1.876000046730041 L -49.72999954223633 -1.6879999637603755 L -50.04199981689453 -1.4349999427795406 L -50.29800033569336 -1.126999974250793 L -50.487998962402344 -0.7760000228881833 L -50.60599899291992 -0.39500001072883584 L -50.64500045776367 0.002000000094995013 L -50.60599899291992 0.39899998903274536 L -50.487998962402344 0.7799999713897704 L -50.29800033569336 1.13100004196167 L -50.04199981689453 1.4390000104904175 L -49.72999954223633 1.692000031471252 L -49.375 1.879999995231628 L -49.152000427246094 1.9468424320220943 L -48.987998962402344 1.9960000514984126 L -48.58700180053711 2.035000085830688 L -48.185001373291016 1.9960000514984126 L -47.79899978637695 1.879999995231628 L -47.44300079345703 1.692000031471252 L -47.13199996948242 1.4390000104904175 L -46.875999450683594 1.13100004196167 L -46.685001373291016 0.7799999713897704 L -46.56800079345703 0.39899998903274536 L -46.52899932861328 0.002000000094995013 L -46.529197692871094 1.1102230246251565e-16 L -46.56800079345703 -0.39500001072883584 L -46.685001373291016 -0.7760000228881833 L -46.875999450683594 -1.126999974250793 L -47.13199996948242 -1.4349999427795406 L -47.44300079345703 -1.6879999637603755 L -47.79899978637695 -1.876000046730041 L -48.185001373291016 -1.9919999837875362 M -96.15299987792969 -1.9919999837875362 L -96.55500030517578 -2.030999898910522 L -96.95600128173828 -1.9919999837875362 L -97.34200286865234 -1.876000046730041 L -97.697998046875 -1.6879999637603755 L -98.01000213623047 -1.4349999427795406 L -98.26599884033203 -1.126999974250793 L -98.30400085449219 -1.056800007820129 L -98.45600128173828 -0.7760000228881833 L -98.572998046875 -0.39500001072883584 L -98.61299896240234 0.002000000094995013 L -98.572998046875 0.39899998903274536 L -98.45600128173828 0.7799999713897704 L -98.30400085449219 1.0607999563217163 L -98.26599884033203 1.13100004196167 L -98.01000213623047 1.4390000104904175 L -97.697998046875 1.692000031471252 L -97.34200286865234 1.879999995231628 L -96.95600128173828 1.9960000514984126 L -96.55500030517578 2.035000085830688 L -96.15299987792969 1.9960000514984126 L -95.76699829101562 1.879999995231628 L -95.41100311279297 1.692000031471252 L -95.0989990234375 1.4390000104904175 L -94.84300231933594 1.13100004196167 L -94.65299987792969 0.7799999713897704 L -94.53600311279297 0.39899998903274536 L -94.49700164794922 0.002000000094995013 L -94.49720001220703 1.1102230246251565e-16 L -94.53600311279297 -0.39500001072883584 L -94.65299987792969 -0.7760000228881833 L -94.84300231933594 -1.126999974250793 L -95.0989990234375 -1.4349999427795406 L -95.41100311279297 -1.6879999637603755 L -95.76699829101562 -1.876000046730041 L -96.15299987792969 -1.9919999837875362 z" fill="none" stroke="rgb(255,0,0)" stroke-width="0.001mm" />
</svg>