<?xml version="1.0" standalone="no"?>
<!DOCTYPE svg PUBLIC "-//W3C//DTD SVG 1.1//EN"
  "http://www.w3.org/Graphics/SVG/1.1/DTD/svg11.dtd">
<svg width="290.3999938964844mm" height="100.9960021972656mm" viewBox="-145.1999969482422 -50.4980010986328 290.3999938964844 100.9960021972656" xmlns="http://www.w3.org/2000/svg" version="1.1">
	<title>svgOutput</title>
	<desc>made with tinkercad</desc>
<path d="M 141.70899963378906 -49.19100189208983 L 141.79112243652344 -49.15200042724608 L 142.06700134277344 -49.02099990844725 L 142.40699768066406 -48.81800079345702 L 142.72500610351562 -48.58200073242186 L 143.01800537109375 -48.31600189208983 L 143.28399658203125 -48.02299880981444 L 143.36000061035156 -47.92027282714843 L 143.52000427246094 -47.70399856567382 L 143.7239990234375 -47.36500167846679 L 143.89300537109375 -47.006999969482415 L 144.0260009765625 -46.6339988708496 L 144.1219940185547 -46.24999999999999 L 144.18099975585938 -45.85800170898437 L 144.1999969482422 -45.463001251220696 L 144.1999969482422 -45.05599975585937 L 144.1999969482422 -40.95999908447265 L 144.1999969482422 -32.76800155639648 L 144.1999969482422 1.1102230246251565e-16 L 144.1999969482422 32.76800155639648 L 144.1999969482422 40.95999908447265 L 144.1999969482422 44.7028465270996 L 144.1999969482422 45.05599975585937 L 144.1999969482422 45.463001251220696 L 144.18099975585938 45.85800170898437 L 144.1219940185547 46.24999999999999 L 144.0260009765625 46.6339988708496 L 143.89300537109375 47.006999969482415 L 143.7239990234375 47.36500167846679 L 143.52000427246094 47.70399856567382 L 143.36000061035156 47.92027282714843 L 143.28399658203125 48.02299880981444 L 143.01800537109375 48.31600189208983 L 142.72500610351562 48.58200073242186 L 142.40699768066406 48.81800079345702 L 142.06700134277344 49.02099990844725 L 141.79112243652344 49.15200042724608 L 141.70899963378906 49.19100189208983 L 141.33599853515625 49.324001312255845 L 140.95199584960938 49.4199981689453 L 140.56100463867188 49.478000640869126 L 140.1649932861328 49.4980010986328 L 131.07200622558594 49.4980010986328 L 65.53600311279297 49.4980010986328 L 49.152000427246094 49.4980010986328 L 32.768001556396484 49.4980010986328 L 0 49.4980010986328 L -32.768001556396484 49.4980010986328 L -39.305259704589844 49.4980010986328 L -42.49696731567383 49.4980010986328 L -44.5089225769043 49.4980010986328 L -45.831844329833984 49.4980010986328 L -46.9228515625 49.4980010986328 L -47.788230895996094 49.4980010986328 L -48.6497688293457 49.4980010986328 L -49.152000427246094 49.4980010986328 L -65.53600311279297 49.4980010986328 L -131.07200622558594 49.4980010986328 L -140.1649932861328 49.4980010986328 L -140.56100463867188 49.478000640869126 L -140.95199584960938 49.4199981689453 L -141.33599853515625 49.324001312255845 L -141.70899963378906 49.19100189208983 L -141.79112243652344 49.15200042724608 L -142.06700134277344 49.02099990844725 L -142.40699768066406 48.81800079345702 L -142.72500610351562 48.58200073242186 L -143.01800537109375 48.31600189208983 L -143.28399658203125 48.02299880981444 L -143.36000061035156 47.92027282714843 L -143.52000427246094 47.70399856567382 L -143.7239990234375 47.36500167846679 L -143.89300537109375 47.006999969482415 L -144.0260009765625 46.6339988708496 L -144.1219940185547 46.24999999999999 L -144.18099975585938 45.85800170898437 L -144.1999969482422 45.463001251220696 L -144.1999969482422 45.05599975585937 L -144.1999969482422 43.90877532958984 L -144.1999969482422 40.95999908447265 L -144.1999969482422 32.76800155639648 L -144.1999969482422 1.1102230246251565e-16 L -144.1999969482422 -32.76800155639648 L -144.1999969482422 -40.95999908447265 L -144.1999969482422 -42.0414810180664 L -144.1999969482422 -43.130989074707024 L -144.1999969482422 -44.07293701171874 L -144.1999969482422 -44.92706298828124 L -144.1999969482422 -45.05599975585937 L -144.1999969482422 -45.463001251220696 L -144.18099975585938 -45.85800170898437 L -144.1219940185547 -46.24999999999999 L -144.0260009765625 -46.6339988708496 L -143.89300537109375 -47.006999969482415 L -143.7239990234375 -47.36500167846679 L -143.52000427246094 -47.70399856567382 L -143.36000061035156 -47.92027282714843 L -143.28399658203125 -48.02299880981444 L -143.01800537109375 -48.31600189208983 L -142.72500610351562 -48.58200073242186 L -142.40699768066406 -48.81800079345702 L -142.06700134277344 -49.02099990844725 L -141.79112243652344 -49.15200042724608 L -141.70899963378906 -49.19100189208983 L -141.33599853515625 -49.324001312255845 L -140.95199584960938 -49.4199981689453 L -140.56100463867188 -49.478000640869126 L -140.1649932861328 -49.4980010986328 L -131.07200622558594 -49.4980010986328 L -65.53600311279297 -49.4980010986328 L -65.43296813964844 -49.4980010986328 L -58.4010009765625 -49.4980010986328 L -55.29164505004883 -49.4980010986328 L -53.36210632324219 -49.4980010986328 L -52.0951042175293 -49.4980010986328 L -51.06828308105469 -49.4980010986328 L -50.20554733276367 -49.4980010986328 L -49.42645263671875 -49.4980010986328 L -49.152000427246094 -49.4980010986328 L -32.768001556396484 -49.4980010986328 L 0 -49.4980010986328 L 32.768001556396484 -49.4980010986328 L 49.152000427246094 -49.4980010986328 L 65.53600311279297 -49.4980010986328 L 131.07200622558594 -49.4980010986328 L 140.1649932861328 -49.4980010986328 L 140.56100463867188 -49.478000640869126 L 140.95199584960938 -49.4199981689453 L 141.33599853515625 -49.324001312255845 L 141.70899963378906 -49.19100189208983 M 139.85800170898438 -46.34000015258788 L 139.67100524902344 -46.283000946044915 L 139.4980010986328 -46.19100189208984 L 139.3459930419922 -46.06600189208984 L 139.26400756835938 -45.96614456176757 L 139.2220001220703 -45.91500091552734 L 139.1300048828125 -45.74200057983398 L 139.072998046875 -45.55400085449218 L 139.0540008544922 -45.35900115966796 L 139.072998046875 -45.16400146484374 L 139.1300048828125 -44.97700119018554 L 139.2220001220703 -44.80400085449218 L 139.26400756835938 -44.752517700195305 L 139.3459930419922 -44.65200042724609 L 139.4980010986328 -44.52799987792968 L 139.67100524902344 -44.43500137329101 L 139.85800170898438 -44.377998352050774 L 140.0540008544922 -44.35900115966796 L 140.24899291992188 -44.377998352050774 L 140.43600463867188 -44.43500137329101 L 140.60899353027344 -44.52799987792968 L 140.76100158691406 -44.65200042724609 L 140.88499450683594 -44.80400085449218 L 140.9770050048828 -44.97700119018554 L 141.00108337402344 -45.05599975585937 L 141.03399658203125 -45.16400146484374 L 141.0540008544922 -45.35900115966796 L 141.03399658203125 -45.55400085449218 L 140.9770050048828 -45.74200057983398 L 140.88499450683594 -45.91500091552734 L 140.76100158691406 -46.06600189208984 L 140.60899353027344 -46.19100189208984 L 140.43600463867188 -46.283000946044915 L 140.24899291992188 -46.34000015258788 L 140.0540008544922 -46.35900115966796 L 139.85800170898438 -46.34000015258788 M 139.85000610351562 44.31700134277343 L 139.66200256347656 44.3740005493164 L 139.49000549316406 44.46699905395507 L 139.33799743652344 44.59099960327148 L 139.26400756835938 44.681709289550774 L 139.21400451660156 44.74300003051757 L 139.12100219726562 44.91600036621093 L 139.06399536132812 45.10300064086913 L 139.0449981689453 45.29800033569335 L 139.06399536132812 45.49300003051757 L 139.12100219726562 45.68099975585937 L 139.21400451660156 45.85400009155273 L 139.26400756835938 45.91488647460937 L 139.33799743652344 46.00500106811523 L 139.49000549316406 46.13000106811523 L 139.66200256347656 46.222000122070305 L 139.85000610351562 46.278999328613274 L 140.0449981689453 46.29800033569335 L 140.24000549316406 46.278999328613274 L 140.42799377441406 46.222000122070305 L 140.6009979248047 46.13000106811523 L 140.7519989013672 46.00500106811523 L 140.8769989013672 45.85400009155273 L 140.968994140625 45.68099975585937 L 141.0260009765625 45.49300003051757 L 141.0449981689453 45.29800033569335 L 141.0260009765625 45.10300064086913 L 141.0116729736328 45.05599975585937 L 140.968994140625 44.91600036621093 L 140.8769989013672 44.74300003051757 L 140.7519989013672 44.59099960327148 L 140.6009979248047 44.46699905395507 L 140.42799377441406 44.3740005493164 L 140.24000549316406 44.31700134277343 L 140.0449981689453 44.29800033569335 L 139.85000610351562 44.31700134277343 M 47.494998931884766 -46.480998992919915 L 47.30699920654297 -46.423999786376946 L 47.1349983215332 -46.331001281738274 L 47.104000091552734 -46.30570983886718 L 46.983001708984375 -46.20700073242187 L 46.85900115966797 -46.055000305175774 L 46.76599884033203 -45.881999969482415 L 46.70899963378906 -45.69499969482421 L 46.689998626708984 -45.49999999999999 L 46.70899963378906 -45.305000305175774 L 46.76599884033203 -45.11700057983398 L 46.79879379272461 -45.05599975585937 L 46.85900115966797 -44.94400024414062 L 46.983001708984375 -44.791999816894524 L 47.1349983215332 -44.66799926757812 L 47.30699920654297 -44.57600021362304 L 47.494998931884766 -44.51900100708007 L 47.689998626708984 -44.49999999999999 L 47.8849983215332 -44.51900100708007 L 48.073001861572266 -44.57600021362304 L 48.24599838256836 -44.66799926757812 L 48.39699935913086 -44.791999816894524 L 48.52199935913086 -44.94400024414062 L 48.58156204223633 -45.05599975585937 L 48.61399841308594 -45.11700057983398 L 48.67100143432617 -45.305000305175774 L 48.689998626708984 -45.49999999999999 L 48.67100143432617 -45.69499969482421 L 48.61399841308594 -45.881999969482415 L 48.52199935913086 -46.055000305175774 L 48.39699935913086 -46.20700073242187 L 48.24599838256836 -46.331001281738274 L 48.073001861572266 -46.423999786376946 L 47.8849983215332 -46.480998992919915 L 47.689998626708984 -46.49999999999999 L 47.494998931884766 -46.480998992919915 M 45.41400146484375 44.35200119018554 L 45.22700119018555 44.40900039672851 L 45.05400085449219 44.50199890136718 L 44.902000427246094 44.62599945068359 L 44.77799987792969 44.77799987792968 L 44.685001373291016 44.95100021362304 L 44.65355682373047 45.05599975585937 L 44.62900161743164 45.13800048828124 L 44.60900115966797 45.33300018310546 L 44.62900161743164 45.52799987792968 L 44.685001373291016 45.71599960327148 L 44.77799987792969 45.88899993896484 L 44.902000427246094 46.04100036621093 L 45.05400085449219 46.16500091552734 L 45.055999755859375 46.166065216064446 L 45.22700119018555 46.256999969482415 L 45.41400146484375 46.31399917602538 L 45.60900115966797 46.33300018310546 L 45.80400085449219 46.31399917602538 L 45.992000579833984 46.256999969482415 L 46.165000915527344 46.16500091552734 L 46.316001892089844 46.04100036621093 L 46.441001892089844 45.88899993896484 L 46.53300094604492 45.71599960327148 L 46.59000015258789 45.52799987792968 L 46.60900115966797 45.33300018310546 L 46.59000015258789 45.13800048828124 L 46.565006256103516 45.05599975585937 L 46.53300094604492 44.95100021362304 L 46.441001892089844 44.77799987792968 L 46.316001892089844 44.62599945068359 L 46.165000915527344 44.50199890136718 L 45.992000579833984 44.40900039672851 L 45.80400085449219 44.35200119018554 L 45.60900115966797 44.33300018310546 L 45.41400146484375 44.35200119018554 M -49.01100158691406 -46.480998992919915 L -49.152000427246094 -46.43825149536132 L -49.19900131225586 -46.423999786376946 L -49.37099838256836 -46.331001281738274 L -49.52299880981445 -46.20700073242187 L -49.64699935913086 -46.055000305175774 L -49.7400016784668 -45.881999969482415 L -49.797000885009766 -45.69499969482421 L -49.816001892089844 -45.49999999999999 L -49.797000885009766 -45.305000305175774 L -49.7400016784668 -45.11700057983398 L -49.64699935913086 -44.94400024414062 L -49.52299880981445 -44.791999816894524 L -49.37099838256836 -44.66799926757812 L -49.19900131225586 -44.57600021362304 L -49.152000427246094 -44.561748504638665 L -49.01100158691406 -44.51900100708007 L -48.816001892089844 -44.49999999999999 L -48.62099838256836 -44.51900100708007 L -48.43299865722656 -44.57600021362304 L -48.2599983215332 -44.66799926757812 L -48.10900115966797 -44.791999816894524 L -47.98400115966797 -44.94400024414062 L -47.9244384765625 -45.05599975585937 L -47.891998291015625 -45.11700057983398 L -47.834999084472656 -45.305000305175774 L -47.816001892089844 -45.49999999999999 L -47.834999084472656 -45.69499969482421 L -47.891998291015625 -45.881999969482415 L -47.98400115966797 -46.055000305175774 L -48.10900115966797 -46.20700073242187 L -48.2599983215332 -46.331001281738274 L -48.43299865722656 -46.423999786376946 L -48.62099838256836 -46.480998992919915 L -48.816001892089844 -46.49999999999999 L -49.01100158691406 -46.480998992919915 M -49.41400146484375 44.31700134277343 L -49.60200119018555 44.3740005493164 L -49.775001525878906 44.46699905395507 L -49.92599868774414 44.59099960327148 L -50.05099868774414 44.74300003051757 L -50.143001556396484 44.91600036621093 L -50.185672760009766 45.05599975585937 L -50.20000076293945 45.10300064086913 L -50.21900177001953 45.29800033569335 L -50.20000076293945 45.49300003051757 L -50.143001556396484 45.68099975585937 L -50.05099868774414 45.85400009155273 L -49.92599868774414 46.00500106811523 L -49.775001525878906 46.13000106811523 L -49.60200119018555 46.222000122070305 L -49.41400146484375 46.278999328613274 L -49.21900177001953 46.29800033569335 L -49.152000427246094 46.29147338867187 L -49.02399826049805 46.278999328613274 L -48.83700180053711 46.222000122070305 L -48.66400146484375 46.13000106811523 L -48.512001037597656 46.00500106811523 L -48.38800048828125 45.85400009155273 L -48.29499816894531 45.68099975585937 L -48.23899841308594 45.49300003051757 L -48.21900177001953 45.29800033569335 L -48.23899841308594 45.10300064086913 L -48.29499816894531 44.91600036621093 L -48.38800048828125 44.74300003051757 L -48.512001037597656 44.59099960327148 L -48.66400146484375 44.46699905395507 L -48.83700180053711 44.3740005493164 L -49.02399826049805 44.31700134277343 L -49.152000427246094 44.30452728271484 L -49.21900177001953 44.29800033569335 L -49.41400146484375 44.31700134277343 M -140.01199340820312 -46.480998992919915 L -140.19900512695312 -46.423999786376946 L -140.3719940185547 -46.331001281738274 L -140.5240020751953 -46.20700073242187 L -140.6479949951172 -46.055000305175774 L -140.74099731445312 -45.881999969482415 L -140.7969970703125 -45.69499969482421 L -140.81700134277344 -45.49999999999999 L -140.7969970703125 -45.305000305175774 L -140.74099731445312 -45.11700057983398 L -140.7082061767578 -45.05599975585937 L -140.6479949951172 -44.94400024414062 L -140.5240020751953 -44.791999816894524 L -140.3719940185547 -44.66799926757812 L -140.19900512695312 -44.57600021362304 L -140.01199340820312 -44.51900100708007 L -139.81700134277344 -44.49999999999999 L -139.6219940185547 -44.51900100708007 L -139.4340057373047 -44.57600021362304 L -139.26400756835938 -44.66640472412109 L -139.26100158691406 -44.66799926757812 L -139.11000061035156 -44.791999816894524 L -138.98500061035156 -44.94400024414062 L -138.89300537109375 -45.11700057983398 L -138.83599853515625 -45.305000305175774 L -138.81700134277344 -45.49999999999999 L -138.83599853515625 -45.69499969482421 L -138.89300537109375 -45.881999969482415 L -138.98500061035156 -46.055000305175774 L -139.11000061035156 -46.20700073242187 L -139.26100158691406 -46.331001281738274 L -139.26400756835938 -46.33261108398437 L -139.4340057373047 -46.423999786376946 L -139.6219940185547 -46.480998992919915 L -139.81700134277344 -46.49999999999999 L -140.01199340820312 -46.480998992919915 M -139.4040069580078 44.49000167846679 L -139.57699584960938 44.397998809814446 L -139.76400756835938 44.34099960327148 L -139.95899963378906 44.3219985961914 L -140.15499877929688 44.34099960327148 L -140.3419952392578 44.397998809814446 L -140.51499938964844 44.49000167846679 L -140.66700744628906 44.61399841308593 L -140.79100036621094 44.765998840332024 L -140.88299560546875 44.93899917602538 L -140.91867065429688 45.05599975585937 L -140.94000244140625 45.12599945068359 L -140.95899963378906 45.3219985961914 L -140.94000244140625 45.51699829101562 L -140.88299560546875 45.70399856567382 L -140.79100036621094 45.87699890136718 L -140.66700744628906 46.028999328613274 L -140.51499938964844 46.15299987792968 L -140.3419952392578 46.24599838256835 L -140.15499877929688 46.30199813842773 L -139.95899963378906 46.3219985961914 L -139.76400756835938 46.30199813842773 L -139.57699584960938 46.24599838256835 L -139.4040069580078 46.15299987792968 L -139.26400756835938 46.03878784179687 L -139.2519989013672 46.028999328613274 L -139.1280059814453 45.87699890136718 L -139.03599548339844 45.70399856567382 L -138.97900390625 45.51699829101562 L -138.95899963378906 45.3219985961914 L -138.97900390625 45.12599945068359 L -139.03599548339844 44.93899917602538 L -139.1280059814453 44.765998840332024 L -139.2519989013672 44.61399841308593 L -139.26400756835938 44.60420989990234 L -139.4040069580078 44.49000167846679 z" fill="none" stroke="rgb(255,0,0)" stroke-width="0.001mm" />
</svg>